M48
; DRILL file {KiCad 8.0.6} date 2026-04-20T11:49:02+0200
; FORMAT={-:-/ absolute / inch / decimal}
; #@! TF.CreationDate,2026-04-20T11:49:02+02:00
; #@! TF.GenerationSoftware,Kicad,Pcbnew,8.0.6
; #@! TF.FileFunction,MixedPlating,1,4
FMAT,2
INCH
; #@! TA.AperFunction,Plated,PTH,ViaDrill
T1C0.0098
; #@! TA.AperFunction,Plated,PTH,ViaDrill
T2C0.0118
; #@! TA.AperFunction,Plated,PTH,ComponentDrill
T3C0.0394
; #@! TA.AperFunction,Plated,PTH,ComponentDrill
T4C0.0591
; #@! TA.AperFunction,NonPlated,NPTH,ComponentDrill
T5C0.1220
; #@! TA.AperFunction,NonPlated,NPTH,ComponentDrill
T6C0.1260
%
G90
G05
T1
X6.252Y-4.9557
X6.2766Y-4.1693
X6.3189Y-4.0866
X6.3386Y-4.9508
X6.3524Y-4.062
X6.376Y-4.1417
X6.376Y-4.2028
X6.4173Y-5.0098
X6.4892Y-3.5827
X6.5138Y-4.3711
X6.5138Y-4.31
X6.5246Y-4.7677
X6.5354Y-5.0256
X6.5782Y-4.1653
X6.6387Y-4.1313
X6.6447Y-3.8898
X6.8307Y-4.5364
X6.8429Y-4.363
X6.8593Y-4.4163
X6.872Y-4.4787
X6.9094Y-4.3845
X6.9449Y-4.9931
X6.9488Y-4.3888
X6.9532Y-4.5976
X6.9914Y-4.5155
X7.0195Y-4.3581
X7.0315Y-4.5827
X7.0374Y-4.4321
X7.0842Y-4.4526
X7.1069Y-4.445
X7.122Y-4.9823
X7.1221Y-5.0098
X7.1357Y-4.3842
X7.1555Y-4.4518
X7.1634Y-4.3809
X7.1713Y-4.6083
X7.1713Y-4.6348
X7.175Y-4.4384
X7.1949Y-4.3806
X7.2104Y-3.1178
X7.212Y-5.0174
X7.2144Y-4.5757
X7.2184Y-4.441
X7.2372Y-4.3827
X7.2399Y-5.0275
X7.2542Y-4.5909
X7.2697Y-4.3809
X7.271Y-4.5096
X7.2982Y-4.5148
X7.3155Y-4.5342
X7.3195Y-4.4491
X7.3474Y-4.3504
X7.359Y-4.4188
X7.3701Y-4.3829
X7.3868Y-4.4478
X7.3884Y-4.5079
X7.3967Y-4.3829
X7.4398Y-5.0256
X7.4451Y-4.9938
X7.4454Y-4.5566
X7.4573Y-3.2118
X7.4744Y-4.5472
X7.4747Y-4.5192
X7.4823Y-4.4776
X7.4833Y-5.0246
X7.4872Y-4.4488
X7.5236Y-2.947
X7.5256Y-4.9675
X7.607Y-5.019
X7.6227Y-4.9635
X7.6388Y-4.623
X7.6423Y-5.0132
X7.7274Y-4.623
X7.729Y-4.1492
X7.7329Y-4.9698
X7.7461Y-4.3504
X7.7556Y-4.9925
X7.7687Y-2.5177
X7.7963Y-2.9803
X7.8435Y-3.8829
X7.8622Y-3.9213
X7.8976Y-4.0384
X7.9173Y-4.0561
X7.9429Y-4.7037
X7.9449Y-4.6467
X7.9496Y-4.0787
X7.9744Y-4.1053
X7.9847Y-5.0202
X7.9921Y-4.0591
X8.0246Y-5.0217
X8.1329Y-5.0177
X8.2175Y-4.9724
X8.2943Y-4.9557
T2
X7.7264Y-4.4094
T3
X6.2421Y-3.5128
X6.2421Y-3.6128
X6.2421Y-3.7128
X6.2421Y-3.8128
X6.2421Y-3.9128
X6.7264Y-2.4193
X6.8264Y-2.4193
X6.9264Y-2.4193
X7.0264Y-2.4193
X7.0465Y-2.947
X7.0465Y-3.047
X7.1264Y-2.4193
X7.2264Y-2.4193
X7.2433Y-2.947
X7.2433Y-3.047
X7.3264Y-2.4193
X7.4264Y-2.4193
X7.4311Y-2.947
X7.4311Y-3.047
X7.4311Y-3.147
X7.5264Y-2.4193
X7.6264Y-2.4193
X7.7264Y-2.4193
X7.8264Y-2.4193
X8.062Y-3.9724
X8.062Y-4.0724
X8.062Y-4.1724
X8.2195Y-3.9697
X8.2195Y-4.0697
X8.2195Y-4.1697
X8.2195Y-4.2697
X8.2283Y-3.5433
X8.2283Y-3.7008
T4
X6.2173Y-2.9528
X6.2173Y-3.1528
X6.2189Y-4.5545
X6.2189Y-4.7545
X6.3173Y-3.0528
X6.3189Y-4.6545
X6.4173Y-2.9528
X6.4173Y-3.1528
X6.4189Y-4.5545
X6.4189Y-4.7545
X8.0331Y-2.8528
X8.0331Y-3.0528
X8.0339Y-4.5545
X8.0339Y-4.7545
X8.1331Y-2.9528
X8.1339Y-4.6545
X8.2331Y-2.8528
X8.2331Y-3.0528
X8.2339Y-4.5545
X8.2339Y-4.7545
T5
X6.2598Y-3.3169
X6.2598Y-4.3799
X8.0315Y-3.3169
X8.0315Y-4.3799
T6
X6.69Y-4.7805
X7.6673Y-3.186
M30
