%TF.GenerationSoftware,KiCad,Pcbnew,8.0.6*%
%TF.CreationDate,2026-07-15T12:09:54+02:00*%
%TF.ProjectId,astropix_v5,61737472-6f70-4697-985f-76352e6b6963,rev?*%
%TF.SameCoordinates,Original*%
%TF.FileFunction,Copper,L1,Top*%
%TF.FilePolarity,Positive*%
%FSLAX46Y46*%
G04 Gerber Fmt 4.6, Leading zero omitted, Abs format (unit mm)*
G04 Created by KiCad (PCBNEW 8.0.6) date 2026-07-15 12:09:54*
%MOMM*%
%LPD*%
G01*
G04 APERTURE LIST*
G04 Aperture macros list*
%AMRoundRect*
0 Rectangle with rounded corners*
0 $1 Rounding radius*
0 $2 $3 $4 $5 $6 $7 $8 $9 X,Y pos of 4 corners*
0 Add a 4 corners polygon primitive as box body*
4,1,4,$2,$3,$4,$5,$6,$7,$8,$9,$2,$3,0*
0 Add four circle primitives for the rounded corners*
1,1,$1+$1,$2,$3*
1,1,$1+$1,$4,$5*
1,1,$1+$1,$6,$7*
1,1,$1+$1,$8,$9*
0 Add four rect primitives between the rounded corners*
20,1,$1+$1,$2,$3,$4,$5,0*
20,1,$1+$1,$4,$5,$6,$7,0*
20,1,$1+$1,$6,$7,$8,$9,0*
20,1,$1+$1,$8,$9,$2,$3,0*%
G04 Aperture macros list end*
%TA.AperFunction,EtchedComponent*%
%ADD10C,0.120000*%
%TD*%
%TA.AperFunction,EtchedComponent*%
%ADD11C,0.125000*%
%TD*%
%TA.AperFunction,ComponentPad*%
%ADD12C,2.250000*%
%TD*%
%TA.AperFunction,SMDPad,CuDef*%
%ADD13RoundRect,0.225000X0.250000X-0.225000X0.250000X0.225000X-0.250000X0.225000X-0.250000X-0.225000X0*%
%TD*%
%TA.AperFunction,ComponentPad*%
%ADD14R,1.700000X1.700000*%
%TD*%
%TA.AperFunction,ComponentPad*%
%ADD15O,1.700000X1.700000*%
%TD*%
%TA.AperFunction,SMDPad,CuDef*%
%ADD16C,1.000000*%
%TD*%
%TA.AperFunction,SMDPad,CuDef*%
%ADD17RoundRect,0.225000X-0.250000X0.225000X-0.250000X-0.225000X0.250000X-0.225000X0.250000X0.225000X0*%
%TD*%
%TA.AperFunction,SMDPad,CuDef*%
%ADD18RoundRect,0.200000X-0.275000X0.200000X-0.275000X-0.200000X0.275000X-0.200000X0.275000X0.200000X0*%
%TD*%
%TA.AperFunction,SMDPad,CuDef*%
%ADD19R,0.125000X0.600000*%
%TD*%
%TA.AperFunction,SMDPad,CuDef*%
%ADD20R,19.480000X0.400000*%
%TD*%
%TA.AperFunction,SMDPad,CuDef*%
%ADD21R,0.600000X0.125000*%
%TD*%
%TA.AperFunction,SMDPad,CuDef*%
%ADD22RoundRect,0.250000X-0.325000X-1.100000X0.325000X-1.100000X0.325000X1.100000X-0.325000X1.100000X0*%
%TD*%
%TA.AperFunction,SMDPad,CuDef*%
%ADD23RoundRect,0.200000X-0.200000X-0.275000X0.200000X-0.275000X0.200000X0.275000X-0.200000X0.275000X0*%
%TD*%
%TA.AperFunction,ConnectorPad*%
%ADD24R,0.700000X4.300000*%
%TD*%
%TA.AperFunction,ComponentPad*%
%ADD25C,2.000000*%
%TD*%
%TA.AperFunction,SMDPad,CuDef*%
%ADD26RoundRect,0.225000X-0.225000X-0.250000X0.225000X-0.250000X0.225000X0.250000X-0.225000X0.250000X0*%
%TD*%
%TA.AperFunction,ViaPad*%
%ADD27C,0.450000*%
%TD*%
%TA.AperFunction,ViaPad*%
%ADD28C,0.500000*%
%TD*%
%TA.AperFunction,Conductor*%
%ADD29C,0.250000*%
%TD*%
%TA.AperFunction,Conductor*%
%ADD30C,0.500000*%
%TD*%
%TA.AperFunction,Conductor*%
%ADD31C,0.450000*%
%TD*%
%TA.AperFunction,Conductor*%
%ADD32C,0.200000*%
%TD*%
%TA.AperFunction,Conductor*%
%ADD33C,0.300000*%
%TD*%
%TA.AperFunction,Conductor*%
%ADD34C,0.800000*%
%TD*%
%TA.AperFunction,Conductor*%
%ADD35C,0.125000*%
%TD*%
%TA.AperFunction,Conductor*%
%ADD36C,0.150000*%
%TD*%
%TA.AperFunction,Conductor*%
%ADD37C,0.160000*%
%TD*%
%TA.AperFunction,Conductor*%
%ADD38C,0.130000*%
%TD*%
%TA.AperFunction,Conductor*%
%ADD39C,0.400000*%
%TD*%
%TA.AperFunction,Conductor*%
%ADD40C,0.140000*%
%TD*%
G04 APERTURE END LIST*
D10*
%TO.C,U2*%
X171000000Y-112920000D02*
X171750000Y-112920000D01*
X171350000Y-112570000D02*
X171350000Y-113320000D01*
X171485000Y-93820000D02*
X172235000Y-93820000D01*
X171835000Y-93470000D02*
X171835000Y-94220000D01*
X196720000Y-98130000D02*
X197470000Y-98130000D01*
X197070000Y-97780000D02*
X197070000Y-98530000D01*
D11*
X171750000Y-112920000D02*
G75*
G02*
X170950000Y-112920000I-400000J0D01*
G01*
X170950000Y-112920000D02*
G75*
G02*
X171750000Y-112920000I400000J0D01*
G01*
X172235000Y-93820000D02*
G75*
G02*
X171435000Y-93820000I-400000J0D01*
G01*
X171435000Y-93820000D02*
G75*
G02*
X172235000Y-93820000I400000J0D01*
G01*
X197470000Y-98130000D02*
G75*
G02*
X196670000Y-98130000I-400000J0D01*
G01*
X196670000Y-98130000D02*
G75*
G02*
X197470000Y-98130000I400000J0D01*
G01*
%TD*%
D12*
%TO.P,J4,1,In*%
%TO.N,Net-(J4-In)*%
X207285000Y-77415000D03*
%TO.P,J4,2,Ext*%
%TO.N,GND*%
X209825000Y-74875000D03*
X204745000Y-74875000D03*
X209825000Y-79955000D03*
X204745000Y-79955000D03*
%TD*%
D13*
%TO.P,C2,1*%
%TO.N,VDD*%
X163840000Y-106675000D03*
%TO.P,C2,2*%
%TO.N,GND*%
X163840000Y-105125000D03*
%TD*%
D14*
%TO.P,JP5,1,A*%
%TO.N,GND*%
X178980000Y-74855000D03*
D15*
%TO.P,JP5,2,B*%
%TO.N,Net-(JP5-B)*%
X178980000Y-77395000D03*
%TD*%
D16*
%TO.P,FID4,*%
%TO.N,*%
X207500000Y-64125000D03*
%TD*%
D14*
%TO.P,J14,1,Pin_1*%
%TO.N,Net-(J14-Pin_1)*%
X170850000Y-61450000D03*
D15*
%TO.P,J14,2,Pin_2*%
%TO.N,/blpix*%
X173390000Y-61450000D03*
%TO.P,J14,3,Pin_3*%
%TO.N,Net-(J14-Pin_3)*%
X175930000Y-61450000D03*
%TO.P,J14,4,Pin_4*%
%TO.N,Net-(J14-Pin_4)*%
X178470000Y-61450000D03*
%TO.P,J14,5,Pin_5*%
%TO.N,Net-(J14-Pin_5)*%
X181010000Y-61450000D03*
%TO.P,J14,6,Pin_6*%
%TO.N,/ThPix*%
X183550000Y-61450000D03*
%TO.P,J14,7,Pin_7*%
%TO.N,unconnected-(J14-Pin_7-Pad7)*%
X186090000Y-61450000D03*
%TO.P,J14,8,Pin_8*%
%TO.N,/VCasc2!*%
X188630000Y-61450000D03*
%TO.P,J14,9,Pin_9*%
%TO.N,unconnected-(J14-Pin_9-Pad9)*%
X191170000Y-61450000D03*
%TO.P,J14,10,Pin_10*%
%TO.N,Net-(J14-Pin_10)*%
X193710000Y-61450000D03*
%TO.P,J14,11,Pin_11*%
%TO.N,GND*%
X196250000Y-61450000D03*
%TO.P,J14,12,Pin_12*%
%TO.N,Net-(J14-Pin_12)*%
X198790000Y-61450000D03*
%TD*%
D17*
%TO.P,C9,1*%
%TO.N,VSSA*%
X168250000Y-109475000D03*
%TO.P,C9,2*%
%TO.N,GND*%
X168250000Y-111025000D03*
%TD*%
D13*
%TO.P,C4,1*%
%TO.N,VDD*%
X165350000Y-106675000D03*
%TO.P,C4,2*%
%TO.N,GND*%
X165350000Y-105125000D03*
%TD*%
D18*
%TO.P,R4,1*%
%TO.N,/interrupt*%
X202075000Y-105450000D03*
%TO.P,R4,2*%
%TO.N,VDD*%
X202075000Y-107100000D03*
%TD*%
%TO.P,R2,1*%
%TO.N,Net-(J1-In)*%
X200050000Y-117825000D03*
%TO.P,R2,2*%
%TO.N,GND*%
X200050000Y-119475000D03*
%TD*%
D19*
%TO.P,U2,B3,chipring*%
%TO.N,Net-(JP5-B)*%
X175470000Y-112050000D03*
%TO.P,U2,B4,sub!*%
%TO.N,suba*%
X175510000Y-113760000D03*
%TO.P,U2,B5,sub!*%
X176440000Y-113770000D03*
%TO.P,U2,B6,dnring*%
%TO.N,Net-(JP3-C)*%
X177320000Y-112000000D03*
%TO.P,U2,B7,pring_pixel*%
%TO.N,Net-(JP4-B)*%
X177750000Y-110640000D03*
%TO.P,U2,B20,VGateComp!*%
%TO.N,Net-(U2A-VGateComp!)*%
X177710000Y-113710000D03*
%TO.P,U2,B21,SR_out_OD*%
%TO.N,/SR_out_0D*%
X178410000Y-112020000D03*
%TO.P,U2,B22,SR_out_CK1*%
%TO.N,/SR_out_CK1*%
X179070000Y-110640000D03*
%TO.P,U2,B23,vpDel*%
%TO.N,Net-(J14-Pin_5)*%
X178240000Y-113670000D03*
%TO.P,U2,B24,pll_clk*%
%TO.N,Net-(J4-In)*%
X179170000Y-111990000D03*
%TO.P,U2,B25,Enable_SPI_diff*%
%TO.N,/Enable_SPI_diff*%
X179730000Y-110640000D03*
%TO.P,U2,B28,SPI_MISO1_P*%
%TO.N,/SPI_MISO1_P*%
X179180000Y-113730000D03*
%TO.P,U2,B29,SPI_MISO1_N*%
%TO.N,/SPI_MISO1_N*%
X179620000Y-113730000D03*
%TO.P,U2,B30,SPI_MISO0_P*%
%TO.N,/SPI_MISO0_P*%
X180372500Y-110640000D03*
%TO.P,U2,B31,SPI_MISO0_N*%
%TO.N,/SPI_MISO0_N*%
X180720000Y-110640000D03*
%TO.P,U2,B33,SPI_MOSI_P*%
%TO.N,/SPI_MOSI_P*%
X180187500Y-113750000D03*
%TO.P,U2,B34,SPI_MOSI_N*%
%TO.N,/SPI_MOSI_N*%
X180550000Y-113750000D03*
%TO.P,U2,B35,SPI_CLK_P*%
%TO.N,/SPI_CLK_P*%
X180870000Y-112040000D03*
%TO.P,U2,B36,SPI_CLK_N*%
%TO.N,/SPI_CLK_N*%
X181265000Y-112060000D03*
%TO.P,U2,B37,SPI_CSN_P*%
%TO.N,/SPI_CSN_P*%
X181100000Y-113750000D03*
%TO.P,U2,B38,SPI_CSN_N*%
%TO.N,/SPI_CSN_N*%
X181530000Y-113730000D03*
%TO.P,U2,B40,HBOut*%
%TO.N,Net-(J5-In)*%
X181847500Y-112060000D03*
%TO.P,U2,B41,timestamp_clk*%
%TO.N,/timestamp_clk*%
X182070000Y-110640000D03*
%TO.P,U2,B42,Clk20_Ext_P*%
%TO.N,/Clk20_Ext_P*%
X181960000Y-113720000D03*
%TO.P,U2,B43,Clk20_Ext_N*%
%TO.N,/Clk20_Ext_N*%
X182440000Y-113710000D03*
%TO.P,U2,B46,interrupt*%
%TO.N,/interrupt*%
X182700000Y-110640000D03*
%TO.P,U2,B47,res_n*%
%TO.N,/res_n*%
X182820000Y-112060000D03*
%TO.P,U2,B48,syncres*%
%TO.N,/syncres*%
X182920000Y-113730000D03*
%TO.P,U2,B49,hold*%
%TO.N,/hold*%
X183290000Y-110640000D03*
%TO.P,U2,B50,SR_ck1*%
%TO.N,/SR_ck1*%
X183550000Y-113750000D03*
%TO.P,U2,B51,SR_ck2*%
%TO.N,/SR_ck2*%
X183640000Y-112040000D03*
%TO.P,U2,B52,SR_load*%
%TO.N,/SR_load*%
X183790000Y-110640000D03*
%TO.P,U2,B53,SR_sin*%
%TO.N,/SR_sin*%
X184227500Y-113770000D03*
%TO.P,U2,B54,SR_rb*%
%TO.N,/SR_rb*%
X184270000Y-111980000D03*
%TO.P,U2,B55,SR_ldtdac*%
%TO.N,/SR_ldtdac*%
X184340000Y-110640000D03*
%TO.P,U2,B56,SR_ldpatgen*%
%TO.N,/SR_ldpatgen*%
X184920000Y-113800000D03*
%TO.P,U2,B57,SR_sout*%
%TO.N,/SR_sout*%
X184842500Y-112060000D03*
%TO.P,U2,B66,VPBias!*%
%TO.N,Net-(J14-Pin_3)*%
X185312500Y-112060000D03*
%TO.P,U2,B67,pamp*%
%TO.N,Net-(J14-Pin_1)*%
X185330000Y-110640000D03*
%TO.P,U2,B68,blpix*%
%TO.N,/blpix*%
X185900000Y-113720000D03*
%TO.P,U2,B69,pload*%
%TO.N,Net-(J14-Pin_4)*%
X185900000Y-112060000D03*
%TO.P,U2,B72,Inj*%
%TO.N,/Inj*%
X186330000Y-112050000D03*
%TO.P,U2,B74,ThPix*%
%TO.N,/ThPix*%
X186972500Y-113710000D03*
%TO.P,U2,B77,ampout*%
%TO.N,Net-(J1-In)*%
X187560000Y-113710000D03*
%TO.P,U2,B78,Qdac<0>*%
%TO.N,Net-(U2A-Qdac<0>)*%
X187430000Y-112060000D03*
%TO.P,U2,B79,Qdac<1>*%
%TO.N,Net-(U2A-Qdac<1>)*%
X187260000Y-110640000D03*
%TO.P,U2,B81,VCasc2!*%
%TO.N,/VCasc2!*%
X188110000Y-112060000D03*
%TO.P,U2,B84,Vtemp1*%
%TO.N,Net-(J12-Pin_1)*%
X188710000Y-112060000D03*
%TO.P,U2,B85,Vtemp2*%
%TO.N,Net-(J12-Pin_2)*%
X188380000Y-110640000D03*
%TO.P,U2,B86,cascpix*%
%TO.N,Net-(J14-Pin_10)*%
X189430000Y-113730000D03*
%TO.P,U2,B93,DigInj*%
%TO.N,/DigInj*%
X189620000Y-112060000D03*
%TO.P,U2,B96,vminusref*%
%TO.N,Net-(J14-Pin_12)*%
X190190000Y-112060000D03*
%TO.P,U2,B97,vminusout*%
%TO.N,Net-(U2A-vminusout)*%
X190100000Y-110640000D03*
%TO.P,U2,B98,vminuspix*%
%TO.N,/vminuspix*%
X191570000Y-113730000D03*
D20*
%TO.P,U2,GNDA_Ring,gnda!*%
%TO.N,GND*%
X184090000Y-109850000D03*
%TO.P,U2,GND_Ring,gnd!*%
X184090000Y-109175000D03*
D21*
%TO.P,U2,L1,SPI_left_MISO1*%
%TO.N,/SPI_left_MISO1*%
X172370000Y-105630000D03*
%TO.P,U2,L2,SPI_left_MISO0*%
%TO.N,/SPI_left_MISO0*%
X171360000Y-105797500D03*
%TO.P,U2,L3,SPI_left_MOSI*%
%TO.N,/SPI_left_MOSI*%
X172380000Y-106010000D03*
%TO.P,U2,L4,SPI_left_CLK*%
%TO.N,/SPI_left_CLK*%
X171360000Y-106222500D03*
%TO.P,U2,L5,SPI_left_CSN*%
%TO.N,/SPI_left_CSN*%
X172390000Y-106420000D03*
%TO.P,U2,L6,pring4*%
%TO.N,Net-(J2-Pin_5)*%
X172360000Y-104430000D03*
%TO.P,U2,L7,pring3*%
%TO.N,Net-(J2-Pin_4)*%
X171360000Y-104242500D03*
%TO.P,U2,L8,pring2*%
%TO.N,Net-(J2-Pin_3)*%
X172380000Y-104040000D03*
%TO.P,U2,L9,pring1*%
%TO.N,Net-(J2-Pin_2)*%
X171410000Y-103670000D03*
%TO.P,U2,L10,pring0*%
%TO.N,Net-(J2-Pin_1)*%
X172390000Y-103400000D03*
D19*
%TO.P,U2,R1,SPI_right_CSN*%
%TO.N,/SPI_right_CSN*%
X194020000Y-112070000D03*
%TO.P,U2,R2,SPI_right_CLK*%
%TO.N,/SPI_right_CLK*%
X193500000Y-110680000D03*
%TO.P,U2,R3,SPI_right_MOSI*%
%TO.N,/SPI_right_MOSI*%
X193300000Y-112070000D03*
%TO.P,U2,R4,SPI_right_MISO<0>*%
%TO.N,/SPI_right_MISO0*%
X192790000Y-110640000D03*
%TO.P,U2,R5,SPI_right_MISO<1>*%
%TO.N,/SPI_right_MISO1*%
X192537500Y-112060000D03*
D20*
%TO.P,U2,VDDA_Ring,vdda!*%
%TO.N,VDDA*%
X184090000Y-107825000D03*
%TO.P,U2,VDD_Ring,vdd!*%
%TO.N,VDD*%
X184090000Y-107150000D03*
%TO.P,U2,VSSA_Ring,vssa!*%
%TO.N,VSSA*%
X184090000Y-108500000D03*
%TD*%
D18*
%TO.P,R3,1*%
%TO.N,Net-(J5-In)*%
X165725000Y-118150000D03*
%TO.P,R3,2*%
%TO.N,GND*%
X165725000Y-119800000D03*
%TD*%
D14*
%TO.P,JP3,1,A*%
%TO.N,GND*%
X188750000Y-74855000D03*
D15*
%TO.P,JP3,2,C*%
%TO.N,Net-(JP3-C)*%
X188750000Y-77395000D03*
%TO.P,JP3,3,B*%
%TO.N,VDDA*%
X188750000Y-79935000D03*
%TD*%
D22*
%TO.P,C15,1*%
%TO.N,GND*%
X164975000Y-89275000D03*
%TO.P,C15,2*%
%TO.N,suba*%
X167925000Y-89275000D03*
%TD*%
D12*
%TO.P,J7,1,In*%
%TO.N,/HV_in_ext*%
X160460000Y-77540000D03*
%TO.P,J7,2,Ext*%
%TO.N,GND*%
X157920000Y-80080000D03*
X163000000Y-80080000D03*
X157920000Y-75000000D03*
X163000000Y-75000000D03*
%TD*%
D16*
%TO.P,FID3,*%
%TO.N,*%
X170775000Y-69725000D03*
%TD*%
D14*
%TO.P,J2,1,Pin_1*%
%TO.N,Net-(J2-Pin_1)*%
X158550000Y-89225000D03*
D15*
%TO.P,J2,2,Pin_2*%
%TO.N,Net-(J2-Pin_2)*%
X158550000Y-91765000D03*
%TO.P,J2,3,Pin_3*%
%TO.N,Net-(J2-Pin_3)*%
X158550000Y-94305000D03*
%TO.P,J2,4,Pin_4*%
%TO.N,Net-(J2-Pin_4)*%
X158550000Y-96845000D03*
%TO.P,J2,5,Pin_5*%
%TO.N,Net-(J2-Pin_5)*%
X158550000Y-99385000D03*
%TD*%
D17*
%TO.P,C13,1*%
%TO.N,VDDA*%
X201010000Y-110475000D03*
%TO.P,C13,2*%
%TO.N,GND*%
X201010000Y-112025000D03*
%TD*%
%TO.P,C11,1*%
%TO.N,VSSA*%
X166740000Y-109475000D03*
%TO.P,C11,2*%
%TO.N,GND*%
X166740000Y-111025000D03*
%TD*%
D23*
%TO.P,R1,1*%
%TO.N,/HV_in_ext*%
X166025000Y-85700000D03*
%TO.P,R1,2*%
%TO.N,suba*%
X167675000Y-85700000D03*
%TD*%
D24*
%TO.P,J3,B1,HV*%
%TO.N,unconnected-(J3-HV-PadB1)*%
X156000000Y-130575000D03*
%TO.P,J3,B2*%
%TO.N,N/C*%
X157000000Y-130575000D03*
%TO.P,J3,B3,VDD18*%
%TO.N,unconnected-(J3-VDD18-PadB3)*%
X158000000Y-130575000D03*
%TO.P,J3,B4,VDD18*%
%TO.N,unconnected-(J3-VDD18-PadB4)*%
X159000000Y-130575000D03*
%TO.P,J3,B5,POW4*%
%TO.N,VDD*%
X160000000Y-130575000D03*
%TO.P,J3,B6,POW4*%
X161000000Y-130575000D03*
%TO.P,J3,B7,POW6*%
%TO.N,VDDA*%
X162000000Y-130575000D03*
%TO.P,J3,B8,POW6*%
X163000000Y-130575000D03*
%TO.P,J3,B9,POW8*%
%TO.N,unconnected-(J3-POW8-PadB9)*%
X164000000Y-130575000D03*
%TO.P,J3,B10,POW8*%
%TO.N,unconnected-(J3-POW8-PadB10)*%
X165000000Y-130575000D03*
%TO.P,J3,B11,GND*%
%TO.N,GND*%
X166000000Y-130575000D03*
%TO.P,J3,B12,C1_4*%
%TO.N,unconnected-(J3-C1_4-PadB12)*%
X169000000Y-130575000D03*
%TO.P,J3,B13,C1_3*%
%TO.N,unconnected-(J3-C1_3-PadB13)*%
X170000000Y-130575000D03*
%TO.P,J3,B14,C1_8*%
%TO.N,unconnected-(J3-C1_8-PadB14)*%
X171000000Y-130575000D03*
%TO.P,J3,B15,C1_7*%
%TO.N,unconnected-(J3-C1_7-PadB15)*%
X172000000Y-130575000D03*
%TO.P,J3,B16,FMC_LA24_P*%
%TO.N,/SR_out_CK1*%
X173000000Y-130575000D03*
%TO.P,J3,B17,FMC_LA24_N*%
%TO.N,/SR_out_0D*%
X174000000Y-130575000D03*
%TO.P,J3,B18,FMC_LA22_P*%
%TO.N,/SPI_MISO1_P*%
X175000000Y-130575000D03*
%TO.P,J3,B19,FMC_LA22_N*%
%TO.N,/SPI_MISO1_N*%
X176000000Y-130575000D03*
%TO.P,J3,B20,FMC_LA20_P*%
%TO.N,/SPI_MOSI_P*%
X177000000Y-130575000D03*
%TO.P,J3,B21,FMC_LA20_N*%
%TO.N,/SPI_MOSI_N*%
X178000000Y-130575000D03*
%TO.P,J3,B22,FMC_LA18_CC_P*%
%TO.N,/SPI_CSN_P*%
X179000000Y-130575000D03*
%TO.P,J3,B23,FMC_LA18_CC_N*%
%TO.N,/SPI_CSN_N*%
X180000000Y-130575000D03*
%TO.P,J3,B24,C2_4*%
%TO.N,unconnected-(J3-C2_4-PadB24)*%
X181000000Y-130575000D03*
%TO.P,J3,B25,C2_3*%
%TO.N,unconnected-(J3-C2_3-PadB25)*%
X182000000Y-130575000D03*
%TO.P,J3,B26,C2_8*%
%TO.N,unconnected-(J3-C2_8-PadB26)*%
X183000000Y-130575000D03*
%TO.P,J3,B27,C2_7*%
%TO.N,unconnected-(J3-C2_7-PadB27)*%
X184000000Y-130575000D03*
%TO.P,J3,B28,C3_4*%
%TO.N,unconnected-(J3-C3_4-PadB28)*%
X185000000Y-130575000D03*
%TO.P,J3,B29,C3_3*%
%TO.N,unconnected-(J3-C3_3-PadB29)*%
X186000000Y-130575000D03*
%TO.P,J3,B30,C3_8*%
%TO.N,unconnected-(J3-C3_8-PadB30)*%
X187000000Y-130575000D03*
%TO.P,J3,B31,C3_7*%
%TO.N,unconnected-(J3-C3_7-PadB31)*%
X188000000Y-130575000D03*
%TO.P,J3,B32,C4_4*%
%TO.N,/blpix*%
X189000000Y-130575000D03*
%TO.P,J3,B33,C4_3*%
%TO.N,/ThPix*%
X190000000Y-130575000D03*
%TO.P,J3,B34,C4_8*%
%TO.N,/VCasc2!*%
X191000000Y-130575000D03*
%TO.P,J3,B35,C4_7*%
%TO.N,/vminuspix*%
X192000000Y-130575000D03*
%TO.P,J3,B36,C5_4*%
%TO.N,unconnected-(J3-C5_4-PadB36)*%
X193000000Y-130575000D03*
%TO.P,J3,B37,C5_3*%
%TO.N,unconnected-(J3-C5_3-PadB37)*%
X194000000Y-130575000D03*
%TO.P,J3,B38,C5_8*%
%TO.N,unconnected-(J3-C5_8-PadB38)*%
X195000000Y-130575000D03*
%TO.P,J3,B39,C5_7*%
%TO.N,unconnected-(J3-C5_7-PadB39)*%
X196000000Y-130575000D03*
%TO.P,J3,B40,FMC_LA16_P*%
%TO.N,/SPI_MISO0_P*%
X197000000Y-130575000D03*
%TO.P,J3,B41,FMC_LA16_N*%
%TO.N,/SPI_MISO0_N*%
X198000000Y-130575000D03*
%TO.P,J3,B42,FMC_LA14_P*%
%TO.N,/Clk20_Ext_P*%
X199000000Y-130575000D03*
%TO.P,J3,B43,FMC_LA14_N*%
%TO.N,/Clk20_Ext_N*%
X200000000Y-130575000D03*
%TO.P,J3,B44,FMC_LA12_P*%
%TO.N,/SR_sin*%
X201000000Y-130575000D03*
%TO.P,J3,B45,FMC_LA12_N*%
%TO.N,/syncres*%
X202000000Y-130575000D03*
%TO.P,J3,B46,FMC_LA10_P*%
%TO.N,/res_n*%
X203000000Y-130575000D03*
%TO.P,J3,B47,FMC_LA10_N*%
%TO.N,/hold*%
X204000000Y-130575000D03*
%TO.P,J3,B48,FMC_LA08_P*%
%TO.N,/SR_ck1*%
X205000000Y-130575000D03*
%TO.P,J3,B49,FMC_LA08_N*%
%TO.N,/SR_ck2*%
X206000000Y-130575000D03*
%TO.P,J3,B50,FMC_LA06_P*%
%TO.N,/SR_sin*%
X207000000Y-130575000D03*
%TO.P,J3,B51,FMC_LA06_N*%
%TO.N,/DigInj*%
X208000000Y-130575000D03*
%TO.P,J3,B52,FMC_LA04_P*%
%TO.N,/interrupt*%
X209000000Y-130575000D03*
%TO.P,J3,B53,FMC_LA04_N*%
%TO.N,/SR_load*%
X210000000Y-130575000D03*
%TO.P,J3,B54,FMC_LA02_P*%
X211000000Y-130575000D03*
%TD*%
D14*
%TO.P,JP4,1,A*%
%TO.N,GND*%
X183980000Y-74855000D03*
D15*
%TO.P,JP4,2,B*%
%TO.N,Net-(JP4-B)*%
X183980000Y-77395000D03*
%TD*%
D12*
%TO.P,J5,1,In*%
%TO.N,Net-(J5-In)*%
X160500000Y-118225000D03*
%TO.P,J5,2,Ext*%
%TO.N,GND*%
X157960000Y-120765000D03*
X163040000Y-120765000D03*
X157960000Y-115685000D03*
X163040000Y-115685000D03*
%TD*%
D17*
%TO.P,C6,1*%
%TO.N,VSSA*%
X169740000Y-109475000D03*
%TO.P,C6,2*%
%TO.N,GND*%
X169740000Y-111025000D03*
%TD*%
%TO.P,C8,1*%
%TO.N,VDDA*%
X198010000Y-110475000D03*
%TO.P,C8,2*%
%TO.N,GND*%
X198010000Y-112025000D03*
%TD*%
D14*
%TO.P,J8,1,Pin_1*%
%TO.N,/interrupt*%
X204775000Y-105980000D03*
D15*
%TO.P,J8,2,Pin_2*%
%TO.N,unconnected-(J8-Pin_2-Pad2)*%
X204775000Y-103440000D03*
%TO.P,J8,3,Pin_3*%
%TO.N,GND*%
X204775000Y-100900000D03*
%TD*%
D25*
%TO.P,TP2,1,1*%
%TO.N,Net-(U2A-Qdac<1>)*%
X209000000Y-94000000D03*
%TD*%
D14*
%TO.P,J12,1,Pin_1*%
%TO.N,Net-(J12-Pin_1)*%
X208775000Y-108450000D03*
D15*
%TO.P,J12,2,Pin_2*%
%TO.N,Net-(J12-Pin_2)*%
X208775000Y-105910000D03*
%TO.P,J12,3,Pin_3*%
%TO.N,unconnected-(J12-Pin_3-Pad3)*%
X208775000Y-103370000D03*
%TO.P,J12,4,Pin_4*%
%TO.N,GND*%
X208775000Y-100830000D03*
%TD*%
D13*
%TO.P,C1,1*%
%TO.N,VDD*%
X162350000Y-106675000D03*
%TO.P,C1,2*%
%TO.N,GND*%
X162350000Y-105125000D03*
%TD*%
D25*
%TO.P,TP1,1,1*%
%TO.N,Net-(U2A-Qdac<0>)*%
X209000000Y-90000000D03*
%TD*%
D17*
%TO.P,C10,1*%
%TO.N,VDDA*%
X199500000Y-110475000D03*
%TO.P,C10,2*%
%TO.N,GND*%
X199500000Y-112025000D03*
%TD*%
D23*
%TO.P,R6,1*%
%TO.N,Net-(U2A-vminusout)*%
X190925000Y-116750000D03*
%TO.P,R6,2*%
%TO.N,/vminuspix*%
X192575000Y-116750000D03*
%TD*%
D22*
%TO.P,C14,1*%
%TO.N,GND*%
X164975000Y-92625000D03*
%TO.P,C14,2*%
%TO.N,suba*%
X167925000Y-92625000D03*
%TD*%
D12*
%TO.P,J1,1,In*%
%TO.N,Net-(J1-In)*%
X206600000Y-118225000D03*
%TO.P,J1,2,Ext*%
%TO.N,GND*%
X209140000Y-115685000D03*
X204060000Y-115685000D03*
X209140000Y-120765000D03*
X204060000Y-120765000D03*
%TD*%
D26*
%TO.P,C3,1*%
%TO.N,GND*%
X174650000Y-115250000D03*
%TO.P,C3,2*%
%TO.N,Net-(U2A-VGateComp!)*%
X176200000Y-115250000D03*
%TD*%
D27*
%TO.N,GND*%
X166000000Y-127050001D03*
X173500000Y-115224998D03*
X164812500Y-87661500D03*
D28*
X196250000Y-112000000D03*
D27*
X191099980Y-74855000D03*
X201750002Y-119475000D03*
X165450000Y-111025000D03*
X197325000Y-63950000D03*
X165725000Y-121099992D03*
X161536766Y-105211764D03*
%TO.N,VDD*%
X161000000Y-125149943D03*
X161499992Y-106750000D03*
%TO.N,VSSA*%
X165450014Y-109475000D03*
X158800000Y-125274999D03*
%TO.N,VDDA*%
X196750000Y-110500000D03*
X162999976Y-126649999D03*
X188775000Y-81825000D03*
%TO.N,suba*%
X168762500Y-95461500D03*
X174549998Y-113760000D03*
%TO.N,Net-(J1-In)*%
X201525000Y-118025004D03*
X187665000Y-114500000D03*
%TO.N,/SPI_left_MISO1*%
X160864125Y-104214125D03*
%TO.N,/SPI_left_MISO0*%
X160375000Y-105375002D03*
%TO.N,/SPI_left_CSN*%
X159425000Y-105900000D03*
%TO.N,/SPI_left_MOSI*%
X168622006Y-104935000D03*
%TO.N,/SPI_left_CLK*%
X166671860Y-105803140D03*
%TO.N,Net-(J4-In)*%
X178294930Y-110694930D03*
%TO.N,Net-(J5-In)*%
X181246949Y-111359332D03*
X177042442Y-114821769D03*
%TO.N,/interrupt*%
X196315640Y-105390640D03*
X182750012Y-111266868D03*
%TO.N,Net-(J12-Pin_2)*%
X189050000Y-115125000D03*
%TO.N,Net-(J12-Pin_1)*%
X189950000Y-114825000D03*
%TO.N,/SR_sin*%
X197325368Y-122050000D03*
X200330913Y-126250002D03*
%TO.N,/timestamp_clk*%
X181950000Y-111275000D03*
%TO.N,/SR_ck2*%
X196537499Y-122487499D03*
%TO.N,/Inj*%
X189425000Y-119550000D03*
%TO.N,/SR_load*%
X204950000Y-123765000D03*
X183825308Y-111320869D03*
%TO.N,/hold*%
X191800000Y-123100000D03*
X183347512Y-112802502D03*
%TO.N,/SPI_right_MOSI*%
X196659577Y-116131087D03*
%TO.N,/vminuspix*%
X192475000Y-119075000D03*
X192075000Y-127125000D03*
%TO.N,/SPI_right_MISO0*%
X195600000Y-116212500D03*
%TO.N,/SR_ldpatgen*%
X184725006Y-114250000D03*
%TO.N,/SR_ck1*%
X195450000Y-122830000D03*
%TO.N,/SR_ldtdac*%
X186763129Y-116086871D03*
%TO.N,/blpix*%
X188950000Y-127150000D03*
X188860875Y-118839123D03*
X200600000Y-102575000D03*
X185916087Y-113005947D03*
%TO.N,/ThPix*%
X186917654Y-112238756D03*
X201100004Y-103025000D03*
X189950000Y-119075000D03*
X190000000Y-127150006D03*
%TO.N,/SR_rb*%
X185250000Y-114800000D03*
%TO.N,/Enable_SPI_diff*%
X178099274Y-115509414D03*
%TO.N,/SPI_right_CSN*%
X199599999Y-116724999D03*
%TO.N,/SR_sout*%
X185781369Y-115402499D03*
%TO.N,/SR_out_CK1*%
X178750000Y-112575000D03*
X176610999Y-116778861D03*
%TO.N,/VCasc2!*%
X191000004Y-120600000D03*
X191000000Y-127124994D03*
X201921073Y-103600212D03*
X188378140Y-114921860D03*
%TO.N,/SPI_right_MISO1*%
X194050000Y-116425000D03*
%TO.N,/SPI_right_CLK*%
X197435084Y-116187500D03*
%TO.N,Net-(J14-Pin_3)*%
X199375000Y-98625000D03*
X184650000Y-111275004D03*
%TO.N,Net-(J14-Pin_4)*%
X187200012Y-111325000D03*
X199700000Y-99600000D03*
%TO.N,Net-(J14-Pin_1)*%
X198250000Y-78400000D03*
X186625000Y-110500000D03*
%TO.N,Net-(JP3-C)*%
X175500000Y-111367570D03*
%TO.N,Net-(JP4-B)*%
X183143073Y-79192068D03*
X176500000Y-111475000D03*
%TO.N,Net-(JP5-B)*%
X174625000Y-110500000D03*
%TO.N,Net-(U2A-Qdac<0>)*%
X187625000Y-112975000D03*
%TO.N,Net-(U2A-Qdac<1>)*%
X187875000Y-111325000D03*
%TO.N,Net-(J14-Pin_12)*%
X190175000Y-113000000D03*
X203000000Y-103100000D03*
%TO.N,/SPI_MISO0_P*%
X179939580Y-113097190D03*
X181470059Y-118344490D03*
%TO.N,/SPI_CLK_P*%
X183125000Y-117247646D03*
X181750000Y-113075000D03*
X196500000Y-124925000D03*
%TO.N,/SPI_MISO0_N*%
X181518159Y-117720837D03*
X180609007Y-112845834D03*
%TO.N,Net-(J14-Pin_10)*%
X202550000Y-104275000D03*
X190050000Y-113730000D03*
%TO.N,/SPI_CLK_N*%
X182214377Y-112695056D03*
X197243125Y-124906877D03*
X183045078Y-116472896D03*
%TO.N,Net-(J14-Pin_5)*%
X173325000Y-110575000D03*
%TD*%
D29*
%TO.N,Net-(U2A-VGateComp!)*%
X177313172Y-113710000D02*
X176200000Y-114823172D01*
X176200000Y-114823172D02*
X176200000Y-115250000D01*
X177710000Y-113710000D02*
X177313172Y-113710000D01*
D30*
%TO.N,GND*%
X196250000Y-61450000D02*
X196250000Y-62875000D01*
X164812500Y-89786500D02*
X164837500Y-89811500D01*
D31*
X193875000Y-109175000D02*
X184090000Y-109175000D01*
D30*
X201010000Y-112025000D02*
X196275000Y-112025000D01*
X165725000Y-119800000D02*
X165725000Y-121100000D01*
X164837500Y-93111500D02*
X164812500Y-93136500D01*
X161623530Y-105125000D02*
X161536766Y-105211764D01*
X191119980Y-74875000D02*
X191099980Y-74855000D01*
D32*
X196275000Y-112025000D02*
X196250000Y-112000000D01*
D30*
X166740000Y-111025000D02*
X170528984Y-111025000D01*
D31*
X171878984Y-109675000D02*
X183915000Y-109675000D01*
D30*
X170528984Y-111025000D02*
X171703984Y-109850000D01*
X174625000Y-115225000D02*
X173500000Y-115225000D01*
D31*
X171703984Y-109850000D02*
X171878984Y-109675000D01*
D30*
X166740000Y-111025000D02*
X165450000Y-111025000D01*
X196250000Y-62875000D02*
X197325000Y-63950000D01*
X164837500Y-89811500D02*
X164837500Y-93111500D01*
X191150000Y-74875000D02*
X191119980Y-74875000D01*
X174650000Y-115250000D02*
X174625000Y-115225000D01*
X188750000Y-74855000D02*
X183980000Y-74855000D01*
X166000000Y-129899999D02*
X166000000Y-127050001D01*
D31*
X183915000Y-109675000D02*
X184090000Y-109850000D01*
D30*
X178980000Y-74855000D02*
X183980000Y-74855000D01*
X165350000Y-105125000D02*
X161623530Y-105125000D01*
X164812500Y-89786500D02*
X164812500Y-87661500D01*
X200050000Y-119475000D02*
X201750000Y-119475000D01*
X196250000Y-112000000D02*
X196250000Y-111550000D01*
X196250000Y-111550000D02*
X193875000Y-109175000D01*
X188750000Y-74855000D02*
X191099980Y-74855000D01*
X165725000Y-121100000D02*
X165725000Y-121099992D01*
%TO.N,VDD*%
X163075000Y-106750000D02*
X161499992Y-106750000D01*
X161000000Y-129899999D02*
X161000000Y-125149999D01*
D31*
X167940000Y-107190000D02*
X184090000Y-107190000D01*
D30*
X160000000Y-126149943D02*
X161000000Y-125149943D01*
X163210000Y-106750000D02*
X166125000Y-106750000D01*
D31*
X202075000Y-107100000D02*
X184140000Y-107100000D01*
D30*
X166565000Y-107190000D02*
X167940000Y-107190000D01*
X184140000Y-107100000D02*
X184090000Y-107150000D01*
X166125000Y-106750000D02*
X166565000Y-107190000D01*
X160000000Y-129899999D02*
X160000000Y-126149943D01*
D31*
%TO.N,VSSA*%
X173817855Y-108567855D02*
X174005710Y-108380000D01*
D30*
X166740000Y-109475000D02*
X165450014Y-109475000D01*
D31*
X171507145Y-108567855D02*
X173817855Y-108567855D01*
D30*
X166740000Y-109475000D02*
X170600000Y-109475000D01*
D31*
X170600000Y-109475000D02*
X171507145Y-108567855D01*
X174005710Y-108380000D02*
X183731472Y-108380000D01*
X183731472Y-108380000D02*
X183826472Y-108475000D01*
D30*
%TO.N,VDDA*%
X162000000Y-129899999D02*
X162000000Y-127649975D01*
X196775000Y-110475000D02*
X196750000Y-110500000D01*
X188750000Y-81800000D02*
X188775000Y-81825000D01*
X163000000Y-126650023D02*
X162999976Y-126649999D01*
X194165000Y-107890000D02*
X196750000Y-110475000D01*
D31*
X184090000Y-107890000D02*
X194165000Y-107890000D01*
D30*
X201010000Y-110475000D02*
X196775000Y-110475000D01*
X162000000Y-127649975D02*
X162999976Y-126649999D01*
X163000000Y-129899999D02*
X163000000Y-126650023D01*
X196750000Y-110475000D02*
X196750000Y-110500000D01*
X188750000Y-79935000D02*
X188750000Y-81800000D01*
D33*
%TO.N,suba*%
X167787500Y-89811500D02*
X167762500Y-89786500D01*
D34*
X167762500Y-93136500D02*
X167762500Y-94461500D01*
X167675000Y-85700000D02*
X167875000Y-85900000D01*
X167875000Y-89225000D02*
X167925000Y-89275000D01*
X167875000Y-85900000D02*
X167875000Y-89225000D01*
D33*
X167762500Y-89786500D02*
X167787500Y-89761500D01*
X175510000Y-113760000D02*
X174549998Y-113760000D01*
D34*
X167762500Y-94461500D02*
X168762500Y-95461500D01*
D33*
X167762500Y-93136500D02*
X167787500Y-93111500D01*
X167787500Y-93111500D02*
X167787500Y-89811500D01*
X175510000Y-113760000D02*
X176430000Y-113760000D01*
X176430000Y-113760000D02*
X176440000Y-113770000D01*
D35*
%TO.N,Net-(J1-In)*%
X187665000Y-114500000D02*
X187675000Y-114490000D01*
X187675000Y-114490000D02*
X187675000Y-113825000D01*
X187675000Y-113825000D02*
X187560000Y-113710000D01*
X200050000Y-117825000D02*
X201324996Y-117825000D01*
X201324996Y-117825000D02*
X201525000Y-118025004D01*
%TO.N,Net-(J2-Pin_4)*%
X169042500Y-104242500D02*
X161645000Y-96845000D01*
X171360000Y-104242500D02*
X169042500Y-104242500D01*
X161645000Y-96845000D02*
X158550000Y-96845000D01*
%TO.N,Net-(J2-Pin_1)*%
X172390000Y-102490000D02*
X172390000Y-103400000D01*
X158550000Y-89225000D02*
X159125000Y-89225000D01*
X159125000Y-89225000D02*
X172390000Y-102490000D01*
%TO.N,Net-(J2-Pin_3)*%
X160980000Y-94305000D02*
X170600000Y-103925000D01*
X158550000Y-94305000D02*
X160980000Y-94305000D01*
X172265000Y-103925000D02*
X172380000Y-104040000D01*
X170600000Y-103925000D02*
X172265000Y-103925000D01*
%TO.N,Net-(J2-Pin_2)*%
X171410000Y-103670000D02*
X171410000Y-103085000D01*
X160090000Y-91765000D02*
X158550000Y-91765000D01*
X171410000Y-103085000D02*
X160090000Y-91765000D01*
%TO.N,Net-(J2-Pin_5)*%
X162335000Y-99385000D02*
X167447500Y-104497500D01*
X158550000Y-99385000D02*
X162335000Y-99385000D01*
X172292500Y-104497500D02*
X172360000Y-104430000D01*
X167447500Y-104497500D02*
X172292500Y-104497500D01*
D32*
%TO.N,/SPI_left_MISO1*%
X166075000Y-103950000D02*
X167572500Y-105447500D01*
X172187500Y-105447500D02*
X172370000Y-105630000D01*
X167572500Y-105447500D02*
X172187500Y-105447500D01*
X161128250Y-103950000D02*
X166075000Y-103950000D01*
X160864125Y-104214125D02*
X161128250Y-103950000D01*
%TO.N,/SPI_left_MISO0*%
X167372500Y-105797500D02*
X165900000Y-104325000D01*
X171360000Y-105797500D02*
X167372500Y-105797500D01*
X161425002Y-104325000D02*
X160375000Y-105375002D01*
X165900000Y-104325000D02*
X161425002Y-104325000D01*
D35*
%TO.N,/SPI_left_CSN*%
X166822500Y-106572500D02*
X166262500Y-106012500D01*
X166262500Y-106012500D02*
X159537500Y-106012500D01*
D32*
X172237500Y-106572500D02*
X172390000Y-106420000D01*
D35*
X159537500Y-106012500D02*
X159425000Y-105900000D01*
X172237500Y-106572500D02*
X166822500Y-106572500D01*
D32*
%TO.N,/SPI_left_MOSI*%
X168637006Y-104950000D02*
X172400000Y-104950000D01*
X172900000Y-105990000D02*
X172880000Y-106010000D01*
X172900000Y-105450000D02*
X172900000Y-105990000D01*
X168622006Y-104935000D02*
X168637006Y-104950000D01*
X172880000Y-106010000D02*
X172380000Y-106010000D01*
X172400000Y-104950000D02*
X172900000Y-105450000D01*
%TO.N,/SPI_left_CLK*%
X166678140Y-105803140D02*
X167097500Y-106222500D01*
X167097500Y-106222500D02*
X171360000Y-106222500D01*
X166671860Y-105803140D02*
X166678140Y-105803140D01*
D35*
%TO.N,Net-(J4-In)*%
X179170000Y-111990000D02*
X178294930Y-111114930D01*
X178294930Y-111114930D02*
X178294930Y-110694930D01*
%TO.N,Net-(J5-In)*%
X160575000Y-118150000D02*
X160500000Y-118225000D01*
X165725000Y-118150000D02*
X174475000Y-118150000D01*
X177199769Y-115343057D02*
X177199769Y-114979096D01*
X177240856Y-115384144D02*
X177199769Y-115343057D01*
X181246949Y-111359332D02*
X181847500Y-111959883D01*
X181847500Y-111959883D02*
X181847500Y-112060000D01*
X165725000Y-118150000D02*
X160575000Y-118150000D01*
X174475000Y-118150000D02*
X177240856Y-115384144D01*
X177199769Y-114979096D02*
X177042442Y-114821769D01*
D32*
%TO.N,/interrupt*%
X202585000Y-122160000D02*
X209000000Y-128575000D01*
X202585000Y-119728173D02*
X202585000Y-122160000D01*
X202800000Y-119513173D02*
X202585000Y-119728173D01*
X196375000Y-105450000D02*
X202075000Y-105450000D01*
D36*
X182700000Y-110640000D02*
X182700000Y-111216856D01*
D32*
X202100000Y-117961827D02*
X202800000Y-118661827D01*
D36*
X182700000Y-111216856D02*
X182750012Y-111266868D01*
D32*
X196315640Y-105390640D02*
X196375000Y-105450000D01*
X204245000Y-105450000D02*
X204775000Y-105980000D01*
X202075000Y-105450000D02*
X204245000Y-105450000D01*
X202100000Y-108655000D02*
X202100000Y-117961827D01*
X202800000Y-118661827D02*
X202800000Y-119513173D01*
X209000000Y-128575000D02*
X209000000Y-130575000D01*
X204775000Y-105980000D02*
X202100000Y-108655000D01*
D35*
%TO.N,Net-(J12-Pin_2)*%
X189050000Y-114975000D02*
X189050000Y-115125000D01*
X188455000Y-110715000D02*
X188455000Y-114380000D01*
X188455000Y-114380000D02*
X189050000Y-114975000D01*
X188380000Y-110640000D02*
X188455000Y-110715000D01*
%TO.N,Net-(J12-Pin_1)*%
X189368719Y-114825000D02*
X189950000Y-114825000D01*
X188710000Y-114166281D02*
X189368719Y-114825000D01*
X188710000Y-112060000D02*
X188710000Y-114166281D01*
D32*
%TO.N,/SR_sin*%
X186000000Y-116900000D02*
X191012500Y-121912500D01*
X201000000Y-126919089D02*
X200330913Y-126250002D01*
X207000000Y-130575000D02*
X207000000Y-128100000D01*
X197187868Y-121912500D02*
X197325368Y-122050000D01*
X186000000Y-116650000D02*
X186000000Y-116900000D01*
X200950000Y-122050000D02*
X197325368Y-122050000D01*
D37*
X184227500Y-113770000D02*
X184227500Y-114877500D01*
D32*
X207000000Y-128100000D02*
X200950000Y-122050000D01*
D37*
X184227500Y-114877500D02*
X186000000Y-116650000D01*
D32*
X201000000Y-130575000D02*
X201000000Y-126919089D01*
X191012500Y-121912500D02*
X197187868Y-121912500D01*
D36*
%TO.N,/timestamp_clk*%
X182070000Y-111155000D02*
X181950000Y-111275000D01*
X182070000Y-110640000D02*
X182070000Y-111155000D01*
D32*
%TO.N,/SR_ck2*%
X196662499Y-122612499D02*
X196537499Y-122487499D01*
X206000000Y-130575000D02*
X206000000Y-127950000D01*
D38*
X183932500Y-115282500D02*
X190897500Y-122247500D01*
X183932500Y-112332500D02*
X183932500Y-115282500D01*
D32*
X200662499Y-122612499D02*
X196662499Y-122612499D01*
D38*
X196297500Y-122247500D02*
X196537499Y-122487499D01*
X190897500Y-122247500D02*
X196297500Y-122247500D01*
D32*
X206000000Y-127950000D02*
X200662499Y-122612499D01*
D38*
X183640000Y-112040000D02*
X183932500Y-112332500D01*
D36*
%TO.N,/Inj*%
X186330000Y-112287500D02*
X186685000Y-112642500D01*
D35*
X186682500Y-113589878D02*
X186682500Y-114095279D01*
X187200629Y-115725629D02*
X187200629Y-116560158D01*
X186812500Y-114225279D02*
X186812500Y-115337500D01*
D36*
X186685000Y-113587378D02*
X186682500Y-113589878D01*
D35*
X186812500Y-115337500D02*
X187200629Y-115725629D01*
X187200629Y-116560158D02*
X189425000Y-118784529D01*
X186682500Y-114095279D02*
X186812500Y-114225279D01*
X189425000Y-118784529D02*
X189425000Y-119550000D01*
D36*
X186685000Y-112642500D02*
X186685000Y-113587378D01*
X186330000Y-112050000D02*
X186330000Y-112287500D01*
D32*
%TO.N,/SR_load*%
X210000000Y-130575000D02*
X211000000Y-130575000D01*
D35*
X183790000Y-111285561D02*
X183825308Y-111320869D01*
D32*
X210000000Y-128650000D02*
X205115000Y-123765000D01*
D35*
X183790000Y-110640000D02*
X183790000Y-111285561D01*
D32*
X205115000Y-123765000D02*
X204950000Y-123765000D01*
X210000000Y-130575000D02*
X210000000Y-128650000D01*
%TO.N,/syncres*%
X185725000Y-118375000D02*
X191400000Y-124050000D01*
X198894086Y-124050000D02*
X202000000Y-127155914D01*
X182920000Y-115570000D02*
X185700000Y-118350000D01*
X182920000Y-113730000D02*
X182920000Y-115570000D01*
X202000000Y-127155914D02*
X202000000Y-130575000D01*
X191400000Y-124050000D02*
X198894086Y-124050000D01*
%TO.N,/SPI_MOSI_N*%
X180550000Y-116500000D02*
X177625000Y-119425000D01*
X177625000Y-127925000D02*
X178000000Y-128300000D01*
X180550000Y-113750000D02*
X180550000Y-116500000D01*
X177625000Y-119425000D02*
X177625000Y-127925000D01*
X178000000Y-128300000D02*
X178000000Y-130575000D01*
D35*
%TO.N,/hold*%
X183347512Y-110697512D02*
X183347512Y-112802502D01*
D32*
X192050000Y-123350000D02*
X191800000Y-123100000D01*
D35*
X183290000Y-110640000D02*
X183347512Y-110697512D01*
D32*
X199825000Y-123350000D02*
X192050000Y-123350000D01*
X204000000Y-127525000D02*
X199825000Y-123350000D01*
X204000000Y-130575000D02*
X204000000Y-127525000D01*
D38*
%TO.N,/DigInj*%
X190490000Y-116117560D02*
X190310000Y-116297560D01*
X201337500Y-121562500D02*
X193812500Y-121562500D01*
X189620000Y-112060000D02*
X189000000Y-112680000D01*
X189000000Y-112680000D02*
X189000000Y-114052500D01*
X189000000Y-114052500D02*
X189172500Y-114225000D01*
X208000000Y-128225000D02*
X201337500Y-121562500D01*
X190200000Y-114225000D02*
X190490000Y-114515000D01*
X190490000Y-114515000D02*
X190490000Y-116117560D01*
X193812500Y-121562500D02*
X192075000Y-119825000D01*
X189172500Y-114225000D02*
X190200000Y-114225000D01*
X190310000Y-118060000D02*
X192075000Y-119825000D01*
X190310000Y-116297560D02*
X190310000Y-118060000D01*
X208000000Y-130575000D02*
X208000000Y-128225000D01*
%TO.N,/SPI_right_MOSI*%
X193300000Y-112172500D02*
X193300000Y-112775000D01*
X196656087Y-116131087D02*
X196659577Y-116131087D01*
X193300000Y-112775000D02*
X196656087Y-116131087D01*
D32*
X193300000Y-112070000D02*
X193300000Y-112172500D01*
%TO.N,/SPI_MISO1_P*%
X179180000Y-115743225D02*
X175325000Y-119598225D01*
X179180000Y-113730000D02*
X179180000Y-115743225D01*
X175325000Y-119598225D02*
X175325000Y-127950000D01*
X175325000Y-127950000D02*
X175000000Y-128275000D01*
X175000000Y-128275000D02*
X175000000Y-130575000D01*
D33*
%TO.N,/vminuspix*%
X191575000Y-115750000D02*
X192575000Y-116750000D01*
D39*
X192575000Y-118975000D02*
X192474999Y-119075001D01*
D33*
X191575000Y-113735000D02*
X191575000Y-115750000D01*
D39*
X192575000Y-116750000D02*
X192575000Y-118975000D01*
D35*
X192475000Y-119075000D02*
X192474999Y-119075001D01*
D30*
X192000000Y-127200000D02*
X192075000Y-127125000D01*
X192000000Y-130575000D02*
X192000000Y-127200000D01*
D33*
X191570000Y-113730000D02*
X191575000Y-113735000D01*
X192575000Y-116750000D02*
X192575000Y-116749998D01*
D38*
%TO.N,/SR_out_0D*%
X178229154Y-112200846D02*
X178229154Y-112969210D01*
D35*
X177986584Y-114334154D02*
X177931218Y-114334154D01*
D38*
X178410000Y-112020000D02*
X178229154Y-112200846D01*
D35*
X178229154Y-112969210D02*
X178515000Y-113255056D01*
X178158238Y-114162500D02*
X177986584Y-114334154D01*
X178515000Y-113255056D02*
X178515000Y-114142500D01*
X178515000Y-114142500D02*
X178495000Y-114162500D01*
D32*
X174000000Y-120154842D02*
X177617442Y-116537400D01*
X174000000Y-130575000D02*
X174000000Y-120154842D01*
D35*
X178495000Y-114162500D02*
X178158238Y-114162500D01*
D32*
X177617442Y-116537400D02*
X177617442Y-114647930D01*
X177617442Y-114647930D02*
X177931218Y-114334154D01*
D38*
%TO.N,/SPI_right_MISO0*%
X195600000Y-116150000D02*
X195600000Y-116212500D01*
X192790000Y-110640000D02*
X192900000Y-110750000D01*
X192900000Y-110750000D02*
X192900000Y-113450000D01*
X192900000Y-113450000D02*
X195600000Y-116150000D01*
D32*
%TO.N,/SR_ldpatgen*%
X184920000Y-113800000D02*
X184920000Y-114055006D01*
X184920000Y-114055006D02*
X184725006Y-114250000D01*
%TO.N,/SR_ck1*%
X195582499Y-122962499D02*
X195450000Y-122830000D01*
X200137499Y-122962499D02*
X195582499Y-122962499D01*
X205000000Y-130575000D02*
X205000000Y-127825000D01*
D35*
X195450000Y-122830000D02*
X195145000Y-122525000D01*
X183550000Y-115293414D02*
X183550000Y-113750000D01*
D32*
X205000000Y-127825000D02*
X200137499Y-122962499D01*
D35*
X195145000Y-122525000D02*
X190781586Y-122525000D01*
X190781586Y-122525000D02*
X183550000Y-115293414D01*
%TO.N,/SR_ldtdac*%
X184695000Y-110640000D02*
X185625000Y-111570000D01*
X186155000Y-112552500D02*
X186387500Y-112785000D01*
X185645000Y-112552500D02*
X186155000Y-112552500D01*
X185625000Y-111570000D02*
X185625000Y-112532500D01*
X185625000Y-112532500D02*
X185645000Y-112552500D01*
X186387500Y-112785000D02*
X186387500Y-114189188D01*
X184340000Y-110640000D02*
X184695000Y-110640000D01*
X186537500Y-114339188D02*
X186537500Y-115861242D01*
X186387500Y-114189188D02*
X186537500Y-114339188D01*
X186537500Y-115861242D02*
X186763129Y-116086871D01*
D36*
%TO.N,/blpix*%
X185215318Y-64087500D02*
X198825000Y-77697182D01*
X186250000Y-114458274D02*
X185900000Y-114108274D01*
X198825000Y-77697182D02*
X198825000Y-100800000D01*
X173380000Y-61250000D02*
X176217500Y-64087500D01*
X185900000Y-114108274D02*
X185900000Y-113720000D01*
X185900000Y-113022034D02*
X185916087Y-113005947D01*
X185900000Y-113720000D02*
X185900000Y-113022034D01*
D29*
X189000000Y-130575000D02*
X189000000Y-127200000D01*
D36*
X176217500Y-64087500D02*
X185215318Y-64087500D01*
D29*
X189000000Y-127200000D02*
X188950000Y-127150000D01*
D36*
X188860875Y-118839123D02*
X186250000Y-116228248D01*
X198825000Y-100800000D02*
X200600000Y-102575000D01*
X186250000Y-116228248D02*
X186250000Y-114458274D01*
D38*
%TO.N,/ThPix*%
X187090000Y-114110335D02*
X187090000Y-114547254D01*
X187500000Y-114957254D02*
X187500000Y-115950000D01*
X187090000Y-114547254D02*
X187500000Y-114957254D01*
X186975000Y-113707500D02*
X186972500Y-113710000D01*
D35*
X189950000Y-118914860D02*
X189950000Y-119075000D01*
D38*
X186975000Y-112296102D02*
X186975000Y-113707500D01*
D35*
X187500000Y-115950000D02*
X187500000Y-116464860D01*
D29*
X194225000Y-63175000D02*
X201100004Y-70050004D01*
X190000000Y-130575000D02*
X190000000Y-127150006D01*
X201100004Y-70050004D02*
X201100004Y-103025000D01*
D38*
X186972500Y-113710000D02*
X186972500Y-113992835D01*
D35*
X187500000Y-116464860D02*
X189950000Y-118914860D01*
D38*
X186917654Y-112238756D02*
X186975000Y-112296102D01*
X186972500Y-113992835D02*
X187090000Y-114110335D01*
D29*
X185465000Y-63175000D02*
X194225000Y-63175000D01*
X183540000Y-61250000D02*
X185465000Y-63175000D01*
D32*
%TO.N,/SPI_MOSI_P*%
X177275000Y-128000000D02*
X177000000Y-128275000D01*
X177275000Y-119275000D02*
X177275000Y-128000000D01*
X177000000Y-128275000D02*
X177000000Y-130575000D01*
X180187500Y-113750000D02*
X180187500Y-116362500D01*
X180187500Y-116362500D02*
X177275000Y-119275000D01*
D35*
%TO.N,/SR_rb*%
X184270000Y-111980000D02*
X184270000Y-112508908D01*
X185250000Y-113488908D02*
X185250000Y-114800000D01*
X184270000Y-112508908D02*
X185250000Y-113488908D01*
%TO.N,/Enable_SPI_diff*%
X179762500Y-110940056D02*
X179802500Y-110980056D01*
X178833722Y-113383722D02*
X178830000Y-113387444D01*
X178830000Y-114411476D02*
X178825000Y-114416476D01*
X179802500Y-112414944D02*
X178833722Y-113383722D01*
X178099274Y-115142202D02*
X178825000Y-114416476D01*
X179802500Y-110980056D02*
X179802500Y-112414944D01*
X178830000Y-113387444D02*
X178830000Y-114411476D01*
X178099274Y-115509414D02*
X178099274Y-115142202D01*
X179762500Y-110672500D02*
X179762500Y-110940056D01*
D32*
%TO.N,/Clk20_Ext_N*%
X182440000Y-113710000D02*
X182440000Y-117240000D01*
X182440000Y-117240000D02*
X190600000Y-125400000D01*
X197950000Y-125400000D02*
X198466942Y-125400000D01*
X199675000Y-126800000D02*
X199675000Y-127925000D01*
X198466942Y-125400000D02*
X199675000Y-126608058D01*
X199675000Y-126608058D02*
X199675000Y-126800000D01*
X200000000Y-128250000D02*
X200000000Y-130575000D01*
X197875000Y-125400000D02*
X197950000Y-125400000D01*
X199675000Y-127925000D02*
X200000000Y-128250000D01*
X190600000Y-125400000D02*
X197875000Y-125400000D01*
D38*
%TO.N,/SPI_right_CSN*%
X194020000Y-112070000D02*
X194945000Y-112070000D01*
X194945000Y-112070000D02*
X199599999Y-116724999D01*
D32*
%TO.N,/Clk20_Ext_P*%
X198300000Y-125750000D02*
X199325000Y-126775000D01*
X199000000Y-128250000D02*
X199000000Y-130575000D01*
X190450000Y-125750000D02*
X198300000Y-125750000D01*
X182075000Y-117375000D02*
X190450000Y-125750000D01*
X199325000Y-127925000D02*
X199000000Y-128250000D01*
X199325000Y-126775000D02*
X199325000Y-127925000D01*
X181960000Y-113720000D02*
X182075000Y-113835000D01*
X182075000Y-113835000D02*
X182075000Y-117375000D01*
D36*
%TO.N,/res_n*%
X183260001Y-115410001D02*
X183260001Y-113385001D01*
X199300000Y-123725000D02*
X191575000Y-123725000D01*
X182820000Y-112945000D02*
X182820000Y-112060000D01*
X191575000Y-123725000D02*
X183260001Y-115410001D01*
X203000000Y-130575000D02*
X203000000Y-127425000D01*
X203000000Y-127425000D02*
X199300000Y-123725000D01*
X183260001Y-113385001D02*
X182820000Y-112945000D01*
D35*
%TO.N,/SR_sout*%
X184842500Y-112642500D02*
X185612500Y-113412500D01*
X185612500Y-113412500D02*
X185612500Y-114227360D01*
X184842500Y-112060000D02*
X184842500Y-112642500D01*
X185781369Y-114396229D02*
X185781369Y-115402499D01*
X185612500Y-114227360D02*
X185781369Y-114396229D01*
D38*
%TO.N,/SR_out_CK1*%
X179525000Y-112300000D02*
X179525000Y-111095000D01*
X179525000Y-111095000D02*
X179070000Y-110640000D01*
X179250000Y-112575000D02*
X179525000Y-112300000D01*
D32*
X176050000Y-117339860D02*
X176610999Y-116778861D01*
X176610999Y-116778861D02*
X176596139Y-116778861D01*
X176050000Y-117350000D02*
X173000000Y-120400000D01*
D38*
X178750000Y-112575000D02*
X179250000Y-112575000D01*
D32*
X176050000Y-117350000D02*
X176050000Y-117339860D01*
X173000000Y-120400000D02*
X173000000Y-130575000D01*
D29*
%TO.N,/VCasc2!*%
X201525000Y-102476471D02*
X201525000Y-69909314D01*
X191000004Y-119326475D02*
X191000004Y-120600000D01*
X201525000Y-69909314D02*
X194340686Y-62725000D01*
D40*
X188378140Y-114912343D02*
X188110000Y-114644203D01*
D29*
X190095000Y-62725000D02*
X188620000Y-61250000D01*
X201921073Y-102872544D02*
X201525000Y-102476471D01*
X194340686Y-62725000D02*
X190095000Y-62725000D01*
D40*
X188378140Y-114921860D02*
X188378140Y-114912343D01*
D29*
X201921073Y-103600212D02*
X201921073Y-102872544D01*
X188378140Y-116704611D02*
X191000004Y-119326475D01*
X188378140Y-114921860D02*
X188378140Y-116704611D01*
X191000000Y-130575000D02*
X191000000Y-127124994D01*
D40*
X188110000Y-114644203D02*
X188110000Y-112060000D01*
D38*
%TO.N,/SPI_right_MISO1*%
X192537500Y-112060000D02*
X192537500Y-114912500D01*
X192537500Y-114912500D02*
X194050000Y-116425000D01*
%TO.N,/SPI_right_CLK*%
X197385000Y-116187500D02*
X197435084Y-116187500D01*
X193500000Y-110680000D02*
X193675000Y-110855000D01*
X193675000Y-112477500D02*
X197385000Y-116187500D01*
X193675000Y-110855000D02*
X193675000Y-112477500D01*
D32*
%TO.N,/SPI_MISO1_N*%
X176000000Y-128250000D02*
X176000000Y-130575000D01*
X179620000Y-115798200D02*
X175675000Y-119743200D01*
X179620000Y-113730000D02*
X179620000Y-115798200D01*
X175675000Y-119743200D02*
X175675000Y-127925000D01*
X175675000Y-127925000D02*
X176000000Y-128250000D01*
D35*
%TO.N,Net-(J14-Pin_3)*%
X185312500Y-112060000D02*
X185312500Y-111862500D01*
X199225000Y-98475000D02*
X199375000Y-98625000D01*
X175920000Y-61250000D02*
X178457500Y-63787500D01*
X184725004Y-111275004D02*
X184650000Y-111275004D01*
X199225000Y-69150000D02*
X199225000Y-98475000D01*
X193862500Y-63787500D02*
X199225000Y-69150000D01*
X185312500Y-111862500D02*
X184725004Y-111275004D01*
X178457500Y-63787500D02*
X193862500Y-63787500D01*
%TO.N,Net-(J14-Pin_4)*%
X185900000Y-112060000D02*
X185900000Y-111822500D01*
X186397500Y-111325000D02*
X187200012Y-111325000D01*
X199700000Y-99060140D02*
X199700000Y-99600000D01*
X199912500Y-98847640D02*
X199700000Y-99060140D01*
X180722500Y-63512500D02*
X194012500Y-63512500D01*
X199700000Y-69200000D02*
X199700000Y-98189860D01*
X178460000Y-61250000D02*
X180722500Y-63512500D01*
X199700000Y-98189860D02*
X199912500Y-98402360D01*
X185900000Y-111822500D02*
X186397500Y-111325000D01*
X199912500Y-98402360D02*
X199912500Y-98847640D01*
X194012500Y-63512500D02*
X199700000Y-69200000D01*
%TO.N,Net-(J14-Pin_1)*%
X185470000Y-110500000D02*
X186625000Y-110500000D01*
X173965000Y-64375000D02*
X184150000Y-64375000D01*
X170840000Y-61250000D02*
X173965000Y-64375000D01*
X185330000Y-110640000D02*
X185470000Y-110500000D01*
X184150000Y-64375000D02*
X198175000Y-78400000D01*
X198175000Y-78400000D02*
X198250000Y-78400000D01*
D34*
%TO.N,/HV_in_ext*%
X164225000Y-85700000D02*
X166025000Y-85700000D01*
X160460000Y-77540000D02*
X160460000Y-81935000D01*
X160460000Y-81935000D02*
X164225000Y-85700000D01*
D35*
%TO.N,Net-(JP3-C)*%
X177320000Y-112000000D02*
X176132430Y-112000000D01*
X176132430Y-112000000D02*
X175500000Y-111367570D01*
%TO.N,Net-(JP4-B)*%
X177335000Y-110640000D02*
X176500000Y-111475000D01*
X177750000Y-110640000D02*
X177335000Y-110640000D01*
X183980000Y-77395000D02*
X183143073Y-78231927D01*
X183143073Y-78231927D02*
X183143073Y-79192068D01*
%TO.N,Net-(JP5-B)*%
X174975000Y-111555000D02*
X174975000Y-110850000D01*
X174975000Y-110850000D02*
X174625000Y-110500000D01*
X175470000Y-112050000D02*
X174975000Y-111555000D01*
D33*
%TO.N,Net-(U2A-vminusout)*%
X190900000Y-111077500D02*
X190900000Y-116725000D01*
X190100000Y-110640000D02*
X190462500Y-110640000D01*
X190900000Y-116725000D02*
X190925000Y-116750000D01*
X190462500Y-110640000D02*
X190900000Y-111077500D01*
D35*
%TO.N,Net-(U2A-Qdac<0>)*%
X187430000Y-112060000D02*
X187625000Y-112255000D01*
X187625000Y-112255000D02*
X187625000Y-112975000D01*
%TO.N,Net-(U2A-Qdac<1>)*%
X187447500Y-110640000D02*
X187875000Y-111067500D01*
X187260000Y-110640000D02*
X187447500Y-110640000D01*
X187875000Y-111067500D02*
X187875000Y-111325000D01*
%TO.N,Net-(J14-Pin_12)*%
X198780000Y-65780000D02*
X202125000Y-69125000D01*
X190190000Y-112060000D02*
X190190000Y-112985000D01*
X190190000Y-112985000D02*
X190175000Y-113000000D01*
X202125000Y-102225000D02*
X203000000Y-103100000D01*
X202125000Y-69125000D02*
X202125000Y-102225000D01*
X198780000Y-61250000D02*
X198780000Y-65780000D01*
D32*
%TO.N,/SPI_MISO0_P*%
X180170000Y-110780000D02*
X180310000Y-110640000D01*
X179939580Y-113097190D02*
X179939580Y-112819806D01*
X181646837Y-118344490D02*
X189852347Y-126550000D01*
X180170000Y-112589386D02*
X180170000Y-110780000D01*
X196925000Y-126550000D02*
X197275000Y-126900000D01*
X197275000Y-126900000D02*
X197275000Y-127950000D01*
X179939580Y-112819806D02*
X180170000Y-112589386D01*
X181470059Y-118344490D02*
X181646837Y-118344490D01*
X197275000Y-127950000D02*
X197000000Y-128225000D01*
X189852347Y-126550000D02*
X196925000Y-126550000D01*
X197000000Y-128225000D02*
X197000000Y-130575000D01*
%TO.N,/SPI_CLK_P*%
X196325000Y-124750000D02*
X190627354Y-124750000D01*
X190627354Y-124750000D02*
X183125000Y-117247646D01*
X181547526Y-113075000D02*
X181750000Y-113075000D01*
X180870000Y-112397474D02*
X181547526Y-113075000D01*
X196500000Y-124925000D02*
X196325000Y-124750000D01*
X180870000Y-112040000D02*
X180870000Y-112397474D01*
%TO.N,/SPI_MISO0_N*%
X180720000Y-110640000D02*
X180720000Y-111367500D01*
X197675000Y-126775000D02*
X197675000Y-127925000D01*
X197100000Y-126200000D02*
X197675000Y-126775000D01*
X180520000Y-111567500D02*
X180520000Y-112756827D01*
X180520000Y-112756827D02*
X180609007Y-112845834D01*
X198000000Y-128250000D02*
X198000000Y-130575000D01*
X180720000Y-111367500D02*
X180520000Y-111567500D01*
X197675000Y-127925000D02*
X198000000Y-128250000D01*
X189997322Y-126200000D02*
X197100000Y-126200000D01*
X181518159Y-117720837D02*
X189997322Y-126200000D01*
%TO.N,/SPI_CSN_P*%
X179325000Y-118699999D02*
X179325000Y-128075000D01*
X179000000Y-128400000D02*
X179000000Y-130575000D01*
X179530026Y-118494974D02*
X179530025Y-118494974D01*
X179530025Y-118494974D02*
X179425000Y-118600000D01*
X181100000Y-113750000D02*
X181100000Y-116925000D01*
X181100000Y-116925000D02*
X179530026Y-118494974D01*
X179325000Y-128075000D02*
X179000000Y-128400000D01*
X179425000Y-118600000D02*
X179325000Y-118699999D01*
D35*
%TO.N,Net-(J14-Pin_10)*%
X189430000Y-113730000D02*
X190050000Y-113730000D01*
X193700000Y-61250000D02*
X201875000Y-69425000D01*
X202550000Y-103024173D02*
X202550000Y-104275000D01*
X201875000Y-102349173D02*
X202550000Y-103024173D01*
X201875000Y-69425000D02*
X201875000Y-102349173D01*
D32*
%TO.N,/SPI_CLK_N*%
X181557500Y-112590000D02*
X181265000Y-112297500D01*
X182109321Y-112590000D02*
X181557500Y-112590000D01*
X190972182Y-124400000D02*
X196736248Y-124400000D01*
X196736248Y-124400000D02*
X197243125Y-124906877D01*
X182214377Y-112695056D02*
X182109321Y-112590000D01*
X183045078Y-116472896D02*
X190972182Y-124400000D01*
X181265000Y-112297500D02*
X181265000Y-112060000D01*
D35*
%TO.N,Net-(J14-Pin_5)*%
X178240000Y-113432500D02*
X177350000Y-112542500D01*
X177350000Y-112542500D02*
X175292500Y-112542500D01*
X178240000Y-113670000D02*
X178240000Y-113432500D01*
X175292500Y-112542500D02*
X173325000Y-110575000D01*
D32*
%TO.N,/SPI_CSN_N*%
X181530000Y-113730000D02*
X181530000Y-116989974D01*
X180000000Y-128375000D02*
X180000000Y-130575000D01*
X179675000Y-128050000D02*
X180000000Y-128375000D01*
X179675000Y-118844974D02*
X179675000Y-128050000D01*
X181530000Y-116989974D02*
X179675000Y-118844974D01*
%TD*%
%TA.AperFunction,Conductor*%
%TO.N,/SPI_left_CSN*%
G36*
X159592265Y-105747567D02*
G01*
X159835935Y-105946489D01*
X159840177Y-105954374D01*
X159840236Y-105955551D01*
X159840236Y-106064624D01*
X159836809Y-106072897D01*
X159829935Y-106076240D01*
X159438040Y-106123429D01*
X159429416Y-106121016D01*
X159425025Y-106113212D01*
X159424941Y-106111875D01*
X159424021Y-105904895D01*
X159427410Y-105896611D01*
X159576622Y-105748331D01*
X159584904Y-105744931D01*
X159592265Y-105747567D01*
G37*
%TD.AperFunction*%
%TD*%
%TA.AperFunction,Conductor*%
%TO.N,Net-(J2-Pin_5)*%
G36*
X158885660Y-98605213D02*
G01*
X158886616Y-98605662D01*
X160243745Y-99319211D01*
X160249473Y-99326094D01*
X160250000Y-99329567D01*
X160250000Y-99440432D01*
X160246573Y-99448705D01*
X160243745Y-99450788D01*
X158886616Y-100164337D01*
X158877698Y-100165154D01*
X158870815Y-100159426D01*
X158870371Y-100158481D01*
X158550864Y-99389488D01*
X158550856Y-99380534D01*
X158550865Y-99380511D01*
X158572032Y-99329567D01*
X158870367Y-98611527D01*
X158876705Y-98605204D01*
X158885660Y-98605213D01*
G37*
%TD.AperFunction*%
%TD*%
%TA.AperFunction,Conductor*%
%TO.N,Net-(J12-Pin_1)*%
G36*
X189862165Y-114621508D02*
G01*
X189868342Y-114627738D01*
X189949105Y-114820478D01*
X189949142Y-114829433D01*
X189949105Y-114829522D01*
X189868342Y-115022261D01*
X189861984Y-115028567D01*
X189853211Y-115028604D01*
X189507360Y-114890440D01*
X189500948Y-114884189D01*
X189500000Y-114879575D01*
X189500000Y-114770424D01*
X189503427Y-114762151D01*
X189507357Y-114759560D01*
X189853212Y-114621395D01*
X189862165Y-114621508D01*
G37*
%TD.AperFunction*%
%TD*%
%TA.AperFunction,Conductor*%
%TO.N,VDD*%
G36*
X160249448Y-128078427D02*
G01*
X160252425Y-128083486D01*
X160349282Y-128422487D01*
X160349580Y-128427580D01*
X160011548Y-130505029D01*
X160006837Y-130512644D01*
X159998121Y-130514698D01*
X159990506Y-130509987D01*
X159988452Y-130505029D01*
X159969641Y-130389426D01*
X159650419Y-128427576D01*
X159650716Y-128422491D01*
X159747575Y-128083485D01*
X159753143Y-128076472D01*
X159758825Y-128075000D01*
X160241175Y-128075000D01*
X160249448Y-128078427D01*
G37*
%TD.AperFunction*%
%TD*%
%TA.AperFunction,Conductor*%
%TO.N,Net-(U2A-Qdac<1>)*%
G36*
X187790905Y-110895905D02*
G01*
X187791326Y-110896348D01*
X188026700Y-111157686D01*
X188029690Y-111166127D01*
X188026316Y-111173752D01*
X187879155Y-111322227D01*
X187870897Y-111325691D01*
X187870808Y-111325691D01*
X187663248Y-111325041D01*
X187654986Y-111321588D01*
X187651585Y-111313304D01*
X187651679Y-111311870D01*
X187694181Y-110979539D01*
X187697512Y-110972752D01*
X187774360Y-110895904D01*
X187782632Y-110892478D01*
X187790905Y-110895905D01*
G37*
%TD.AperFunction*%
%TD*%
%TA.AperFunction,Conductor*%
%TO.N,GND*%
G36*
X165089058Y-90703427D02*
G01*
X165090887Y-90705798D01*
X165456603Y-91331812D01*
X165457818Y-91340684D01*
X165457454Y-91341829D01*
X164984810Y-92599886D01*
X164978692Y-92606425D01*
X164969742Y-92606724D01*
X164963246Y-92600701D01*
X164420722Y-91432972D01*
X164419934Y-91425414D01*
X164585406Y-90709067D01*
X164590607Y-90701777D01*
X164596806Y-90700000D01*
X165080785Y-90700000D01*
X165089058Y-90703427D01*
G37*
%TD.AperFunction*%
%TD*%
%TA.AperFunction,Conductor*%
%TO.N,/SR_load*%
G36*
X205117204Y-123614341D02*
G01*
X205117332Y-123614473D01*
X205386911Y-123895163D01*
X205390171Y-123903503D01*
X205386746Y-123911540D01*
X205257762Y-124040524D01*
X205249489Y-124043951D01*
X205247408Y-124043764D01*
X204959588Y-123991733D01*
X204952056Y-123986889D01*
X204949969Y-123980257D01*
X204949728Y-123903433D01*
X204949308Y-123769190D01*
X204952709Y-123760907D01*
X205100658Y-123614266D01*
X205108946Y-123610877D01*
X205117204Y-123614341D01*
G37*
%TD.AperFunction*%
%TD*%
%TA.AperFunction,Conductor*%
%TO.N,GND*%
G36*
X179838044Y-74010678D02*
G01*
X180675047Y-74601504D01*
X180679830Y-74609074D01*
X180680000Y-74611062D01*
X180680000Y-75098937D01*
X180676573Y-75107210D01*
X180675047Y-75108496D01*
X179838046Y-75699320D01*
X179829311Y-75701291D01*
X179823031Y-75698039D01*
X179232794Y-75108496D01*
X178987286Y-74863276D01*
X178983855Y-74855007D01*
X178987276Y-74846733D01*
X179823032Y-74011959D01*
X179831306Y-74008538D01*
X179838044Y-74010678D01*
G37*
%TD.AperFunction*%
%TD*%
%TA.AperFunction,Conductor*%
%TO.N,Net-(J14-Pin_3)*%
G36*
X199290875Y-98237984D02*
G01*
X199525307Y-98457662D01*
X199529001Y-98465819D01*
X199525844Y-98474199D01*
X199525606Y-98474446D01*
X199378453Y-98622525D01*
X199370191Y-98625978D01*
X199370102Y-98625978D01*
X199162027Y-98625053D01*
X199153769Y-98621589D01*
X199150379Y-98613301D01*
X199150385Y-98612978D01*
X199155097Y-98465901D01*
X199162137Y-98246145D01*
X199165827Y-98237987D01*
X199173831Y-98234821D01*
X199282875Y-98234821D01*
X199290875Y-98237984D01*
G37*
%TD.AperFunction*%
%TD*%
%TA.AperFunction,Conductor*%
%TO.N,/SPI_MISO0_P*%
G36*
X181637039Y-118193978D02*
G01*
X181908241Y-118465180D01*
X181911668Y-118473453D01*
X181908241Y-118481726D01*
X181779607Y-118610360D01*
X181771334Y-118613787D01*
X181769627Y-118613662D01*
X181480020Y-118570958D01*
X181472335Y-118566361D01*
X181470027Y-118559420D01*
X181469367Y-118348681D01*
X181472768Y-118340397D01*
X181620532Y-118193939D01*
X181628818Y-118190551D01*
X181637039Y-118193978D01*
G37*
%TD.AperFunction*%
%TD*%
%TA.AperFunction,Conductor*%
%TO.N,VDDA*%
G36*
X163249448Y-128078427D02*
G01*
X163252425Y-128083486D01*
X163349282Y-128422487D01*
X163349580Y-128427580D01*
X163011548Y-130505029D01*
X163006837Y-130512644D01*
X162998121Y-130514698D01*
X162990506Y-130509987D01*
X162988452Y-130505029D01*
X162969641Y-130389426D01*
X162650419Y-128427576D01*
X162650716Y-128422491D01*
X162747575Y-128083485D01*
X162753143Y-128076472D01*
X162758825Y-128075000D01*
X163241175Y-128075000D01*
X163249448Y-128078427D01*
G37*
%TD.AperFunction*%
%TD*%
%TA.AperFunction,Conductor*%
%TO.N,/SPI_CLK_N*%
G36*
X197003314Y-124522134D02*
G01*
X197320007Y-124693999D01*
X197325642Y-124700956D01*
X197325253Y-124708714D01*
X197245689Y-124903046D01*
X197239383Y-124909404D01*
X197239294Y-124909441D01*
X197044962Y-124989005D01*
X197036007Y-124988968D01*
X197030247Y-124983759D01*
X196858382Y-124667066D01*
X196857449Y-124658161D01*
X196860391Y-124653215D01*
X196989462Y-124524144D01*
X196997734Y-124520718D01*
X197003314Y-124522134D01*
G37*
%TD.AperFunction*%
%TD*%
%TA.AperFunction,Conductor*%
%TO.N,/SR_sout*%
G36*
X185844217Y-114955926D02*
G01*
X185846809Y-114959859D01*
X185984973Y-115305710D01*
X185984860Y-115314664D01*
X185978630Y-115320841D01*
X185785891Y-115401604D01*
X185776936Y-115401641D01*
X185776847Y-115401604D01*
X185584107Y-115320841D01*
X185577801Y-115314483D01*
X185577764Y-115305711D01*
X185715929Y-114959857D01*
X185722180Y-114953447D01*
X185726794Y-114952499D01*
X185835944Y-114952499D01*
X185844217Y-114955926D01*
G37*
%TD.AperFunction*%
%TD*%
%TA.AperFunction,Conductor*%
%TO.N,Net-(JP4-B)*%
G36*
X183980445Y-77397426D02*
G01*
X183982993Y-77401236D01*
X184301171Y-78170363D01*
X184301167Y-78179318D01*
X184295729Y-78185231D01*
X183208099Y-78747029D01*
X183202730Y-78748334D01*
X183092708Y-78748334D01*
X183084435Y-78744907D01*
X183081008Y-78736634D01*
X183081016Y-78736207D01*
X183101682Y-78170363D01*
X183129588Y-77406257D01*
X183133314Y-77398116D01*
X183141264Y-77394986D01*
X183972168Y-77394009D01*
X183980445Y-77397426D01*
G37*
%TD.AperFunction*%
%TD*%
%TA.AperFunction,Conductor*%
%TO.N,Net-(J5-In)*%
G36*
X165379992Y-117772350D02*
G01*
X165718758Y-118142096D01*
X165721820Y-118150511D01*
X165718758Y-118157904D01*
X165379992Y-118527649D01*
X165371876Y-118531434D01*
X165365231Y-118529708D01*
X164855566Y-118215926D01*
X164850318Y-118208671D01*
X164850000Y-118205963D01*
X164850000Y-118094036D01*
X164853427Y-118085763D01*
X164855566Y-118084073D01*
X165365233Y-117770290D01*
X165374073Y-117768872D01*
X165379992Y-117772350D01*
G37*
%TD.AperFunction*%
%TD*%
%TA.AperFunction,Conductor*%
%TO.N,Net-(J14-Pin_1)*%
G36*
X186537165Y-110296508D02*
G01*
X186543342Y-110302738D01*
X186624105Y-110495478D01*
X186624142Y-110504433D01*
X186624105Y-110504522D01*
X186543342Y-110697261D01*
X186536984Y-110703567D01*
X186528211Y-110703604D01*
X186182360Y-110565440D01*
X186175948Y-110559189D01*
X186175000Y-110554575D01*
X186175000Y-110445424D01*
X186178427Y-110437151D01*
X186182357Y-110434560D01*
X186528212Y-110296395D01*
X186537165Y-110296508D01*
G37*
%TD.AperFunction*%
%TD*%
%TA.AperFunction,Conductor*%
%TO.N,/ThPix*%
G36*
X190126885Y-128078427D02*
G01*
X190128454Y-128080373D01*
X190347573Y-128421224D01*
X190349279Y-128429430D01*
X190011548Y-130505029D01*
X190006837Y-130512644D01*
X189998121Y-130514698D01*
X189990506Y-130509987D01*
X189988452Y-130505029D01*
X189970147Y-130392536D01*
X189650720Y-128429427D01*
X189652425Y-128421227D01*
X189871546Y-128080373D01*
X189878903Y-128075267D01*
X189881388Y-128075000D01*
X190118612Y-128075000D01*
X190126885Y-128078427D01*
G37*
%TD.AperFunction*%
%TD*%
%TA.AperFunction,Conductor*%
%TO.N,/SR_ck2*%
G36*
X206102252Y-128078427D02*
G01*
X206103500Y-128079900D01*
X206347198Y-128421078D01*
X206349225Y-128429757D01*
X206011548Y-130505029D01*
X206006837Y-130512644D01*
X205998121Y-130514698D01*
X205990506Y-130509987D01*
X205988452Y-130505029D01*
X205650774Y-128429757D01*
X205652801Y-128421078D01*
X205896500Y-128079900D01*
X205904098Y-128075159D01*
X205906021Y-128075000D01*
X206093979Y-128075000D01*
X206102252Y-128078427D01*
G37*
%TD.AperFunction*%
%TD*%
%TA.AperFunction,Conductor*%
%TO.N,/SPI_MISO1_P*%
G36*
X175078987Y-128071225D02*
G01*
X175079843Y-128072001D01*
X175211187Y-128203345D01*
X175212837Y-128205419D01*
X175347667Y-128421265D01*
X175349291Y-128429347D01*
X175013362Y-130489424D01*
X175008649Y-130497038D01*
X174999932Y-130499088D01*
X174992318Y-130494375D01*
X174990180Y-130488763D01*
X174774377Y-128429858D01*
X174776923Y-128421273D01*
X175062522Y-128072856D01*
X175070416Y-128068631D01*
X175078987Y-128071225D01*
G37*
%TD.AperFunction*%
%TD*%
%TA.AperFunction,Conductor*%
%TO.N,/SR_ck2*%
G36*
X196704680Y-122334405D02*
G01*
X196939660Y-122508991D01*
X196944257Y-122516675D01*
X196944382Y-122518382D01*
X196944382Y-122700299D01*
X196940955Y-122708572D01*
X196932682Y-122711999D01*
X196549145Y-122711999D01*
X196540872Y-122708572D01*
X196537445Y-122700351D01*
X196536636Y-122518382D01*
X196536520Y-122492394D01*
X196539909Y-122484110D01*
X196689455Y-122335497D01*
X196697739Y-122332097D01*
X196704680Y-122334405D01*
G37*
%TD.AperFunction*%
%TD*%
%TA.AperFunction,Conductor*%
%TO.N,/vminuspix*%
G36*
X192769319Y-118654839D02*
G01*
X192772746Y-118663112D01*
X192772567Y-118665152D01*
X192701702Y-119065383D01*
X192696885Y-119072932D01*
X192690233Y-119075043D01*
X192477379Y-119075989D01*
X192472805Y-119075080D01*
X192277013Y-118993038D01*
X192270707Y-118986680D01*
X192270390Y-118978687D01*
X192372399Y-118659550D01*
X192378183Y-118652713D01*
X192383544Y-118651412D01*
X192761046Y-118651412D01*
X192769319Y-118654839D01*
G37*
%TD.AperFunction*%
%TD*%
%TA.AperFunction,Conductor*%
%TO.N,/SPI_right_MISO0*%
G36*
X195372970Y-115827680D02*
G01*
X195677124Y-115999553D01*
X195682641Y-116006605D01*
X195682196Y-116014171D01*
X195602564Y-116208669D01*
X195596258Y-116215027D01*
X195596169Y-116215064D01*
X195403953Y-116293762D01*
X195394998Y-116293725D01*
X195388692Y-116287367D01*
X195388344Y-116286398D01*
X195275397Y-115921973D01*
X195276222Y-115913056D01*
X195278297Y-115910239D01*
X195358943Y-115829593D01*
X195367215Y-115826167D01*
X195372970Y-115827680D01*
G37*
%TD.AperFunction*%
%TD*%
%TA.AperFunction,Conductor*%
%TO.N,/interrupt*%
G36*
X202434573Y-105069596D02*
G01*
X202943891Y-105346677D01*
X202949521Y-105353640D01*
X202950000Y-105356954D01*
X202950000Y-105543045D01*
X202946573Y-105551318D01*
X202943891Y-105553323D01*
X202434573Y-105830403D01*
X202425668Y-105831346D01*
X202420355Y-105828029D01*
X202081240Y-105457902D01*
X202078179Y-105449489D01*
X202081240Y-105442097D01*
X202420357Y-105071969D01*
X202428471Y-105068185D01*
X202434573Y-105069596D01*
G37*
%TD.AperFunction*%
%TD*%
%TA.AperFunction,Conductor*%
%TO.N,/vminuspix*%
G36*
X192034112Y-115992913D02*
G01*
X192657241Y-116271228D01*
X192663398Y-116277731D01*
X192663966Y-116284085D01*
X192576885Y-116744476D01*
X192571980Y-116751969D01*
X192569843Y-116753121D01*
X192185017Y-116911560D01*
X192176063Y-116911541D01*
X192170118Y-116906013D01*
X191818445Y-116209319D01*
X191817776Y-116200389D01*
X191820615Y-116195776D01*
X192021069Y-115995322D01*
X192029341Y-115991896D01*
X192034112Y-115992913D01*
G37*
%TD.AperFunction*%
%TD*%
%TA.AperFunction,Conductor*%
%TO.N,/SPI_CLK_N*%
G36*
X183252195Y-116390804D02*
G01*
X183257955Y-116396013D01*
X183299295Y-116472189D01*
X183429819Y-116712705D01*
X183430753Y-116721611D01*
X183427809Y-116726559D01*
X183298741Y-116855627D01*
X183290468Y-116859054D01*
X183284887Y-116857637D01*
X183150636Y-116784781D01*
X182968195Y-116685773D01*
X182962560Y-116678816D01*
X182962948Y-116671060D01*
X183042513Y-116476725D01*
X183048819Y-116470368D01*
X183048835Y-116470361D01*
X183243242Y-116390767D01*
X183252195Y-116390804D01*
G37*
%TD.AperFunction*%
%TD*%
%TA.AperFunction,Conductor*%
%TO.N,GND*%
G36*
X187906968Y-74011960D02*
G01*
X188742712Y-74846722D01*
X188746144Y-74854993D01*
X188742722Y-74863268D01*
X188742712Y-74863278D01*
X187906968Y-75698039D01*
X187898693Y-75701461D01*
X187891953Y-75699320D01*
X187890138Y-75698039D01*
X187054953Y-75108496D01*
X187050170Y-75100925D01*
X187050000Y-75098937D01*
X187050000Y-74611062D01*
X187053427Y-74602789D01*
X187054947Y-74601507D01*
X187891955Y-74010678D01*
X187900688Y-74008708D01*
X187906968Y-74011960D01*
G37*
%TD.AperFunction*%
%TD*%
%TA.AperFunction,Conductor*%
%TO.N,VDDA*%
G36*
X200675084Y-110045347D02*
G01*
X200678868Y-110048512D01*
X201005401Y-110467811D01*
X201007781Y-110476444D01*
X201005401Y-110482189D01*
X200678868Y-110901487D01*
X200671081Y-110905909D01*
X200666167Y-110905472D01*
X200093230Y-110727555D01*
X200086346Y-110721828D01*
X200085000Y-110716381D01*
X200085000Y-110233618D01*
X200088427Y-110225345D01*
X200093228Y-110222444D01*
X200666167Y-110044527D01*
X200675084Y-110045347D01*
G37*
%TD.AperFunction*%
%TD*%
%TA.AperFunction,Conductor*%
%TO.N,/SPI_left_CLK*%
G36*
X166879080Y-105721006D02*
G01*
X166884782Y-105726108D01*
X167058988Y-106039145D01*
X167060016Y-106048040D01*
X167057037Y-106053107D01*
X166927962Y-106182182D01*
X166919689Y-106185609D01*
X166914231Y-106184258D01*
X166595149Y-106015967D01*
X166589430Y-106009076D01*
X166589778Y-106001187D01*
X166669295Y-105806969D01*
X166675601Y-105800612D01*
X166675617Y-105800605D01*
X166870126Y-105720969D01*
X166879080Y-105721006D01*
G37*
%TD.AperFunction*%
%TD*%
%TA.AperFunction,Conductor*%
%TO.N,/ThPix*%
G36*
X201223942Y-102578427D02*
G01*
X201227077Y-102584102D01*
X201305693Y-102929307D01*
X201304189Y-102938135D01*
X201298807Y-102942696D01*
X201104526Y-103024105D01*
X201095571Y-103024142D01*
X201095482Y-103024105D01*
X200901200Y-102942696D01*
X200894894Y-102936338D01*
X200894314Y-102929309D01*
X200937159Y-102741175D01*
X200938133Y-102738487D01*
X200961574Y-102692482D01*
X200978618Y-102584870D01*
X200983297Y-102577235D01*
X200990174Y-102575000D01*
X201215669Y-102575000D01*
X201223942Y-102578427D01*
G37*
%TD.AperFunction*%
%TD*%
%TA.AperFunction,Conductor*%
%TO.N,GND*%
G36*
X200675084Y-111595347D02*
G01*
X200678868Y-111598512D01*
X201005401Y-112017811D01*
X201007781Y-112026444D01*
X201005401Y-112032189D01*
X200678868Y-112451487D01*
X200671081Y-112455909D01*
X200666167Y-112455472D01*
X200093230Y-112277555D01*
X200086346Y-112271828D01*
X200085000Y-112266381D01*
X200085000Y-111783618D01*
X200088427Y-111775345D01*
X200093228Y-111772444D01*
X200666167Y-111594527D01*
X200675084Y-111595347D01*
G37*
%TD.AperFunction*%
%TD*%
%TA.AperFunction,Conductor*%
%TO.N,/SR_load*%
G36*
X210657008Y-130231988D02*
G01*
X210992691Y-130566715D01*
X210996130Y-130574983D01*
X210992715Y-130583261D01*
X210992691Y-130583285D01*
X210657008Y-130918011D01*
X210648730Y-130921426D01*
X210641947Y-130919247D01*
X210304900Y-130678500D01*
X210300159Y-130670902D01*
X210300000Y-130668979D01*
X210300000Y-130481021D01*
X210303427Y-130472748D01*
X210304900Y-130471500D01*
X210641947Y-130230752D01*
X210650670Y-130228732D01*
X210657008Y-130231988D01*
G37*
%TD.AperFunction*%
%TD*%
%TA.AperFunction,Conductor*%
%TO.N,GND*%
G36*
X165015084Y-104695347D02*
G01*
X165018868Y-104698512D01*
X165345401Y-105117811D01*
X165347781Y-105126444D01*
X165345401Y-105132189D01*
X165018868Y-105551487D01*
X165011081Y-105555909D01*
X165006167Y-105555472D01*
X164433230Y-105377555D01*
X164426346Y-105371828D01*
X164425000Y-105366381D01*
X164425000Y-104883618D01*
X164428427Y-104875345D01*
X164433228Y-104872444D01*
X165006167Y-104694527D01*
X165015084Y-104695347D01*
G37*
%TD.AperFunction*%
%TD*%
%TA.AperFunction,Conductor*%
%TO.N,/blpix*%
G36*
X189161954Y-127149942D02*
G01*
X189170212Y-127153406D01*
X189173602Y-127161694D01*
X189173527Y-127162963D01*
X189126179Y-127579675D01*
X189121840Y-127587508D01*
X189114554Y-127590054D01*
X188883105Y-127590054D01*
X188874832Y-127586627D01*
X188872151Y-127582466D01*
X188746086Y-127246650D01*
X188746387Y-127237702D01*
X188752516Y-127231750D01*
X188947808Y-127149918D01*
X188952376Y-127149010D01*
X189161954Y-127149942D01*
G37*
%TD.AperFunction*%
%TD*%
%TA.AperFunction,Conductor*%
%TO.N,Net-(J14-Pin_4)*%
G36*
X199762848Y-99153427D02*
G01*
X199765440Y-99157360D01*
X199903604Y-99503211D01*
X199903491Y-99512165D01*
X199897261Y-99518342D01*
X199704522Y-99599105D01*
X199695567Y-99599142D01*
X199695478Y-99599105D01*
X199502738Y-99518342D01*
X199496432Y-99511984D01*
X199496395Y-99503212D01*
X199634560Y-99157358D01*
X199640811Y-99150948D01*
X199645425Y-99150000D01*
X199754575Y-99150000D01*
X199762848Y-99153427D01*
G37*
%TD.AperFunction*%
%TD*%
%TA.AperFunction,Conductor*%
%TO.N,Net-(J1-In)*%
G36*
X200409766Y-117445290D02*
G01*
X200413112Y-117447350D01*
X200919434Y-117759073D01*
X200924682Y-117766328D01*
X200925000Y-117769036D01*
X200925000Y-117880963D01*
X200921573Y-117889236D01*
X200919434Y-117890926D01*
X200409768Y-118204708D01*
X200400926Y-118206127D01*
X200395007Y-118202649D01*
X200109402Y-117890926D01*
X200056240Y-117832902D01*
X200053179Y-117824489D01*
X200056240Y-117817097D01*
X200395008Y-117447349D01*
X200403123Y-117443565D01*
X200409766Y-117445290D01*
G37*
%TD.AperFunction*%
%TD*%
%TA.AperFunction,Conductor*%
%TO.N,Net-(J14-Pin_4)*%
G36*
X179253244Y-61129274D02*
G01*
X179259569Y-61135613D01*
X179259647Y-61135807D01*
X179789581Y-62486860D01*
X179789412Y-62495813D01*
X179786962Y-62499405D01*
X179708533Y-62577834D01*
X179700260Y-62581261D01*
X179697718Y-62580981D01*
X178158302Y-62238321D01*
X178150971Y-62233179D01*
X178149424Y-62224359D01*
X178150027Y-62222441D01*
X178467438Y-61453783D01*
X178473759Y-61447448D01*
X179244289Y-61129265D01*
X179253244Y-61129274D01*
G37*
%TD.AperFunction*%
%TD*%
%TA.AperFunction,Conductor*%
%TO.N,GND*%
G36*
X183136968Y-74011960D02*
G01*
X183972712Y-74846722D01*
X183976144Y-74854993D01*
X183972722Y-74863268D01*
X183972712Y-74863278D01*
X183136968Y-75698039D01*
X183128693Y-75701461D01*
X183121953Y-75699320D01*
X183120138Y-75698039D01*
X182284953Y-75108496D01*
X182280170Y-75100925D01*
X182280000Y-75098937D01*
X182280000Y-74611062D01*
X182283427Y-74602789D01*
X182284947Y-74601507D01*
X183121955Y-74010678D01*
X183130688Y-74008708D01*
X183136968Y-74011960D01*
G37*
%TD.AperFunction*%
%TD*%
%TA.AperFunction,Conductor*%
%TO.N,/SPI_CLK_P*%
G36*
X181445696Y-112826809D02*
G01*
X181479282Y-112829369D01*
X181482864Y-112830224D01*
X181507672Y-112840500D01*
X181624899Y-112840500D01*
X181625787Y-112840533D01*
X181739223Y-112849178D01*
X181747211Y-112853223D01*
X181750033Y-112860807D01*
X181750691Y-113070808D01*
X181747290Y-113079092D01*
X181747227Y-113079155D01*
X181598801Y-113226268D01*
X181590513Y-113229658D01*
X181582682Y-113226603D01*
X181307978Y-112976076D01*
X181304175Y-112967971D01*
X181307218Y-112959549D01*
X181307568Y-112959182D01*
X181436548Y-112830202D01*
X181444820Y-112826776D01*
X181445696Y-112826809D01*
G37*
%TD.AperFunction*%
%TD*%
%TA.AperFunction,Conductor*%
%TO.N,/VCasc2!*%
G36*
X191126885Y-128078427D02*
G01*
X191128454Y-128080373D01*
X191347573Y-128421224D01*
X191349279Y-128429430D01*
X191011548Y-130505029D01*
X191006837Y-130512644D01*
X190998121Y-130514698D01*
X190990506Y-130509987D01*
X190988452Y-130505029D01*
X190970147Y-130392536D01*
X190650720Y-128429427D01*
X190652425Y-128421227D01*
X190871546Y-128080373D01*
X190878903Y-128075267D01*
X190881388Y-128075000D01*
X191118612Y-128075000D01*
X191126885Y-128078427D01*
G37*
%TD.AperFunction*%
%TD*%
%TA.AperFunction,Conductor*%
%TO.N,/ThPix*%
G36*
X184333671Y-61129097D02*
G01*
X184339896Y-61135202D01*
X184913361Y-62442475D01*
X184913547Y-62451428D01*
X184910920Y-62455448D01*
X184744522Y-62621846D01*
X184736249Y-62625273D01*
X184733323Y-62624901D01*
X183237740Y-62238660D01*
X183230587Y-62233274D01*
X183229338Y-62224406D01*
X183229849Y-62222874D01*
X183547438Y-61453783D01*
X183553759Y-61447448D01*
X184324717Y-61129088D01*
X184333671Y-61129097D01*
G37*
%TD.AperFunction*%
%TD*%
%TA.AperFunction,Conductor*%
%TO.N,Net-(J5-In)*%
G36*
X161072497Y-117256120D02*
G01*
X162605636Y-118084184D01*
X162611286Y-118091129D01*
X162611775Y-118094477D01*
X162611775Y-118206080D01*
X162608348Y-118214353D01*
X162606360Y-118215948D01*
X161072799Y-119192718D01*
X161063981Y-119194272D01*
X161056646Y-119189135D01*
X161056386Y-119188708D01*
X160502388Y-118230858D01*
X160501212Y-118221981D01*
X160502388Y-118219142D01*
X160576428Y-118091129D01*
X161056811Y-117260555D01*
X161063919Y-117255111D01*
X161072497Y-117256120D01*
G37*
%TD.AperFunction*%
%TD*%
%TA.AperFunction,Conductor*%
%TO.N,/blpix*%
G36*
X186113224Y-113087552D02*
G01*
X186119530Y-113093910D01*
X186119516Y-113102809D01*
X185977987Y-113445513D01*
X185971662Y-113451852D01*
X185967173Y-113452747D01*
X185837200Y-113452747D01*
X185828927Y-113449320D01*
X185825500Y-113441047D01*
X185825500Y-113370133D01*
X185825499Y-113370129D01*
X185793073Y-113291846D01*
X185793072Y-113291844D01*
X185765235Y-113264007D01*
X185762379Y-113259341D01*
X185711528Y-113102286D01*
X185712240Y-113093361D01*
X185718135Y-113087893D01*
X185911567Y-113006840D01*
X185920518Y-113006804D01*
X186113224Y-113087552D01*
G37*
%TD.AperFunction*%
%TD*%
%TA.AperFunction,Conductor*%
%TO.N,/interrupt*%
G36*
X182776149Y-110830243D02*
G01*
X182778270Y-110833145D01*
X182952065Y-111169501D01*
X182952819Y-111178424D01*
X182947042Y-111185266D01*
X182946193Y-111185663D01*
X182754534Y-111265973D01*
X182745579Y-111266010D01*
X182745490Y-111265973D01*
X182551264Y-111184587D01*
X182544958Y-111178229D01*
X182544394Y-111171130D01*
X182622885Y-110835848D01*
X182628107Y-110828575D01*
X182634277Y-110826816D01*
X182767876Y-110826816D01*
X182776149Y-110830243D01*
G37*
%TD.AperFunction*%
%TD*%
%TA.AperFunction,Conductor*%
%TO.N,Net-(J5-In)*%
G36*
X181453129Y-111277624D02*
G01*
X181459359Y-111283801D01*
X181606215Y-111626052D01*
X181606328Y-111635007D01*
X181603736Y-111638939D01*
X181526556Y-111716119D01*
X181518283Y-111719546D01*
X181513669Y-111718598D01*
X181437111Y-111685748D01*
X181431997Y-111681496D01*
X181421586Y-111665914D01*
X181421585Y-111665913D01*
X181378419Y-111637071D01*
X181378418Y-111637070D01*
X181340355Y-111629500D01*
X181308429Y-111629500D01*
X181303815Y-111628552D01*
X181171418Y-111571741D01*
X181165167Y-111565329D01*
X181165203Y-111556558D01*
X181244384Y-111363161D01*
X181250690Y-111356804D01*
X181250706Y-111356797D01*
X181444175Y-111277587D01*
X181453129Y-111277624D01*
G37*
%TD.AperFunction*%
%TD*%
%TA.AperFunction,Conductor*%
%TO.N,/SPI_left_MISO1*%
G36*
X161197945Y-103856131D02*
G01*
X161204008Y-103862721D01*
X161204721Y-103866744D01*
X161204721Y-104047089D01*
X161203357Y-104052571D01*
X161076974Y-104290846D01*
X161070070Y-104296549D01*
X161062179Y-104296181D01*
X160867642Y-104215987D01*
X160861299Y-104209666D01*
X160782623Y-104017492D01*
X160782660Y-104008539D01*
X160789018Y-104002233D01*
X160789386Y-104002090D01*
X161188999Y-103855757D01*
X161197945Y-103856131D01*
G37*
%TD.AperFunction*%
%TD*%
%TA.AperFunction,Conductor*%
%TO.N,GND*%
G36*
X174339548Y-114795513D02*
G01*
X174343769Y-114799277D01*
X174646235Y-115243010D01*
X174648063Y-115251776D01*
X174645855Y-115256715D01*
X174318664Y-115683867D01*
X174310913Y-115688351D01*
X174305191Y-115687678D01*
X173757515Y-115477878D01*
X173751015Y-115471718D01*
X173750000Y-115466952D01*
X173750000Y-114983618D01*
X173753427Y-114975345D01*
X173758228Y-114972444D01*
X174330632Y-114794693D01*
X174339548Y-114795513D01*
G37*
%TD.AperFunction*%
%TD*%
%TA.AperFunction,Conductor*%
%TO.N,Net-(J14-Pin_3)*%
G36*
X184857430Y-111192784D02*
G01*
X184863004Y-111197662D01*
X185037867Y-111496248D01*
X185039091Y-111505119D01*
X185036044Y-111510434D01*
X184958887Y-111587591D01*
X184950614Y-111591018D01*
X184947451Y-111590582D01*
X184611512Y-111496248D01*
X184576533Y-111486425D01*
X184569495Y-111480890D01*
X184568433Y-111471999D01*
X184568865Y-111470738D01*
X184647435Y-111278833D01*
X184653741Y-111272476D01*
X184653757Y-111272469D01*
X184848476Y-111192747D01*
X184857430Y-111192784D01*
G37*
%TD.AperFunction*%
%TD*%
%TA.AperFunction,Conductor*%
%TO.N,/SPI_right_CSN*%
G36*
X199335072Y-116364027D02*
G01*
X199555289Y-116460073D01*
X199675618Y-116512553D01*
X199681832Y-116519001D01*
X199681769Y-116527710D01*
X199602563Y-116721168D01*
X199596257Y-116727526D01*
X199596168Y-116727563D01*
X199402710Y-116806769D01*
X199393755Y-116806732D01*
X199387553Y-116800618D01*
X199239028Y-116460073D01*
X199238861Y-116451120D01*
X199241477Y-116447125D01*
X199322124Y-116366478D01*
X199330396Y-116363052D01*
X199335072Y-116364027D01*
G37*
%TD.AperFunction*%
%TD*%
%TA.AperFunction,Conductor*%
%TO.N,/SR_sin*%
G36*
X197766993Y-121947517D02*
G01*
X197773951Y-121953154D01*
X197775368Y-121958735D01*
X197775368Y-122141264D01*
X197771941Y-122149537D01*
X197766993Y-122152482D01*
X197421532Y-122254890D01*
X197412626Y-122253955D01*
X197407416Y-122248194D01*
X197326261Y-122054519D01*
X197326225Y-122045568D01*
X197407417Y-121851803D01*
X197413774Y-121845499D01*
X197421531Y-121845109D01*
X197766993Y-121947517D01*
G37*
%TD.AperFunction*%
%TD*%
%TA.AperFunction,Conductor*%
%TO.N,/SPI_CSN_N*%
G36*
X179866465Y-128100817D02*
G01*
X179866834Y-128101203D01*
X179987648Y-128233579D01*
X180158947Y-128421270D01*
X180161993Y-128429691D01*
X180161972Y-128430034D01*
X180008082Y-130477572D01*
X180004045Y-130485565D01*
X179995538Y-130488362D01*
X179987545Y-130484325D01*
X179984868Y-130478579D01*
X179650479Y-128427939D01*
X179650985Y-128422190D01*
X179716276Y-128236091D01*
X179719040Y-128231696D01*
X179849920Y-128100816D01*
X179858192Y-128097390D01*
X179866465Y-128100817D01*
G37*
%TD.AperFunction*%
%TD*%
%TA.AperFunction,Conductor*%
%TO.N,Net-(JP3-C)*%
G36*
X175706180Y-111285862D02*
G01*
X175712410Y-111292039D01*
X175859266Y-111634290D01*
X175859379Y-111643245D01*
X175856787Y-111647177D01*
X175779607Y-111724357D01*
X175771334Y-111727784D01*
X175766720Y-111726836D01*
X175639881Y-111672411D01*
X175634769Y-111668162D01*
X175626586Y-111655914D01*
X175626584Y-111655913D01*
X175626584Y-111655912D01*
X175583419Y-111627071D01*
X175583418Y-111627070D01*
X175545355Y-111619500D01*
X175518976Y-111619500D01*
X175514362Y-111618552D01*
X175424469Y-111579980D01*
X175418218Y-111573569D01*
X175418254Y-111564796D01*
X175497435Y-111371399D01*
X175503741Y-111365042D01*
X175503757Y-111365035D01*
X175697226Y-111285825D01*
X175706180Y-111285862D01*
G37*
%TD.AperFunction*%
%TD*%
%TA.AperFunction,Conductor*%
%TO.N,GND*%
G36*
X165065757Y-87664222D02*
G01*
X165414360Y-87955489D01*
X165418511Y-87963423D01*
X165417940Y-87968220D01*
X164984377Y-89248314D01*
X164978477Y-89255051D01*
X164969542Y-89255643D01*
X164962805Y-89249743D01*
X164962684Y-89249491D01*
X164421015Y-88083602D01*
X164420560Y-88074872D01*
X164457182Y-87968220D01*
X164559787Y-87669399D01*
X164565715Y-87662689D01*
X164570853Y-87661500D01*
X165058255Y-87661500D01*
X165065757Y-87664222D01*
G37*
%TD.AperFunction*%
%TD*%
%TA.AperFunction,Conductor*%
%TO.N,/SR_ldtdac*%
G36*
X186602769Y-115731981D02*
G01*
X186840561Y-115873825D01*
X186845910Y-115881006D01*
X186845384Y-115888332D01*
X186766128Y-116080595D01*
X186759807Y-116086938D01*
X186755259Y-116087836D01*
X186547895Y-116086914D01*
X186539637Y-116083450D01*
X186536426Y-116077254D01*
X186477433Y-115744069D01*
X186479365Y-115735325D01*
X186486914Y-115730508D01*
X186488954Y-115730329D01*
X186596775Y-115730329D01*
X186602769Y-115731981D01*
G37*
%TD.AperFunction*%
%TD*%
%TA.AperFunction,Conductor*%
%TO.N,/SR_sin*%
G36*
X201102252Y-128078427D02*
G01*
X201103500Y-128079900D01*
X201347198Y-128421078D01*
X201349225Y-128429757D01*
X201011548Y-130505029D01*
X201006837Y-130512644D01*
X200998121Y-130514698D01*
X200990506Y-130509987D01*
X200988452Y-130505029D01*
X200650774Y-128429757D01*
X200652801Y-128421078D01*
X200896500Y-128079900D01*
X200904098Y-128075159D01*
X200906021Y-128075000D01*
X201093979Y-128075000D01*
X201102252Y-128078427D01*
G37*
%TD.AperFunction*%
%TD*%
%TA.AperFunction,Conductor*%
%TO.N,/SR_out_CK1*%
G36*
X179192576Y-112507085D02*
G01*
X179199024Y-112513299D01*
X179200000Y-112517976D01*
X179200000Y-112632023D01*
X179196573Y-112640296D01*
X179192576Y-112642914D01*
X178846750Y-112778692D01*
X178837797Y-112778525D01*
X178831683Y-112772323D01*
X178750893Y-112579519D01*
X178750857Y-112570568D01*
X178831684Y-112377674D01*
X178838041Y-112371370D01*
X178846750Y-112371307D01*
X179192576Y-112507085D01*
G37*
%TD.AperFunction*%
%TD*%
%TA.AperFunction,Conductor*%
%TO.N,/HV_in_ext*%
G36*
X160465100Y-77541472D02*
G01*
X161341519Y-77966330D01*
X161450451Y-78019137D01*
X161456400Y-78025829D01*
X161456322Y-78033719D01*
X160862825Y-79640263D01*
X160856744Y-79646836D01*
X160851850Y-79647909D01*
X160068150Y-79647909D01*
X160059877Y-79644482D01*
X160057175Y-79640263D01*
X159463677Y-78033719D01*
X159464025Y-78024771D01*
X159469547Y-78019137D01*
X160454896Y-77541473D01*
X160463836Y-77540949D01*
X160465100Y-77541472D01*
G37*
%TD.AperFunction*%
%TD*%
%TA.AperFunction,Conductor*%
%TO.N,Net-(J14-Pin_10)*%
G36*
X189962165Y-113526508D02*
G01*
X189968342Y-113532738D01*
X190049105Y-113725478D01*
X190049142Y-113734433D01*
X190049105Y-113734522D01*
X189968342Y-113927261D01*
X189961984Y-113933567D01*
X189953211Y-113933604D01*
X189607360Y-113795440D01*
X189600948Y-113789189D01*
X189600000Y-113784575D01*
X189600000Y-113675424D01*
X189603427Y-113667151D01*
X189607357Y-113664560D01*
X189953212Y-113526395D01*
X189962165Y-113526508D01*
G37*
%TD.AperFunction*%
%TD*%
%TA.AperFunction,Conductor*%
%TO.N,/SPI_left_MOSI*%
G36*
X169061094Y-104847300D02*
G01*
X169067820Y-104853211D01*
X169069022Y-104858376D01*
X169069022Y-105040929D01*
X169065595Y-105049202D01*
X169060238Y-105052260D01*
X168717907Y-105140351D01*
X168709041Y-105139094D01*
X168704200Y-105133542D01*
X168622899Y-104939519D01*
X168622863Y-104930568D01*
X168703889Y-104737199D01*
X168710246Y-104730895D01*
X168718449Y-104730647D01*
X169061094Y-104847300D01*
G37*
%TD.AperFunction*%
%TD*%
%TA.AperFunction,Conductor*%
%TO.N,VDD*%
G36*
X161249448Y-128078427D02*
G01*
X161252425Y-128083486D01*
X161349282Y-128422487D01*
X161349580Y-128427580D01*
X161011548Y-130505029D01*
X161006837Y-130512644D01*
X160998121Y-130514698D01*
X160990506Y-130509987D01*
X160988452Y-130505029D01*
X160969641Y-130389426D01*
X160650419Y-128427576D01*
X160650716Y-128422491D01*
X160747575Y-128083485D01*
X160753143Y-128076472D01*
X160758825Y-128075000D01*
X161241175Y-128075000D01*
X161249448Y-128078427D01*
G37*
%TD.AperFunction*%
%TD*%
%TA.AperFunction,Conductor*%
%TO.N,/SPI_left_MISO0*%
G36*
X160628663Y-104992270D02*
G01*
X160757731Y-105121338D01*
X160761158Y-105129611D01*
X160759741Y-105135192D01*
X160587878Y-105451883D01*
X160580920Y-105457519D01*
X160573162Y-105457130D01*
X160378830Y-105377566D01*
X160372472Y-105371260D01*
X160372435Y-105371171D01*
X160292871Y-105176839D01*
X160292908Y-105167884D01*
X160298115Y-105162125D01*
X160614810Y-104990259D01*
X160623715Y-104989326D01*
X160628663Y-104992270D01*
G37*
%TD.AperFunction*%
%TD*%
%TA.AperFunction,Conductor*%
%TO.N,Net-(J14-Pin_12)*%
G36*
X202733279Y-102740733D02*
G01*
X202839650Y-102786375D01*
X203075531Y-102887590D01*
X203081781Y-102894000D01*
X203081744Y-102902774D01*
X203002564Y-103096169D01*
X202996258Y-103102527D01*
X202996169Y-103102564D01*
X202802775Y-103181744D01*
X202793820Y-103181707D01*
X202787590Y-103175530D01*
X202738948Y-103062169D01*
X202738000Y-103057555D01*
X202738000Y-102986779D01*
X202737999Y-102986775D01*
X202709379Y-102917681D01*
X202709378Y-102917679D01*
X202654164Y-102862465D01*
X202651687Y-102858810D01*
X202640731Y-102833277D01*
X202640619Y-102824326D01*
X202643209Y-102820395D01*
X202720393Y-102743211D01*
X202728665Y-102739785D01*
X202733279Y-102740733D01*
G37*
%TD.AperFunction*%
%TD*%
%TA.AperFunction,Conductor*%
%TO.N,Net-(U2A-vminusout)*%
G36*
X191051018Y-115878427D02*
G01*
X191053225Y-115881499D01*
X191305863Y-116390579D01*
X191306471Y-116399513D01*
X191303287Y-116404407D01*
X190932904Y-116743758D01*
X190924489Y-116746820D01*
X190917096Y-116743758D01*
X190546190Y-116403929D01*
X190542405Y-116395813D01*
X190543233Y-116390953D01*
X190556965Y-116356687D01*
X190559544Y-116352778D01*
X190672692Y-116239631D01*
X190705500Y-116160426D01*
X190705500Y-116074695D01*
X190705500Y-115988297D01*
X190706339Y-115983948D01*
X190747055Y-115882347D01*
X190753313Y-115875943D01*
X190757915Y-115875000D01*
X191042745Y-115875000D01*
X191051018Y-115878427D01*
G37*
%TD.AperFunction*%
%TD*%
%TA.AperFunction,Conductor*%
%TO.N,/SPI_MOSI_N*%
G36*
X177919143Y-128079205D02*
G01*
X177919821Y-128079943D01*
X178207130Y-128421232D01*
X178209836Y-128429768D01*
X178209824Y-128429902D01*
X178009428Y-130486216D01*
X178005215Y-130494118D01*
X177996648Y-130496726D01*
X177988746Y-130492513D01*
X177986236Y-130486964D01*
X177650660Y-128429050D01*
X177652012Y-128421426D01*
X177769406Y-128213004D01*
X177771321Y-128210481D01*
X177902598Y-128079204D01*
X177910870Y-128075778D01*
X177919143Y-128079205D01*
G37*
%TD.AperFunction*%
%TD*%
%TA.AperFunction,Conductor*%
%TO.N,/SR_sin*%
G36*
X200538030Y-126167910D02*
G01*
X200543790Y-126173119D01*
X200585130Y-126249295D01*
X200715654Y-126489811D01*
X200716588Y-126498717D01*
X200713644Y-126503665D01*
X200584576Y-126632733D01*
X200576303Y-126636160D01*
X200570722Y-126634743D01*
X200436471Y-126561887D01*
X200254030Y-126462879D01*
X200248395Y-126455922D01*
X200248783Y-126448166D01*
X200328348Y-126253831D01*
X200334654Y-126247474D01*
X200334670Y-126247467D01*
X200529077Y-126167873D01*
X200538030Y-126167910D01*
G37*
%TD.AperFunction*%
%TD*%
%TA.AperFunction,Conductor*%
%TO.N,VDDA*%
G36*
X188754489Y-79935865D02*
G01*
X189524732Y-80255891D01*
X189531057Y-80262230D01*
X189531146Y-80270941D01*
X189002903Y-81627545D01*
X188996707Y-81634011D01*
X188992000Y-81635000D01*
X188508000Y-81635000D01*
X188499727Y-81631573D01*
X188497097Y-81627545D01*
X187968853Y-80270941D01*
X187969045Y-80261989D01*
X187975266Y-80255891D01*
X188745511Y-79935864D01*
X188754466Y-79935856D01*
X188754489Y-79935865D01*
G37*
%TD.AperFunction*%
%TD*%
%TA.AperFunction,Conductor*%
%TO.N,Net-(U2A-Qdac<0>)*%
G36*
X187687848Y-112528427D02*
G01*
X187690440Y-112532360D01*
X187828604Y-112878211D01*
X187828491Y-112887165D01*
X187822261Y-112893342D01*
X187629522Y-112974105D01*
X187620567Y-112974142D01*
X187620478Y-112974105D01*
X187427738Y-112893342D01*
X187421432Y-112886984D01*
X187421395Y-112878212D01*
X187559560Y-112532358D01*
X187565811Y-112525948D01*
X187570425Y-112525000D01*
X187679575Y-112525000D01*
X187687848Y-112528427D01*
G37*
%TD.AperFunction*%
%TD*%
%TA.AperFunction,Conductor*%
%TO.N,/syncres*%
G36*
X202102252Y-128078427D02*
G01*
X202103500Y-128079900D01*
X202347198Y-128421078D01*
X202349225Y-128429757D01*
X202011548Y-130505029D01*
X202006837Y-130512644D01*
X201998121Y-130514698D01*
X201990506Y-130509987D01*
X201988452Y-130505029D01*
X201650774Y-128429757D01*
X201652801Y-128421078D01*
X201896500Y-128079900D01*
X201904098Y-128075159D01*
X201906021Y-128075000D01*
X202093979Y-128075000D01*
X202102252Y-128078427D01*
G37*
%TD.AperFunction*%
%TD*%
%TA.AperFunction,Conductor*%
%TO.N,Net-(JP5-B)*%
G36*
X174831180Y-110418292D02*
G01*
X174837410Y-110424469D01*
X174984266Y-110766720D01*
X174984379Y-110775675D01*
X174981787Y-110779607D01*
X174904607Y-110856787D01*
X174896334Y-110860214D01*
X174891720Y-110859266D01*
X174549469Y-110712410D01*
X174543218Y-110705999D01*
X174543254Y-110697226D01*
X174622435Y-110503829D01*
X174628741Y-110497472D01*
X174628757Y-110497465D01*
X174822226Y-110418255D01*
X174831180Y-110418292D01*
G37*
%TD.AperFunction*%
%TD*%
%TA.AperFunction,Conductor*%
%TO.N,/VCasc2!*%
G36*
X191198803Y-127207297D02*
G01*
X191205109Y-127213655D01*
X191205689Y-127220686D01*
X191127073Y-127565892D01*
X191121895Y-127573198D01*
X191115665Y-127574994D01*
X190884335Y-127574994D01*
X190876062Y-127571567D01*
X190872927Y-127565892D01*
X190794310Y-127220684D01*
X190795814Y-127211858D01*
X190801193Y-127207298D01*
X190995480Y-127125887D01*
X191004431Y-127125851D01*
X191198803Y-127207297D01*
G37*
%TD.AperFunction*%
%TD*%
%TA.AperFunction,Conductor*%
%TO.N,Net-(J14-Pin_12)*%
G36*
X190252560Y-112556411D02*
G01*
X190255291Y-112560709D01*
X190379092Y-112903430D01*
X190378680Y-112912375D01*
X190372610Y-112918196D01*
X190179522Y-112999105D01*
X190170567Y-112999142D01*
X190170478Y-112999105D01*
X189978150Y-112918515D01*
X189971844Y-112912157D01*
X189971881Y-112903202D01*
X189971955Y-112903030D01*
X190124412Y-112559932D01*
X190130903Y-112553764D01*
X190135104Y-112552984D01*
X190244287Y-112552984D01*
X190252560Y-112556411D01*
G37*
%TD.AperFunction*%
%TD*%
%TA.AperFunction,Conductor*%
%TO.N,/DigInj*%
G36*
X207947733Y-128081681D02*
G01*
X207948146Y-128082116D01*
X208254005Y-128421053D01*
X208257004Y-128429490D01*
X208256936Y-128430278D01*
X208010534Y-130493423D01*
X208006151Y-130501232D01*
X207997530Y-130503653D01*
X207989721Y-130499270D01*
X207987370Y-130493919D01*
X207987289Y-130493423D01*
X207650809Y-128429964D01*
X207652859Y-128421249D01*
X207653014Y-128421039D01*
X207847500Y-128165516D01*
X207848525Y-128164343D01*
X207931188Y-128081680D01*
X207939460Y-128078254D01*
X207947733Y-128081681D01*
G37*
%TD.AperFunction*%
%TD*%
%TA.AperFunction,Conductor*%
%TO.N,Net-(J2-Pin_1)*%
G36*
X159405156Y-88755597D02*
G01*
X159405461Y-88756175D01*
X160041537Y-90049331D01*
X160042113Y-90058267D01*
X160039311Y-90062768D01*
X159960481Y-90141598D01*
X159952208Y-90145025D01*
X159951708Y-90145014D01*
X158328412Y-90075628D01*
X158320293Y-90071851D01*
X158317223Y-90063439D01*
X158317634Y-90060823D01*
X158547996Y-89228975D01*
X158553504Y-89221920D01*
X159389221Y-88751144D01*
X159398110Y-88750070D01*
X159405156Y-88755597D01*
G37*
%TD.AperFunction*%
%TD*%
%TA.AperFunction,Conductor*%
%TO.N,/SR_out_0D*%
G36*
X174102252Y-128078427D02*
G01*
X174103500Y-128079900D01*
X174347198Y-128421078D01*
X174349225Y-128429757D01*
X174011548Y-130505029D01*
X174006837Y-130512644D01*
X173998121Y-130514698D01*
X173990506Y-130509987D01*
X173988452Y-130505029D01*
X173650774Y-128429757D01*
X173652801Y-128421078D01*
X173896500Y-128079900D01*
X173904098Y-128075159D01*
X173906021Y-128075000D01*
X174093979Y-128075000D01*
X174102252Y-128078427D01*
G37*
%TD.AperFunction*%
%TD*%
%TA.AperFunction,Conductor*%
%TO.N,suba*%
G36*
X167928787Y-89293617D02*
G01*
X167934810Y-89300113D01*
X168407171Y-90557415D01*
X168406872Y-90566365D01*
X168405617Y-90568497D01*
X167941008Y-91195267D01*
X167933329Y-91199873D01*
X167931609Y-91200000D01*
X167645661Y-91200000D01*
X167637388Y-91196573D01*
X167634681Y-91192342D01*
X167370709Y-90475233D01*
X167371066Y-90466286D01*
X167913247Y-89299297D01*
X167919840Y-89293239D01*
X167928787Y-89293617D01*
G37*
%TD.AperFunction*%
%TD*%
%TA.AperFunction,Conductor*%
%TO.N,/SR_out_CK1*%
G36*
X176412834Y-116696731D02*
G01*
X176607168Y-116776296D01*
X176613526Y-116782602D01*
X176613563Y-116782691D01*
X176693127Y-116977023D01*
X176693090Y-116985978D01*
X176687880Y-116991739D01*
X176371189Y-117163602D01*
X176362283Y-117164536D01*
X176357335Y-117161592D01*
X176228267Y-117032524D01*
X176224840Y-117024251D01*
X176226256Y-117018672D01*
X176398122Y-116701977D01*
X176405078Y-116696343D01*
X176412834Y-116696731D01*
G37*
%TD.AperFunction*%
%TD*%
%TA.AperFunction,Conductor*%
%TO.N,/SPI_CLK_P*%
G36*
X196135722Y-124651752D02*
G01*
X196489882Y-124698660D01*
X196497633Y-124703143D01*
X196500045Y-124710206D01*
X196500978Y-124920102D01*
X196497588Y-124928390D01*
X196497525Y-124928453D01*
X196349466Y-125075587D01*
X196341182Y-125078988D01*
X196332920Y-125075535D01*
X196332664Y-125075270D01*
X196125632Y-124853370D01*
X196122487Y-124845388D01*
X196122487Y-124663352D01*
X196125914Y-124655079D01*
X196134187Y-124651652D01*
X196135722Y-124651752D01*
G37*
%TD.AperFunction*%
%TD*%
%TA.AperFunction,Conductor*%
%TO.N,/SPI_right_MISO1*%
G36*
X193785073Y-116064028D02*
G01*
X194005290Y-116160074D01*
X194125619Y-116212554D01*
X194131833Y-116219002D01*
X194131770Y-116227711D01*
X194052564Y-116421169D01*
X194046258Y-116427527D01*
X194046169Y-116427564D01*
X193852711Y-116506770D01*
X193843756Y-116506733D01*
X193837554Y-116500619D01*
X193689029Y-116160074D01*
X193688862Y-116151121D01*
X193691478Y-116147126D01*
X193772125Y-116066479D01*
X193780397Y-116063053D01*
X193785073Y-116064028D01*
G37*
%TD.AperFunction*%
%TD*%
%TA.AperFunction,Conductor*%
%TO.N,/SR_load*%
G36*
X210358052Y-130230752D02*
G01*
X210695100Y-130471500D01*
X210699841Y-130479098D01*
X210700000Y-130481021D01*
X210700000Y-130668979D01*
X210696573Y-130677252D01*
X210695100Y-130678500D01*
X210358052Y-130919247D01*
X210349328Y-130921267D01*
X210342991Y-130918011D01*
X210007307Y-130583283D01*
X210003869Y-130575017D01*
X210007283Y-130566740D01*
X210342992Y-130231987D01*
X210351269Y-130228573D01*
X210358052Y-130230752D01*
G37*
%TD.AperFunction*%
%TD*%
%TA.AperFunction,Conductor*%
%TO.N,/SR_load*%
G36*
X183853583Y-110881319D02*
G01*
X183855748Y-110884307D01*
X184027501Y-111223547D01*
X184028181Y-111232476D01*
X184022348Y-111239270D01*
X184021585Y-111239623D01*
X183829830Y-111319974D01*
X183820875Y-111320011D01*
X183820786Y-111319974D01*
X183744399Y-111287966D01*
X183627218Y-111238864D01*
X183620913Y-111232507D01*
X183620561Y-111224628D01*
X183724955Y-110886144D01*
X183730668Y-110879248D01*
X183736135Y-110877892D01*
X183845310Y-110877892D01*
X183853583Y-110881319D01*
G37*
%TD.AperFunction*%
%TD*%
%TA.AperFunction,Conductor*%
%TO.N,/SR_rb*%
G36*
X185312848Y-114353427D02*
G01*
X185315440Y-114357360D01*
X185453604Y-114703211D01*
X185453491Y-114712165D01*
X185447261Y-114718342D01*
X185254522Y-114799105D01*
X185245567Y-114799142D01*
X185245478Y-114799105D01*
X185052738Y-114718342D01*
X185046432Y-114711984D01*
X185046395Y-114703212D01*
X185184560Y-114357358D01*
X185190811Y-114350948D01*
X185195425Y-114350000D01*
X185304575Y-114350000D01*
X185312848Y-114353427D01*
G37*
%TD.AperFunction*%
%TD*%
%TA.AperFunction,Conductor*%
%TO.N,/Clk20_Ext_N*%
G36*
X199954259Y-128064799D02*
G01*
X199955130Y-128065773D01*
X200238863Y-128421212D01*
X200241346Y-128429815D01*
X200010188Y-130491157D01*
X200005861Y-130498997D01*
X199997257Y-130501480D01*
X199989417Y-130497153D01*
X199987014Y-130491736D01*
X199650752Y-128429613D01*
X199652633Y-128421139D01*
X199804932Y-128197866D01*
X199806314Y-128196198D01*
X199937714Y-128064798D01*
X199945986Y-128061372D01*
X199954259Y-128064799D01*
G37*
%TD.AperFunction*%
%TD*%
%TA.AperFunction,Conductor*%
%TO.N,/SR_ldpatgen*%
G36*
X185014147Y-113884196D02*
G01*
X185017574Y-113892469D01*
X185017369Y-113894648D01*
X184951802Y-114240521D01*
X184946894Y-114248011D01*
X184940359Y-114250042D01*
X184729903Y-114250978D01*
X184721615Y-114247588D01*
X184574942Y-114099993D01*
X184571542Y-114091710D01*
X184574995Y-114083448D01*
X184575786Y-114082731D01*
X184816754Y-113883453D01*
X184824210Y-113880769D01*
X185005874Y-113880769D01*
X185014147Y-113884196D01*
G37*
%TD.AperFunction*%
%TD*%
%TA.AperFunction,Conductor*%
%TO.N,/VCasc2!*%
G36*
X191123942Y-120153427D02*
G01*
X191127077Y-120159102D01*
X191205693Y-120504307D01*
X191204189Y-120513135D01*
X191198807Y-120517696D01*
X191004526Y-120599105D01*
X190995571Y-120599142D01*
X190995482Y-120599105D01*
X190801200Y-120517696D01*
X190794894Y-120511338D01*
X190794314Y-120504309D01*
X190872931Y-120159101D01*
X190878109Y-120151796D01*
X190884339Y-120150000D01*
X191115669Y-120150000D01*
X191123942Y-120153427D01*
G37*
%TD.AperFunction*%
%TD*%
%TA.AperFunction,Conductor*%
%TO.N,/res_n*%
G36*
X203077586Y-128078427D02*
G01*
X203078512Y-128079470D01*
X203346827Y-128420961D01*
X203349244Y-128429584D01*
X203349175Y-128430069D01*
X203011548Y-130505029D01*
X203006837Y-130512644D01*
X202998121Y-130514698D01*
X202990506Y-130509987D01*
X202988452Y-130505029D01*
X202969612Y-130389248D01*
X202650824Y-128430066D01*
X202652878Y-128421353D01*
X202653140Y-128421003D01*
X202921487Y-128079470D01*
X202929293Y-128075083D01*
X202930687Y-128075000D01*
X203069313Y-128075000D01*
X203077586Y-128078427D01*
G37*
%TD.AperFunction*%
%TD*%
%TA.AperFunction,Conductor*%
%TO.N,Net-(J2-Pin_3)*%
G36*
X158885660Y-93525213D02*
G01*
X158886616Y-93525662D01*
X160243745Y-94239211D01*
X160249473Y-94246094D01*
X160250000Y-94249567D01*
X160250000Y-94360432D01*
X160246573Y-94368705D01*
X160243745Y-94370788D01*
X158886616Y-95084337D01*
X158877698Y-95085154D01*
X158870815Y-95079426D01*
X158870371Y-95078481D01*
X158550864Y-94309488D01*
X158550856Y-94300534D01*
X158550865Y-94300511D01*
X158572032Y-94249567D01*
X158870367Y-93531527D01*
X158876705Y-93525204D01*
X158885660Y-93525213D01*
G37*
%TD.AperFunction*%
%TD*%
%TA.AperFunction,Conductor*%
%TO.N,/hold*%
G36*
X192007426Y-123017786D02*
G01*
X192013020Y-123022666D01*
X192144837Y-123247257D01*
X192146447Y-123253178D01*
X192146447Y-123433840D01*
X192143020Y-123442113D01*
X192134747Y-123445540D01*
X192131095Y-123444955D01*
X191725831Y-123311794D01*
X191719041Y-123305956D01*
X191718368Y-123297027D01*
X191718645Y-123296273D01*
X191797149Y-123104519D01*
X191803452Y-123098164D01*
X191998472Y-123017771D01*
X192007426Y-123017786D01*
G37*
%TD.AperFunction*%
%TD*%
%TA.AperFunction,Conductor*%
%TO.N,GND*%
G36*
X184838044Y-74010678D02*
G01*
X185675047Y-74601504D01*
X185679830Y-74609074D01*
X185680000Y-74611062D01*
X185680000Y-75098937D01*
X185676573Y-75107210D01*
X185675047Y-75108496D01*
X184838046Y-75699320D01*
X184829311Y-75701291D01*
X184823031Y-75698039D01*
X184232794Y-75108496D01*
X183987286Y-74863276D01*
X183983855Y-74855007D01*
X183987276Y-74846733D01*
X184823032Y-74011959D01*
X184831306Y-74008538D01*
X184838044Y-74010678D01*
G37*
%TD.AperFunction*%
%TD*%
%TA.AperFunction,Conductor*%
%TO.N,/VCasc2!*%
G36*
X202045011Y-103153639D02*
G01*
X202048146Y-103159314D01*
X202126762Y-103504519D01*
X202125258Y-103513347D01*
X202119876Y-103517908D01*
X201925595Y-103599317D01*
X201916640Y-103599354D01*
X201916551Y-103599317D01*
X201722269Y-103517908D01*
X201715963Y-103511550D01*
X201715383Y-103504521D01*
X201794000Y-103159313D01*
X201799178Y-103152008D01*
X201805408Y-103150212D01*
X202036738Y-103150212D01*
X202045011Y-103153639D01*
G37*
%TD.AperFunction*%
%TD*%
%TA.AperFunction,Conductor*%
%TO.N,Net-(J14-Pin_10)*%
G36*
X202612848Y-103828427D02*
G01*
X202615440Y-103832360D01*
X202753604Y-104178211D01*
X202753491Y-104187165D01*
X202747261Y-104193342D01*
X202554522Y-104274105D01*
X202545567Y-104274142D01*
X202545478Y-104274105D01*
X202352738Y-104193342D01*
X202346432Y-104186984D01*
X202346395Y-104178212D01*
X202484560Y-103832358D01*
X202490811Y-103825948D01*
X202495425Y-103825000D01*
X202604575Y-103825000D01*
X202612848Y-103828427D01*
G37*
%TD.AperFunction*%
%TD*%
%TA.AperFunction,Conductor*%
%TO.N,GND*%
G36*
X167083832Y-110594527D02*
G01*
X167096665Y-110598512D01*
X167656770Y-110772444D01*
X167663654Y-110778171D01*
X167665000Y-110783618D01*
X167665000Y-111266381D01*
X167661573Y-111274654D01*
X167656770Y-111277555D01*
X167083832Y-111455472D01*
X167074915Y-111454652D01*
X167071131Y-111451487D01*
X166926978Y-111266381D01*
X166744597Y-111032188D01*
X166742218Y-111023556D01*
X166744597Y-111017812D01*
X167071132Y-110598511D01*
X167078918Y-110594090D01*
X167083832Y-110594527D01*
G37*
%TD.AperFunction*%
%TD*%
%TA.AperFunction,Conductor*%
%TO.N,suba*%
G36*
X168274333Y-87353427D02*
G01*
X168277349Y-87358625D01*
X168467548Y-88056852D01*
X168466939Y-88064705D01*
X167934866Y-89253946D01*
X167928359Y-89260098D01*
X167919408Y-89259848D01*
X167913815Y-89254584D01*
X167351769Y-88178388D01*
X167350572Y-88171221D01*
X167473493Y-87359947D01*
X167478121Y-87352281D01*
X167485061Y-87350000D01*
X168266060Y-87350000D01*
X168274333Y-87353427D01*
G37*
%TD.AperFunction*%
%TD*%
%TA.AperFunction,Conductor*%
%TO.N,Net-(J14-Pin_1)*%
G36*
X197952546Y-78084417D02*
G01*
X198323466Y-78188578D01*
X198330504Y-78194113D01*
X198331566Y-78203004D01*
X198331130Y-78204274D01*
X198252564Y-78396169D01*
X198246258Y-78402527D01*
X198246169Y-78402564D01*
X198051524Y-78482256D01*
X198042569Y-78482219D01*
X198036995Y-78477341D01*
X197862133Y-78178752D01*
X197860909Y-78169881D01*
X197863954Y-78164568D01*
X197941114Y-78087408D01*
X197949386Y-78083982D01*
X197952546Y-78084417D01*
G37*
%TD.AperFunction*%
%TD*%
%TA.AperFunction,Conductor*%
%TO.N,/blpix*%
G36*
X174173330Y-61129238D02*
G01*
X174179655Y-61135577D01*
X174179699Y-61135686D01*
X174718340Y-62477982D01*
X174718241Y-62486936D01*
X174715755Y-62490612D01*
X174619729Y-62586638D01*
X174611456Y-62590065D01*
X174608839Y-62589768D01*
X174081996Y-62468825D01*
X173078190Y-62238390D01*
X173070894Y-62233199D01*
X173069405Y-62224369D01*
X173069990Y-62222533D01*
X173387438Y-61453783D01*
X173393759Y-61447448D01*
X174164376Y-61129229D01*
X174173330Y-61129238D01*
G37*
%TD.AperFunction*%
%TD*%
%TA.AperFunction,Conductor*%
%TO.N,/SPI_MISO0_N*%
G36*
X181725276Y-117638745D02*
G01*
X181731036Y-117643954D01*
X181772376Y-117720130D01*
X181902900Y-117960646D01*
X181903834Y-117969552D01*
X181900890Y-117974500D01*
X181777454Y-118097937D01*
X181769181Y-118101364D01*
X181760908Y-118097937D01*
X181746993Y-118084022D01*
X181728670Y-118071749D01*
X181726908Y-118070301D01*
X181693524Y-118036917D01*
X181587539Y-117982915D01*
X181511008Y-117970794D01*
X181507257Y-117969521D01*
X181490903Y-117960646D01*
X181441276Y-117933714D01*
X181435641Y-117926757D01*
X181436029Y-117919001D01*
X181515594Y-117724666D01*
X181521900Y-117718309D01*
X181521916Y-117718302D01*
X181716323Y-117638708D01*
X181725276Y-117638745D01*
G37*
%TD.AperFunction*%
%TD*%
%TA.AperFunction,Conductor*%
%TO.N,Net-(J2-Pin_2)*%
G36*
X158885286Y-90986113D02*
G01*
X158886976Y-90986983D01*
X158895723Y-90992429D01*
X160234823Y-91826155D01*
X160240035Y-91833436D01*
X160238571Y-91842271D01*
X160236912Y-91844360D01*
X160160321Y-91920951D01*
X160157189Y-91923188D01*
X158886460Y-92544828D01*
X158877523Y-92545385D01*
X158870809Y-92539459D01*
X158870512Y-92538800D01*
X158551152Y-91768777D01*
X158551149Y-91759825D01*
X158869993Y-90992427D01*
X158876331Y-90986104D01*
X158885286Y-90986113D01*
G37*
%TD.AperFunction*%
%TD*%
%TA.AperFunction,Conductor*%
%TO.N,/SR_sin*%
G36*
X196938871Y-121812877D02*
G01*
X197314085Y-121824646D01*
X197322246Y-121828330D01*
X197325418Y-121836288D01*
X197326346Y-122045102D01*
X197322956Y-122053390D01*
X197322893Y-122053453D01*
X197173768Y-122201645D01*
X197165484Y-122205046D01*
X197158096Y-122202388D01*
X196931112Y-122016010D01*
X196926893Y-122008112D01*
X196926837Y-122006968D01*
X196926837Y-121824572D01*
X196930264Y-121816299D01*
X196938537Y-121812872D01*
X196938871Y-121812877D01*
G37*
%TD.AperFunction*%
%TD*%
%TA.AperFunction,Conductor*%
%TO.N,GND*%
G36*
X165732747Y-119805844D02*
G01*
X166119189Y-120147259D01*
X166123120Y-120155305D01*
X166122536Y-120159745D01*
X165977675Y-120592018D01*
X165971797Y-120598773D01*
X165966581Y-120600000D01*
X165483419Y-120600000D01*
X165475146Y-120596573D01*
X165472325Y-120592018D01*
X165327463Y-120159743D01*
X165328084Y-120150811D01*
X165330807Y-120147262D01*
X165717253Y-119805843D01*
X165725722Y-119802934D01*
X165732747Y-119805844D01*
G37*
%TD.AperFunction*%
%TD*%
%TA.AperFunction,Conductor*%
%TO.N,Net-(J5-In)*%
G36*
X177255637Y-114821716D02*
G01*
X177263894Y-114825180D01*
X177267284Y-114833468D01*
X177267283Y-114833573D01*
X177262424Y-115195509D01*
X177258886Y-115203735D01*
X177250725Y-115207052D01*
X177141725Y-115207052D01*
X177133943Y-115204089D01*
X176892570Y-114989087D01*
X176888671Y-114981025D01*
X176891615Y-114972568D01*
X176892053Y-114972103D01*
X177038990Y-114824241D01*
X177047249Y-114820790D01*
X177255637Y-114821716D01*
G37*
%TD.AperFunction*%
%TD*%
%TA.AperFunction,Conductor*%
%TO.N,/VCasc2!*%
G36*
X188182351Y-114582574D02*
G01*
X188454109Y-114709262D01*
X188460159Y-114715863D01*
X188459982Y-114724325D01*
X188380002Y-114918342D01*
X188373681Y-114924685D01*
X188373618Y-114924711D01*
X188182141Y-115003102D01*
X188173186Y-115003065D01*
X188166880Y-114996707D01*
X188166522Y-114995703D01*
X188044618Y-114596596D01*
X188045479Y-114587682D01*
X188052390Y-114581988D01*
X188055808Y-114581478D01*
X188177407Y-114581478D01*
X188182351Y-114582574D01*
G37*
%TD.AperFunction*%
%TD*%
%TA.AperFunction,Conductor*%
%TO.N,Net-(J14-Pin_4)*%
G36*
X187112177Y-111121508D02*
G01*
X187118354Y-111127738D01*
X187199117Y-111320478D01*
X187199154Y-111329433D01*
X187199117Y-111329522D01*
X187118354Y-111522261D01*
X187111996Y-111528567D01*
X187103223Y-111528604D01*
X186757372Y-111390440D01*
X186750960Y-111384189D01*
X186750012Y-111379575D01*
X186750012Y-111270424D01*
X186753439Y-111262151D01*
X186757369Y-111259560D01*
X187103224Y-111121395D01*
X187112177Y-111121508D01*
G37*
%TD.AperFunction*%
%TD*%
%TA.AperFunction,Conductor*%
%TO.N,Net-(J4-In)*%
G36*
X178491614Y-110776377D02*
G01*
X178497934Y-110782719D01*
X178497919Y-110791674D01*
X178497754Y-110792052D01*
X178361212Y-111090039D01*
X178358848Y-111093438D01*
X178283799Y-111168487D01*
X178275526Y-111171914D01*
X178267253Y-111168487D01*
X178264909Y-111165130D01*
X178172096Y-110964688D01*
X178092156Y-110792048D01*
X178091790Y-110783102D01*
X178097858Y-110776516D01*
X178098214Y-110776358D01*
X178289717Y-110696110D01*
X178298670Y-110696074D01*
X178491614Y-110776377D01*
G37*
%TD.AperFunction*%
%TD*%
%TA.AperFunction,Conductor*%
%TO.N,/blpix*%
G36*
X189126885Y-128078427D02*
G01*
X189128454Y-128080373D01*
X189347573Y-128421224D01*
X189349279Y-128429430D01*
X189011548Y-130505029D01*
X189006837Y-130512644D01*
X188998121Y-130514698D01*
X188990506Y-130509987D01*
X188988452Y-130505029D01*
X188970147Y-130392536D01*
X188650720Y-128429427D01*
X188652425Y-128421227D01*
X188871546Y-128080373D01*
X188878903Y-128075267D01*
X188881388Y-128075000D01*
X189118612Y-128075000D01*
X189126885Y-128078427D01*
G37*
%TD.AperFunction*%
%TD*%
%TA.AperFunction,Conductor*%
%TO.N,/VCasc2!*%
G36*
X189413671Y-61129097D02*
G01*
X189419896Y-61135202D01*
X189993361Y-62442475D01*
X189993547Y-62451428D01*
X189990920Y-62455448D01*
X189824522Y-62621846D01*
X189816249Y-62625273D01*
X189813323Y-62624901D01*
X188317740Y-62238660D01*
X188310587Y-62233274D01*
X188309338Y-62224406D01*
X188309849Y-62222874D01*
X188627438Y-61453783D01*
X188633759Y-61447448D01*
X189404717Y-61129088D01*
X189413671Y-61129097D01*
G37*
%TD.AperFunction*%
%TD*%
%TA.AperFunction,Conductor*%
%TO.N,/SR_ck2*%
G36*
X196201147Y-122185666D02*
G01*
X196610057Y-122276613D01*
X196617389Y-122281754D01*
X196618938Y-122290574D01*
X196618345Y-122292467D01*
X196540350Y-122482977D01*
X196534044Y-122489335D01*
X196533981Y-122489361D01*
X196339321Y-122569606D01*
X196330366Y-122569591D01*
X196324596Y-122564401D01*
X196188343Y-122315123D01*
X196186909Y-122309511D01*
X196186909Y-122197088D01*
X196190336Y-122188815D01*
X196198609Y-122185388D01*
X196201147Y-122185666D01*
G37*
%TD.AperFunction*%
%TD*%
%TA.AperFunction,Conductor*%
%TO.N,GND*%
G36*
X196931673Y-61732303D02*
G01*
X197024896Y-61770967D01*
X197031225Y-61777301D01*
X197031385Y-61785839D01*
X196622119Y-62890278D01*
X196619421Y-62894486D01*
X196278730Y-63235177D01*
X196270457Y-63238604D01*
X196262184Y-63235177D01*
X196260187Y-63232510D01*
X196073366Y-62890278D01*
X195470934Y-61786698D01*
X195469979Y-61777796D01*
X195475599Y-61770824D01*
X195476710Y-61770291D01*
X196244811Y-61451154D01*
X196253760Y-61451146D01*
X196931673Y-61732303D01*
G37*
%TD.AperFunction*%
%TD*%
%TA.AperFunction,Conductor*%
%TO.N,/SPI_MISO0_N*%
G36*
X197954259Y-128064799D02*
G01*
X197955130Y-128065773D01*
X198238863Y-128421212D01*
X198241346Y-128429815D01*
X198010188Y-130491157D01*
X198005861Y-130498997D01*
X197997257Y-130501480D01*
X197989417Y-130497153D01*
X197987014Y-130491736D01*
X197650752Y-128429613D01*
X197652633Y-128421139D01*
X197804932Y-128197866D01*
X197806314Y-128196198D01*
X197937714Y-128064798D01*
X197945986Y-128061372D01*
X197954259Y-128064799D01*
G37*
%TD.AperFunction*%
%TD*%
%TA.AperFunction,Conductor*%
%TO.N,/SR_ck1*%
G36*
X195617238Y-122677325D02*
G01*
X195753272Y-122784683D01*
X195847421Y-122858985D01*
X195851793Y-122866800D01*
X195851873Y-122868169D01*
X195851873Y-123050578D01*
X195848446Y-123058851D01*
X195840173Y-123062278D01*
X195839955Y-123062276D01*
X195461431Y-123055213D01*
X195453223Y-123051632D01*
X195449949Y-123043567D01*
X195449021Y-122834895D01*
X195452410Y-122826611D01*
X195601744Y-122678209D01*
X195610027Y-122674809D01*
X195617238Y-122677325D01*
G37*
%TD.AperFunction*%
%TD*%
%TA.AperFunction,Conductor*%
%TO.N,/vminuspix*%
G36*
X192582902Y-116756240D02*
G01*
X192954071Y-117096310D01*
X192957856Y-117104426D01*
X192957200Y-117108831D01*
X192777755Y-117617194D01*
X192771770Y-117623855D01*
X192766722Y-117625000D01*
X192383278Y-117625000D01*
X192375005Y-117621573D01*
X192372245Y-117617194D01*
X192192799Y-117108831D01*
X192193277Y-117099889D01*
X192195925Y-117096312D01*
X192567097Y-116756240D01*
X192575511Y-116753179D01*
X192582902Y-116756240D01*
G37*
%TD.AperFunction*%
%TD*%
%TA.AperFunction,Conductor*%
%TO.N,Net-(J14-Pin_12)*%
G36*
X198794489Y-61450865D02*
G01*
X199563396Y-61770336D01*
X199569721Y-61776675D01*
X199569712Y-61785630D01*
X199569228Y-61786651D01*
X198845804Y-63141821D01*
X198838885Y-63147505D01*
X198835483Y-63148011D01*
X198724609Y-63148011D01*
X198716336Y-63144584D01*
X198714225Y-63141703D01*
X198443508Y-62620348D01*
X198010572Y-61786587D01*
X198009802Y-61777667D01*
X198015565Y-61770813D01*
X198016460Y-61770395D01*
X198785511Y-61450864D01*
X198794466Y-61450856D01*
X198794489Y-61450865D01*
G37*
%TD.AperFunction*%
%TD*%
%TA.AperFunction,Conductor*%
%TO.N,VDD*%
G36*
X201725318Y-106718240D02*
G01*
X201728447Y-106720664D01*
X202068758Y-107092096D01*
X202071820Y-107100511D01*
X202068758Y-107107904D01*
X201728447Y-107479335D01*
X201720331Y-107483120D01*
X201716404Y-107482621D01*
X201208284Y-107327528D01*
X201201372Y-107321836D01*
X201200000Y-107316338D01*
X201200000Y-106883661D01*
X201203427Y-106875388D01*
X201208282Y-106872471D01*
X201716405Y-106717378D01*
X201725318Y-106718240D01*
G37*
%TD.AperFunction*%
%TD*%
%TA.AperFunction,Conductor*%
%TO.N,/SR_ck1*%
G36*
X205102252Y-128078427D02*
G01*
X205103500Y-128079900D01*
X205347198Y-128421078D01*
X205349225Y-128429757D01*
X205011548Y-130505029D01*
X205006837Y-130512644D01*
X204998121Y-130514698D01*
X204990506Y-130509987D01*
X204988452Y-130505029D01*
X204650774Y-128429757D01*
X204652801Y-128421078D01*
X204896500Y-128079900D01*
X204904098Y-128075159D01*
X204906021Y-128075000D01*
X205093979Y-128075000D01*
X205102252Y-128078427D01*
G37*
%TD.AperFunction*%
%TD*%
%TA.AperFunction,Conductor*%
%TO.N,Net-(J14-Pin_5)*%
G36*
X173531180Y-110493292D02*
G01*
X173537410Y-110499469D01*
X173684266Y-110841720D01*
X173684379Y-110850675D01*
X173681787Y-110854607D01*
X173604607Y-110931787D01*
X173596334Y-110935214D01*
X173591720Y-110934266D01*
X173249469Y-110787410D01*
X173243218Y-110780999D01*
X173243254Y-110772226D01*
X173322435Y-110578829D01*
X173328741Y-110572472D01*
X173328757Y-110572465D01*
X173522226Y-110493255D01*
X173531180Y-110493292D01*
G37*
%TD.AperFunction*%
%TD*%
%TA.AperFunction,Conductor*%
%TO.N,/SPI_MISO1_N*%
G36*
X175954259Y-128064799D02*
G01*
X175955130Y-128065773D01*
X176238863Y-128421212D01*
X176241346Y-128429815D01*
X176010188Y-130491157D01*
X176005861Y-130498997D01*
X175997257Y-130501480D01*
X175989417Y-130497153D01*
X175987014Y-130491736D01*
X175650752Y-128429613D01*
X175652633Y-128421139D01*
X175804932Y-128197866D01*
X175806314Y-128196198D01*
X175937714Y-128064798D01*
X175945986Y-128061372D01*
X175954259Y-128064799D01*
G37*
%TD.AperFunction*%
%TD*%
%TA.AperFunction,Conductor*%
%TO.N,Net-(J14-Pin_1)*%
G36*
X171704359Y-61073362D02*
G01*
X171704563Y-61073839D01*
X172342349Y-62659673D01*
X172342257Y-62668628D01*
X172339767Y-62672312D01*
X172261601Y-62750478D01*
X172253328Y-62753905D01*
X172250342Y-62753517D01*
X170544835Y-62303296D01*
X170537710Y-62297872D01*
X170536509Y-62288998D01*
X170536857Y-62287899D01*
X170847596Y-61453847D01*
X170853696Y-61447291D01*
X170853694Y-61447291D01*
X171688867Y-61067553D01*
X171697815Y-61067249D01*
X171704359Y-61073362D01*
G37*
%TD.AperFunction*%
%TD*%
%TA.AperFunction,Conductor*%
%TO.N,/SPI_MISO0_N*%
G36*
X180616073Y-112418328D02*
G01*
X180619500Y-112426601D01*
X180619500Y-112447304D01*
X180657635Y-112539369D01*
X180657637Y-112539372D01*
X180734441Y-112616176D01*
X180736329Y-112618648D01*
X180810324Y-112748247D01*
X180811450Y-112757131D01*
X180805964Y-112764209D01*
X180804685Y-112764839D01*
X180611201Y-112845914D01*
X180606627Y-112846823D01*
X180396667Y-112845890D01*
X180388409Y-112842426D01*
X180385019Y-112834138D01*
X180385058Y-112833239D01*
X180396254Y-112699194D01*
X180397102Y-112695701D01*
X180420500Y-112639214D01*
X180420500Y-112539558D01*
X180420500Y-112426601D01*
X180423927Y-112418328D01*
X180432200Y-112414901D01*
X180607800Y-112414901D01*
X180616073Y-112418328D01*
G37*
%TD.AperFunction*%
%TD*%
%TA.AperFunction,Conductor*%
%TO.N,/vminuspix*%
G36*
X192249448Y-128078427D02*
G01*
X192252425Y-128083486D01*
X192349282Y-128422487D01*
X192349580Y-128427580D01*
X192011548Y-130505029D01*
X192006837Y-130512644D01*
X191998121Y-130514698D01*
X191990506Y-130509987D01*
X191988452Y-130505029D01*
X191969641Y-130389426D01*
X191650419Y-128427576D01*
X191650716Y-128422491D01*
X191747575Y-128083485D01*
X191753143Y-128076472D01*
X191758825Y-128075000D01*
X192241175Y-128075000D01*
X192249448Y-128078427D01*
G37*
%TD.AperFunction*%
%TD*%
%TA.AperFunction,Conductor*%
%TO.N,/blpix*%
G36*
X200342252Y-102207218D02*
G01*
X200675979Y-102362418D01*
X200682035Y-102369014D01*
X200681873Y-102377460D01*
X200602564Y-102571169D01*
X200596258Y-102577527D01*
X200596169Y-102577564D01*
X200402460Y-102656873D01*
X200393505Y-102656836D01*
X200387418Y-102650979D01*
X200232218Y-102317253D01*
X200231838Y-102308308D01*
X200234553Y-102304050D01*
X200329049Y-102209554D01*
X200337321Y-102206128D01*
X200342252Y-102207218D01*
G37*
%TD.AperFunction*%
%TD*%
%TA.AperFunction,Conductor*%
%TO.N,Net-(J2-Pin_4)*%
G36*
X158885660Y-96065213D02*
G01*
X158886616Y-96065662D01*
X160243745Y-96779211D01*
X160249473Y-96786094D01*
X160250000Y-96789567D01*
X160250000Y-96900432D01*
X160246573Y-96908705D01*
X160243745Y-96910788D01*
X158886616Y-97624337D01*
X158877698Y-97625154D01*
X158870815Y-97619426D01*
X158870371Y-97618481D01*
X158550864Y-96849488D01*
X158550856Y-96840534D01*
X158550865Y-96840511D01*
X158572032Y-96789567D01*
X158870367Y-96071527D01*
X158876705Y-96065204D01*
X158885660Y-96065213D01*
G37*
%TD.AperFunction*%
%TD*%
%TA.AperFunction,Conductor*%
%TO.N,/SPI_MISO0_P*%
G36*
X197043636Y-128056633D02*
G01*
X197044728Y-128057597D01*
X197176150Y-128189019D01*
X197177300Y-128190357D01*
X197347084Y-128421038D01*
X197349228Y-128429732D01*
X197349208Y-128429856D01*
X197012629Y-130493919D01*
X197007916Y-130501533D01*
X196999199Y-130503583D01*
X196991585Y-130498870D01*
X196989466Y-130493426D01*
X196743004Y-128429772D01*
X196745384Y-128421205D01*
X196745514Y-128421038D01*
X197027219Y-128058687D01*
X197035001Y-128054261D01*
X197043636Y-128056633D01*
G37*
%TD.AperFunction*%
%TD*%
%TA.AperFunction,Conductor*%
%TO.N,Net-(J14-Pin_10)*%
G36*
X194493244Y-61129274D02*
G01*
X194499569Y-61135613D01*
X194499647Y-61135807D01*
X195029581Y-62486860D01*
X195029412Y-62495813D01*
X195026962Y-62499405D01*
X194948533Y-62577834D01*
X194940260Y-62581261D01*
X194937718Y-62580981D01*
X194452765Y-62473035D01*
X194450830Y-62472424D01*
X194395488Y-62449500D01*
X194395486Y-62449500D01*
X194348314Y-62449500D01*
X194345772Y-62449220D01*
X193398302Y-62238321D01*
X193390971Y-62233179D01*
X193389424Y-62224359D01*
X193390027Y-62222441D01*
X193707438Y-61453783D01*
X193713759Y-61447448D01*
X194484289Y-61129265D01*
X194493244Y-61129274D01*
G37*
%TD.AperFunction*%
%TD*%
%TA.AperFunction,Conductor*%
%TO.N,/SPI_CLK_N*%
G36*
X182210603Y-112473666D02*
G01*
X182214418Y-112481767D01*
X182214431Y-112482270D01*
X182215366Y-112692676D01*
X182214457Y-112697250D01*
X182133640Y-112890120D01*
X182127282Y-112896426D01*
X182118327Y-112896389D01*
X182116561Y-112895465D01*
X182065042Y-112862631D01*
X182060905Y-112858075D01*
X182057573Y-112851535D01*
X181973465Y-112767427D01*
X181867480Y-112713425D01*
X181821239Y-112706101D01*
X181816781Y-112704412D01*
X181799579Y-112693449D01*
X181794444Y-112686112D01*
X181794167Y-112683582D01*
X181794167Y-112502199D01*
X181797594Y-112493926D01*
X181805865Y-112490499D01*
X181922854Y-112490499D01*
X181960919Y-112482929D01*
X181960925Y-112482924D01*
X181961324Y-112482760D01*
X181965249Y-112481880D01*
X182202176Y-112470635D01*
X182210603Y-112473666D01*
G37*
%TD.AperFunction*%
%TD*%
%TA.AperFunction,Conductor*%
%TO.N,GND*%
G36*
X200408331Y-119091973D02*
G01*
X200916218Y-119222738D01*
X200923375Y-119228119D01*
X200925000Y-119234068D01*
X200925000Y-119715931D01*
X200921573Y-119724204D01*
X200916217Y-119727261D01*
X200408337Y-119858025D01*
X200399471Y-119856770D01*
X200396795Y-119854601D01*
X200056240Y-119482902D01*
X200053179Y-119474489D01*
X200056240Y-119467097D01*
X200396795Y-119095398D01*
X200404909Y-119091615D01*
X200408331Y-119091973D01*
G37*
%TD.AperFunction*%
%TD*%
%TA.AperFunction,Conductor*%
%TO.N,/Clk20_Ext_P*%
G36*
X199061312Y-128063928D02*
G01*
X199062286Y-128064799D01*
X199193680Y-128196193D01*
X199195072Y-128197873D01*
X199347365Y-128421137D01*
X199349247Y-128429613D01*
X199012985Y-130491736D01*
X199008272Y-130499350D01*
X198999555Y-130501400D01*
X198991941Y-130496687D01*
X198989811Y-130491159D01*
X198758654Y-128429815D01*
X198761136Y-128421213D01*
X199044869Y-128065772D01*
X199052709Y-128061445D01*
X199061312Y-128063928D01*
G37*
%TD.AperFunction*%
%TD*%
%TA.AperFunction,Conductor*%
%TO.N,GND*%
G36*
X189608044Y-74010678D02*
G01*
X190445047Y-74601504D01*
X190449830Y-74609074D01*
X190450000Y-74611062D01*
X190450000Y-75098937D01*
X190446573Y-75107210D01*
X190445047Y-75108496D01*
X189608046Y-75699320D01*
X189599311Y-75701291D01*
X189593031Y-75698039D01*
X189002794Y-75108496D01*
X188757286Y-74863276D01*
X188753855Y-74855007D01*
X188757276Y-74846733D01*
X189593032Y-74011959D01*
X189601306Y-74008538D01*
X189608044Y-74010678D01*
G37*
%TD.AperFunction*%
%TD*%
%TA.AperFunction,Conductor*%
%TO.N,/SPI_CLK_P*%
G36*
X183332117Y-117165554D02*
G01*
X183337877Y-117170763D01*
X183379217Y-117246939D01*
X183509741Y-117487455D01*
X183510675Y-117496361D01*
X183507731Y-117501309D01*
X183378663Y-117630377D01*
X183370390Y-117633804D01*
X183364809Y-117632387D01*
X183230558Y-117559531D01*
X183048117Y-117460523D01*
X183042482Y-117453566D01*
X183042870Y-117445810D01*
X183122435Y-117251475D01*
X183128741Y-117245118D01*
X183128757Y-117245111D01*
X183323164Y-117165517D01*
X183332117Y-117165554D01*
G37*
%TD.AperFunction*%
%TD*%
%TA.AperFunction,Conductor*%
%TO.N,GND*%
G36*
X164978787Y-89293617D02*
G01*
X164984810Y-89300113D01*
X165457454Y-90558169D01*
X165457155Y-90567119D01*
X165456603Y-90568186D01*
X165090887Y-91194202D01*
X165083755Y-91199617D01*
X165080785Y-91200000D01*
X164596806Y-91200000D01*
X164588533Y-91196573D01*
X164585406Y-91190933D01*
X164441555Y-90568186D01*
X164419934Y-90474585D01*
X164420722Y-90467027D01*
X164963247Y-89299297D01*
X164969840Y-89293239D01*
X164978787Y-89293617D01*
G37*
%TD.AperFunction*%
%TD*%
%TA.AperFunction,Conductor*%
%TO.N,suba*%
G36*
X174563556Y-113537259D02*
G01*
X174990222Y-113608370D01*
X174997819Y-113613111D01*
X174999998Y-113619911D01*
X174999998Y-113900088D01*
X174996571Y-113908361D01*
X174990221Y-113911629D01*
X174563559Y-113982739D01*
X174554836Y-113980719D01*
X174550095Y-113973121D01*
X174549936Y-113971261D01*
X174548998Y-113760000D01*
X174549936Y-113548746D01*
X174553400Y-113540491D01*
X174561688Y-113537101D01*
X174563556Y-113537259D01*
G37*
%TD.AperFunction*%
%TD*%
%TA.AperFunction,Conductor*%
%TO.N,VSSA*%
G36*
X166405084Y-109045347D02*
G01*
X166408868Y-109048512D01*
X166735401Y-109467811D01*
X166737781Y-109476444D01*
X166735401Y-109482189D01*
X166408868Y-109901487D01*
X166401081Y-109905909D01*
X166396167Y-109905472D01*
X165823230Y-109727555D01*
X165816346Y-109721828D01*
X165815000Y-109716381D01*
X165815000Y-109233618D01*
X165818427Y-109225345D01*
X165823228Y-109222444D01*
X166396167Y-109044527D01*
X166405084Y-109045347D01*
G37*
%TD.AperFunction*%
%TD*%
%TA.AperFunction,Conductor*%
%TO.N,/interrupt*%
G36*
X208681495Y-128114895D02*
G01*
X208813993Y-128244551D01*
X208994885Y-128421563D01*
X208998401Y-128429798D01*
X208998402Y-128429912D01*
X209000695Y-130564787D01*
X208997277Y-130573064D01*
X208989814Y-130576471D01*
X208661905Y-130599472D01*
X208653412Y-130596633D01*
X208649415Y-130588620D01*
X208649401Y-130588388D01*
X208540932Y-128429912D01*
X208532062Y-128253409D01*
X208535069Y-128244977D01*
X208535454Y-128244571D01*
X208665041Y-128114984D01*
X208673313Y-128111558D01*
X208681495Y-128114895D01*
G37*
%TD.AperFunction*%
%TD*%
%TA.AperFunction,Conductor*%
%TO.N,Net-(J12-Pin_2)*%
G36*
X188880672Y-114715354D02*
G01*
X188983099Y-114793493D01*
X189198509Y-114957822D01*
X189203009Y-114965564D01*
X189200715Y-114974220D01*
X189199723Y-114975360D01*
X189054155Y-115122227D01*
X189045897Y-115125691D01*
X189045808Y-115125691D01*
X188835298Y-115125032D01*
X188827036Y-115121579D01*
X188823725Y-115114780D01*
X188784858Y-114803214D01*
X188787234Y-114794581D01*
X188788187Y-114793501D01*
X188865305Y-114716383D01*
X188873577Y-114712957D01*
X188880672Y-114715354D01*
G37*
%TD.AperFunction*%
%TD*%
%TA.AperFunction,Conductor*%
%TO.N,/VCasc2!*%
G36*
X188576943Y-115004163D02*
G01*
X188583249Y-115010521D01*
X188583829Y-115017552D01*
X188505213Y-115362758D01*
X188500035Y-115370064D01*
X188493805Y-115371860D01*
X188262475Y-115371860D01*
X188254202Y-115368433D01*
X188251067Y-115362758D01*
X188172450Y-115017550D01*
X188173954Y-115008724D01*
X188179333Y-115004164D01*
X188373620Y-114922753D01*
X188382571Y-114922717D01*
X188576943Y-115004163D01*
G37*
%TD.AperFunction*%
%TD*%
%TA.AperFunction,Conductor*%
%TO.N,/blpix*%
G36*
X188603127Y-118471341D02*
G01*
X188936854Y-118626541D01*
X188942910Y-118633137D01*
X188942748Y-118641583D01*
X188863439Y-118835292D01*
X188857133Y-118841650D01*
X188857044Y-118841687D01*
X188663335Y-118920996D01*
X188654380Y-118920959D01*
X188648293Y-118915102D01*
X188493093Y-118581376D01*
X188492713Y-118572431D01*
X188495428Y-118568173D01*
X188589924Y-118473677D01*
X188598196Y-118470251D01*
X188603127Y-118471341D01*
G37*
%TD.AperFunction*%
%TD*%
%TA.AperFunction,Conductor*%
%TO.N,Net-(JP4-B)*%
G36*
X183205921Y-78745495D02*
G01*
X183208513Y-78749428D01*
X183346677Y-79095279D01*
X183346564Y-79104233D01*
X183340334Y-79110410D01*
X183147595Y-79191173D01*
X183138640Y-79191210D01*
X183138551Y-79191173D01*
X182945811Y-79110410D01*
X182939505Y-79104052D01*
X182939468Y-79095280D01*
X183077633Y-78749426D01*
X183083884Y-78743016D01*
X183088498Y-78742068D01*
X183197648Y-78742068D01*
X183205921Y-78745495D01*
G37*
%TD.AperFunction*%
%TD*%
%TA.AperFunction,Conductor*%
%TO.N,/hold*%
G36*
X183410360Y-112355929D02*
G01*
X183412952Y-112359862D01*
X183551116Y-112705713D01*
X183551003Y-112714667D01*
X183544773Y-112720844D01*
X183352034Y-112801607D01*
X183343079Y-112801644D01*
X183342990Y-112801607D01*
X183150250Y-112720844D01*
X183143944Y-112714486D01*
X183143907Y-112705714D01*
X183282072Y-112359860D01*
X183288323Y-112353450D01*
X183292937Y-112352502D01*
X183402087Y-112352502D01*
X183410360Y-112355929D01*
G37*
%TD.AperFunction*%
%TD*%
%TA.AperFunction,Conductor*%
%TO.N,/interrupt*%
G36*
X201729644Y-105071970D02*
G01*
X202068758Y-105442096D01*
X202071820Y-105450511D01*
X202068758Y-105457904D01*
X201729644Y-105828029D01*
X201721528Y-105831814D01*
X201715426Y-105830403D01*
X201206109Y-105553323D01*
X201200479Y-105546359D01*
X201200000Y-105543045D01*
X201200000Y-105356954D01*
X201203427Y-105348681D01*
X201206106Y-105346678D01*
X201715426Y-105069595D01*
X201724331Y-105068653D01*
X201729644Y-105071970D01*
G37*
%TD.AperFunction*%
%TD*%
%TA.AperFunction,Conductor*%
%TO.N,/ThPix*%
G36*
X190198803Y-127232309D02*
G01*
X190205109Y-127238667D01*
X190205689Y-127245698D01*
X190127073Y-127590904D01*
X190121895Y-127598210D01*
X190115665Y-127600006D01*
X189884335Y-127600006D01*
X189876062Y-127596579D01*
X189872927Y-127590904D01*
X189794310Y-127245696D01*
X189795814Y-127236870D01*
X189801193Y-127232310D01*
X189995480Y-127150899D01*
X190004431Y-127150863D01*
X190198803Y-127232309D01*
G37*
%TD.AperFunction*%
%TD*%
%TA.AperFunction,Conductor*%
%TO.N,/interrupt*%
G36*
X203927397Y-105132919D02*
G01*
X203929727Y-105134721D01*
X204348711Y-105553213D01*
X204766353Y-105970364D01*
X204769785Y-105978635D01*
X204766363Y-105986910D01*
X204765012Y-105988071D01*
X203934018Y-106598524D01*
X203925321Y-106600660D01*
X203917980Y-106596435D01*
X203077589Y-105553213D01*
X203075000Y-105545873D01*
X203075000Y-105359057D01*
X203078427Y-105350784D01*
X203083765Y-105347731D01*
X203918531Y-105131674D01*
X203927397Y-105132919D01*
G37*
%TD.AperFunction*%
%TD*%
%TA.AperFunction,Conductor*%
%TO.N,suba*%
G36*
X167939882Y-90703427D02*
G01*
X167941008Y-90704733D01*
X168405617Y-91331501D01*
X168407791Y-91340188D01*
X168407171Y-91342583D01*
X167934810Y-92599886D01*
X167928692Y-92606425D01*
X167919742Y-92606724D01*
X167913246Y-92600701D01*
X167371077Y-91433737D01*
X167370700Y-91424791D01*
X167634681Y-90707657D01*
X167640755Y-90701078D01*
X167645661Y-90700000D01*
X167931609Y-90700000D01*
X167939882Y-90703427D01*
G37*
%TD.AperFunction*%
%TD*%
%TA.AperFunction,Conductor*%
%TO.N,/SR_ck1*%
G36*
X195142280Y-122468711D02*
G01*
X195525013Y-122617806D01*
X195531478Y-122624002D01*
X195531668Y-122632955D01*
X195531594Y-122633141D01*
X195452851Y-122825478D01*
X195446545Y-122831836D01*
X195446482Y-122831862D01*
X195253523Y-122911405D01*
X195244568Y-122911390D01*
X195238247Y-122905047D01*
X195238036Y-122904495D01*
X195127000Y-122589387D01*
X195126335Y-122585499D01*
X195126335Y-122479614D01*
X195129762Y-122471341D01*
X195138035Y-122467914D01*
X195142280Y-122468711D01*
G37*
%TD.AperFunction*%
%TD*%
%TA.AperFunction,Conductor*%
%TO.N,/ThPix*%
G36*
X187116326Y-112321004D02*
G01*
X187122632Y-112327362D01*
X187123174Y-112334554D01*
X187042169Y-112668408D01*
X187036888Y-112675640D01*
X187030799Y-112677349D01*
X186922201Y-112677349D01*
X186913928Y-112673922D01*
X186910501Y-112665649D01*
X186910501Y-112597647D01*
X186910500Y-112597643D01*
X186877061Y-112516916D01*
X186877060Y-112516913D01*
X186876169Y-112514762D01*
X186812072Y-112450666D01*
X186812065Y-112450660D01*
X186741820Y-112380415D01*
X186739920Y-112377920D01*
X186716297Y-112336330D01*
X186715190Y-112327444D01*
X186720692Y-112320379D01*
X186721938Y-112319765D01*
X186913134Y-112239649D01*
X186922085Y-112239613D01*
X187116326Y-112321004D01*
G37*
%TD.AperFunction*%
%TD*%
%TA.AperFunction,Conductor*%
%TO.N,/interrupt*%
G36*
X196412319Y-105187803D02*
G01*
X196412802Y-105188019D01*
X196747153Y-105346827D01*
X196753156Y-105353471D01*
X196753833Y-105357395D01*
X196753833Y-105539922D01*
X196750406Y-105548195D01*
X196743866Y-105551493D01*
X196329012Y-105613636D01*
X196320323Y-105611472D01*
X196315708Y-105603798D01*
X196315579Y-105602129D01*
X196314650Y-105393016D01*
X196315558Y-105388448D01*
X196397007Y-105194070D01*
X196403364Y-105187766D01*
X196412319Y-105187803D01*
G37*
%TD.AperFunction*%
%TD*%
%TA.AperFunction,Conductor*%
%TO.N,/SR_out_CK1*%
G36*
X173102252Y-128078427D02*
G01*
X173103500Y-128079900D01*
X173347198Y-128421078D01*
X173349225Y-128429757D01*
X173011548Y-130505029D01*
X173006837Y-130512644D01*
X172998121Y-130514698D01*
X172990506Y-130509987D01*
X172988452Y-130505029D01*
X172650774Y-128429757D01*
X172652801Y-128421078D01*
X172896500Y-128079900D01*
X172904098Y-128075159D01*
X172906021Y-128075000D01*
X173093979Y-128075000D01*
X173102252Y-128078427D01*
G37*
%TD.AperFunction*%
%TD*%
%TA.AperFunction,Conductor*%
%TO.N,Net-(J5-In)*%
G36*
X166084766Y-117770290D02*
G01*
X166088112Y-117772350D01*
X166594434Y-118084073D01*
X166599682Y-118091328D01*
X166600000Y-118094036D01*
X166600000Y-118205963D01*
X166596573Y-118214236D01*
X166594434Y-118215926D01*
X166084768Y-118529708D01*
X166075926Y-118531127D01*
X166070007Y-118527649D01*
X165784402Y-118215926D01*
X165731240Y-118157902D01*
X165728179Y-118149489D01*
X165731240Y-118142097D01*
X166070008Y-117772349D01*
X166078123Y-117768565D01*
X166084766Y-117770290D01*
G37*
%TD.AperFunction*%
%TD*%
%TA.AperFunction,Conductor*%
%TO.N,Net-(JP4-B)*%
G36*
X176779607Y-111118212D02*
G01*
X176856787Y-111195392D01*
X176860214Y-111203665D01*
X176859266Y-111208279D01*
X176712410Y-111550530D01*
X176705999Y-111556781D01*
X176697225Y-111556744D01*
X176503830Y-111477564D01*
X176497472Y-111471258D01*
X176497435Y-111471169D01*
X176418255Y-111277774D01*
X176418292Y-111268819D01*
X176424466Y-111262591D01*
X176766720Y-111115732D01*
X176775675Y-111115620D01*
X176779607Y-111118212D01*
G37*
%TD.AperFunction*%
%TD*%
%TA.AperFunction,Conductor*%
%TO.N,/SPI_right_MOSI*%
G36*
X196393221Y-115772139D02*
G01*
X196586688Y-115855065D01*
X196735100Y-115918679D01*
X196741354Y-115925088D01*
X196741319Y-115933866D01*
X196662141Y-116127256D01*
X196655835Y-116133614D01*
X196655746Y-116133651D01*
X196462231Y-116212880D01*
X196453276Y-116212843D01*
X196447099Y-116206788D01*
X196411896Y-116127256D01*
X196369228Y-116030859D01*
X196297267Y-115868278D01*
X196297052Y-115859325D01*
X196299691Y-115855271D01*
X196380342Y-115774620D01*
X196388614Y-115771194D01*
X196393221Y-115772139D01*
G37*
%TD.AperFunction*%
%TD*%
%TA.AperFunction,Conductor*%
%TO.N,GND*%
G36*
X166405084Y-110595347D02*
G01*
X166408868Y-110598512D01*
X166735401Y-111017811D01*
X166737781Y-111026444D01*
X166735401Y-111032189D01*
X166408868Y-111451487D01*
X166401081Y-111455909D01*
X166396167Y-111455472D01*
X165823230Y-111277555D01*
X165816346Y-111271828D01*
X165815000Y-111266381D01*
X165815000Y-110783618D01*
X165818427Y-110775345D01*
X165823228Y-110772444D01*
X166396167Y-110594527D01*
X166405084Y-110595347D01*
G37*
%TD.AperFunction*%
%TD*%
%TA.AperFunction,Conductor*%
%TO.N,/SR_load*%
G36*
X209606490Y-128114656D02*
G01*
X209871294Y-128366277D01*
X209929610Y-128421689D01*
X209933245Y-128429803D01*
X210000359Y-130564645D01*
X209997194Y-130573022D01*
X209989683Y-130576669D01*
X209661718Y-130605301D01*
X209653178Y-130602606D01*
X209649044Y-130594664D01*
X209500539Y-128782061D01*
X209500500Y-128781106D01*
X209500500Y-128410180D01*
X209491767Y-128366278D01*
X209464623Y-128325654D01*
X209462691Y-128320113D01*
X209457244Y-128253620D01*
X209459984Y-128245096D01*
X209460620Y-128244405D01*
X209590160Y-128114865D01*
X209598432Y-128111439D01*
X209606490Y-128114656D01*
G37*
%TD.AperFunction*%
%TD*%
%TA.AperFunction,Conductor*%
%TO.N,/SPI_MISO0_P*%
G36*
X179999231Y-112635641D02*
G01*
X180000948Y-112637059D01*
X180129385Y-112765496D01*
X180132756Y-112772627D01*
X180163324Y-113084388D01*
X180160721Y-113092956D01*
X180152822Y-113097174D01*
X180151717Y-113097230D01*
X179943771Y-113097881D01*
X179935487Y-113094480D01*
X179935424Y-113094417D01*
X179787249Y-112944919D01*
X179783859Y-112936631D01*
X179785867Y-112930130D01*
X179982986Y-112638774D01*
X179990459Y-112633844D01*
X179999231Y-112635641D01*
G37*
%TD.AperFunction*%
%TD*%
%TA.AperFunction,Conductor*%
%TO.N,Net-(J14-Pin_3)*%
G36*
X176713244Y-61129274D02*
G01*
X176719569Y-61135613D01*
X176719647Y-61135807D01*
X177249581Y-62486860D01*
X177249412Y-62495813D01*
X177246962Y-62499405D01*
X177168533Y-62577834D01*
X177160260Y-62581261D01*
X177157718Y-62580981D01*
X175618302Y-62238321D01*
X175610971Y-62233179D01*
X175609424Y-62224359D01*
X175610027Y-62222441D01*
X175927438Y-61453783D01*
X175933759Y-61447448D01*
X176704289Y-61129265D01*
X176713244Y-61129274D01*
G37*
%TD.AperFunction*%
%TD*%
%TA.AperFunction,Conductor*%
%TO.N,/timestamp_clk*%
G36*
X182142397Y-110868203D02*
G01*
X182145793Y-110875623D01*
X182174086Y-111262502D01*
X182171272Y-111271003D01*
X182163270Y-111275024D01*
X182162469Y-111275055D01*
X181954897Y-111275978D01*
X181946609Y-111272588D01*
X181866598Y-111192074D01*
X181798316Y-111123362D01*
X181794915Y-111115078D01*
X181797535Y-111107738D01*
X181991488Y-110869096D01*
X181999365Y-110864838D01*
X182000567Y-110864776D01*
X182134124Y-110864776D01*
X182142397Y-110868203D01*
G37*
%TD.AperFunction*%
%TD*%
%TA.AperFunction,Conductor*%
%TO.N,/hold*%
G36*
X204102252Y-128078427D02*
G01*
X204103500Y-128079900D01*
X204347198Y-128421078D01*
X204349225Y-128429757D01*
X204011548Y-130505029D01*
X204006837Y-130512644D01*
X203998121Y-130514698D01*
X203990506Y-130509987D01*
X203988452Y-130505029D01*
X203650774Y-128429757D01*
X203652801Y-128421078D01*
X203896500Y-128079900D01*
X203904098Y-128075159D01*
X203906021Y-128075000D01*
X204093979Y-128075000D01*
X204102252Y-128078427D01*
G37*
%TD.AperFunction*%
%TD*%
%TA.AperFunction,Conductor*%
%TO.N,/Enable_SPI_diff*%
G36*
X178121976Y-115048383D02*
G01*
X178124387Y-115050236D01*
X178200141Y-115125990D01*
X178202891Y-115130340D01*
X178303424Y-115412850D01*
X178302969Y-115421794D01*
X178296897Y-115427575D01*
X178103078Y-115508243D01*
X178094123Y-115508258D01*
X178094060Y-115508232D01*
X177903669Y-115428451D01*
X177897363Y-115422093D01*
X177897400Y-115413138D01*
X177898061Y-115411805D01*
X178105990Y-115052645D01*
X178113099Y-115047204D01*
X178121976Y-115048383D01*
G37*
%TD.AperFunction*%
%TD*%
%TA.AperFunction,Conductor*%
%TO.N,/SPI_MOSI_P*%
G36*
X177078987Y-128071225D02*
G01*
X177079843Y-128072001D01*
X177211187Y-128203345D01*
X177212837Y-128205419D01*
X177347667Y-128421265D01*
X177349291Y-128429347D01*
X177013362Y-130489424D01*
X177008649Y-130497038D01*
X176999932Y-130499088D01*
X176992318Y-130494375D01*
X176990180Y-130488763D01*
X176774377Y-128429858D01*
X176776923Y-128421273D01*
X177062522Y-128072856D01*
X177070416Y-128068631D01*
X177078987Y-128071225D01*
G37*
%TD.AperFunction*%
%TD*%
%TA.AperFunction,Conductor*%
%TO.N,/ThPix*%
G36*
X189789159Y-118663897D02*
G01*
X190098798Y-118907787D01*
X190103176Y-118915598D01*
X190100749Y-118924218D01*
X190099868Y-118925214D01*
X189954155Y-119072227D01*
X189945897Y-119075691D01*
X189945808Y-119075691D01*
X189735571Y-119075033D01*
X189727309Y-119071580D01*
X189723964Y-119064480D01*
X189693149Y-118751360D01*
X189695749Y-118742794D01*
X189696510Y-118741954D01*
X189773649Y-118664815D01*
X189781921Y-118661389D01*
X189789159Y-118663897D01*
G37*
%TD.AperFunction*%
%TD*%
%TA.AperFunction,Conductor*%
%TO.N,suba*%
G36*
X167928208Y-92642080D02*
G01*
X167933684Y-92648170D01*
X168424065Y-93894883D01*
X168423904Y-93903837D01*
X168421705Y-93907176D01*
X168108044Y-94241105D01*
X168107789Y-94241368D01*
X167558104Y-94791053D01*
X167549831Y-94794480D01*
X167541558Y-94791053D01*
X167538311Y-94784827D01*
X167441725Y-94241237D01*
X167350697Y-93728923D01*
X167351844Y-93721465D01*
X167912425Y-92647039D01*
X167919288Y-92641291D01*
X167928208Y-92642080D01*
G37*
%TD.AperFunction*%
%TD*%
%TA.AperFunction,Conductor*%
%TO.N,GND*%
G36*
X166246073Y-128078427D02*
G01*
X166249500Y-128086700D01*
X166249500Y-129041699D01*
X166249348Y-129043578D01*
X166011547Y-130505029D01*
X166006836Y-130512644D01*
X165998120Y-130514698D01*
X165990505Y-130509987D01*
X165988452Y-130505032D01*
X165650419Y-128427576D01*
X165650716Y-128422491D01*
X165747575Y-128083485D01*
X165753143Y-128076472D01*
X165758825Y-128075000D01*
X166237800Y-128075000D01*
X166246073Y-128078427D01*
G37*
%TD.AperFunction*%
%TD*%
%TA.AperFunction,Conductor*%
%TO.N,Net-(J1-In)*%
G36*
X187737658Y-114055416D02*
G01*
X187740343Y-114059590D01*
X187868930Y-114403355D01*
X187868619Y-114412304D01*
X187862494Y-114418245D01*
X187669522Y-114499105D01*
X187660567Y-114499142D01*
X187660478Y-114499105D01*
X187468012Y-114418457D01*
X187461706Y-114412099D01*
X187461743Y-114403144D01*
X187461783Y-114403050D01*
X187609459Y-114059073D01*
X187615872Y-114052823D01*
X187620210Y-114051989D01*
X187729385Y-114051989D01*
X187737658Y-114055416D01*
G37*
%TD.AperFunction*%
%TD*%
%TA.AperFunction,Conductor*%
%TO.N,/interrupt*%
G36*
X203936052Y-105632483D02*
G01*
X204045694Y-105677769D01*
X204771216Y-105977438D01*
X204777553Y-105983763D01*
X204777562Y-105983784D01*
X205122516Y-106818947D01*
X205122507Y-106827902D01*
X205116169Y-106834228D01*
X205115932Y-106834323D01*
X203401780Y-107498994D01*
X203392827Y-107498790D01*
X203389277Y-107496358D01*
X203258641Y-107365722D01*
X203255214Y-107357449D01*
X203256003Y-107353225D01*
X203920677Y-105639065D01*
X203926862Y-105632592D01*
X203935815Y-105632388D01*
X203936052Y-105632483D01*
G37*
%TD.AperFunction*%
%TD*%
%TA.AperFunction,Conductor*%
%TO.N,/SR_sin*%
G36*
X207059593Y-128021597D02*
G01*
X207060986Y-128023278D01*
X207331983Y-128420782D01*
X207332255Y-128421180D01*
X207334149Y-128429567D01*
X207011988Y-130503094D01*
X207007332Y-130510743D01*
X206998631Y-130512859D01*
X206990982Y-130508203D01*
X206988880Y-130503181D01*
X206988866Y-130503094D01*
X206650941Y-128430773D01*
X206652991Y-128422059D01*
X206654046Y-128420792D01*
X206911584Y-128153061D01*
X206911642Y-128153003D01*
X207043048Y-128021596D01*
X207051320Y-128018170D01*
X207059593Y-128021597D01*
G37*
%TD.AperFunction*%
%TD*%
%TA.AperFunction,Conductor*%
%TO.N,Net-(U2A-VGateComp!)*%
G36*
X176485139Y-114375572D02*
G01*
X176651302Y-114541735D01*
X176654729Y-114550008D01*
X176654729Y-114550077D01*
X176650085Y-115333762D01*
X176646609Y-115342015D01*
X176638316Y-115345393D01*
X176635912Y-115345129D01*
X176204219Y-115251772D01*
X176196857Y-115246674D01*
X176196682Y-115246393D01*
X175923748Y-114795368D01*
X175922397Y-114786516D01*
X175926758Y-114779937D01*
X176469870Y-114374469D01*
X176478546Y-114372266D01*
X176485139Y-114375572D01*
G37*
%TD.AperFunction*%
%TD*%
%TA.AperFunction,Conductor*%
%TO.N,/SPI_CSN_P*%
G36*
X179167372Y-128107761D02*
G01*
X179167641Y-128108022D01*
X179298306Y-128238687D01*
X179301332Y-128243923D01*
X179349346Y-128422567D01*
X179349594Y-128427487D01*
X179015651Y-130475386D01*
X179010938Y-130483000D01*
X179002221Y-130485050D01*
X178994607Y-130480337D01*
X178992432Y-130474296D01*
X178854132Y-128430078D01*
X178856992Y-128421594D01*
X178857231Y-128421330D01*
X179150835Y-128108290D01*
X179158993Y-128104601D01*
X179167372Y-128107761D01*
G37*
%TD.AperFunction*%
%TD*%
%TA.AperFunction,Conductor*%
%TO.N,VDDA*%
G36*
X162249448Y-128078427D02*
G01*
X162252425Y-128083486D01*
X162349282Y-128422487D01*
X162349580Y-128427580D01*
X162011548Y-130505029D01*
X162006837Y-130512644D01*
X161998121Y-130514698D01*
X161990506Y-130509987D01*
X161988452Y-130505029D01*
X161969641Y-130389426D01*
X161650419Y-128427576D01*
X161650716Y-128422491D01*
X161747575Y-128083485D01*
X161753143Y-128076472D01*
X161758825Y-128075000D01*
X162241175Y-128075000D01*
X162249448Y-128078427D01*
G37*
%TD.AperFunction*%
%TD*%
%TA.AperFunction,Conductor*%
%TO.N,/Inj*%
G36*
X189487848Y-119103427D02*
G01*
X189490440Y-119107360D01*
X189628604Y-119453211D01*
X189628491Y-119462165D01*
X189622261Y-119468342D01*
X189429522Y-119549105D01*
X189420567Y-119549142D01*
X189420478Y-119549105D01*
X189227738Y-119468342D01*
X189221432Y-119461984D01*
X189221395Y-119453212D01*
X189359560Y-119107358D01*
X189365811Y-119100948D01*
X189370425Y-119100000D01*
X189479575Y-119100000D01*
X189487848Y-119103427D01*
G37*
%TD.AperFunction*%
%TD*%
%TA.AperFunction,Conductor*%
%TO.N,/SPI_right_CLK*%
G36*
X197149645Y-115855652D02*
G01*
X197509324Y-115975668D01*
X197516087Y-115981537D01*
X197516719Y-115990469D01*
X197516449Y-115991199D01*
X197437648Y-116183669D01*
X197431342Y-116190027D01*
X197431253Y-116190064D01*
X197236963Y-116269610D01*
X197228008Y-116269573D01*
X197222223Y-116264318D01*
X197054977Y-115952946D01*
X197054082Y-115944037D01*
X197057010Y-115939140D01*
X197137673Y-115858477D01*
X197145945Y-115855051D01*
X197149645Y-115855652D01*
G37*
%TD.AperFunction*%
%TD*%
%TA.AperFunction,Conductor*%
%TO.N,Net-(J1-In)*%
G36*
X201170721Y-117763815D02*
G01*
X201514535Y-117798935D01*
X201522417Y-117803184D01*
X201525046Y-117810522D01*
X201525978Y-118020106D01*
X201522588Y-118028394D01*
X201522525Y-118028457D01*
X201375751Y-118174314D01*
X201367467Y-118177715D01*
X201359205Y-118174262D01*
X201357926Y-118172734D01*
X201159966Y-117890525D01*
X201157844Y-117883806D01*
X201157844Y-117775455D01*
X201161271Y-117767182D01*
X201169544Y-117763755D01*
X201170721Y-117763815D01*
G37*
%TD.AperFunction*%
%TD*%
%TA.AperFunction,Conductor*%
%TO.N,VSSA*%
G36*
X167083832Y-109044527D02*
G01*
X167096665Y-109048512D01*
X167656770Y-109222444D01*
X167663654Y-109228171D01*
X167665000Y-109233618D01*
X167665000Y-109716381D01*
X167661573Y-109724654D01*
X167656770Y-109727555D01*
X167083832Y-109905472D01*
X167074915Y-109904652D01*
X167071131Y-109901487D01*
X166926978Y-109716381D01*
X166744597Y-109482188D01*
X166742218Y-109473556D01*
X166744597Y-109467812D01*
X167071132Y-109048511D01*
X167078918Y-109044090D01*
X167083832Y-109044527D01*
G37*
%TD.AperFunction*%
%TD*%
M02*
