%TF.GenerationSoftware,KiCad,Pcbnew,8.0.6*%
%TF.CreationDate,2026-07-15T12:09:55+02:00*%
%TF.ProjectId,astropix_v5,61737472-6f70-4697-985f-76352e6b6963,rev?*%
%TF.SameCoordinates,Original*%
%TF.FileFunction,Soldermask,Top*%
%TF.FilePolarity,Negative*%
%FSLAX46Y46*%
G04 Gerber Fmt 4.6, Leading zero omitted, Abs format (unit mm)*
G04 Created by KiCad (PCBNEW 8.0.6) date 2026-07-15 12:09:55*
%MOMM*%
%LPD*%
G01*
G04 APERTURE LIST*
G04 Aperture macros list*
%AMRoundRect*
0 Rectangle with rounded corners*
0 $1 Rounding radius*
0 $2 $3 $4 $5 $6 $7 $8 $9 X,Y pos of 4 corners*
0 Add a 4 corners polygon primitive as box body*
4,1,4,$2,$3,$4,$5,$6,$7,$8,$9,$2,$3,0*
0 Add four circle primitives for the rounded corners*
1,1,$1+$1,$2,$3*
1,1,$1+$1,$4,$5*
1,1,$1+$1,$6,$7*
1,1,$1+$1,$8,$9*
0 Add four rect primitives between the rounded corners*
20,1,$1+$1,$2,$3,$4,$5,0*
20,1,$1+$1,$4,$5,$6,$7,0*
20,1,$1+$1,$6,$7,$8,$9,0*
20,1,$1+$1,$8,$9,$2,$3,0*%
G04 Aperture macros list end*
%ADD10C,0.120000*%
%ADD11C,0.475000*%
%ADD12C,0.100000*%
%ADD13C,2.250000*%
%ADD14C,3.200000*%
%ADD15RoundRect,0.225000X0.250000X-0.225000X0.250000X0.225000X-0.250000X0.225000X-0.250000X-0.225000X0*%
%ADD16R,1.700000X1.700000*%
%ADD17O,1.700000X1.700000*%
%ADD18C,2.000000*%
%ADD19RoundRect,0.225000X-0.250000X0.225000X-0.250000X-0.225000X0.250000X-0.225000X0.250000X0.225000X0*%
%ADD20RoundRect,0.200000X-0.275000X0.200000X-0.275000X-0.200000X0.275000X-0.200000X0.275000X0.200000X0*%
%ADD21R,0.125000X0.600000*%
%ADD22R,19.480000X0.400000*%
%ADD23R,0.600000X0.125000*%
%ADD24RoundRect,0.250000X-0.325000X-1.100000X0.325000X-1.100000X0.325000X1.100000X-0.325000X1.100000X0*%
%ADD25RoundRect,0.200000X-0.200000X-0.275000X0.200000X-0.275000X0.200000X0.275000X-0.200000X0.275000X0*%
%ADD26R,0.700000X4.300000*%
%ADD27C,3.100000*%
%ADD28RoundRect,0.225000X-0.225000X-0.250000X0.225000X-0.250000X0.225000X0.250000X-0.225000X0.250000X0*%
G04 APERTURE END LIST*
%TO.C,U2*%
D10*
X171044000Y-103260000D02*
X172936000Y-103260000D01*
X172936000Y-104772500D01*
X171044000Y-104772500D01*
X171044000Y-103260000D01*
G36*
X171044000Y-103260000D02*
G01*
X172936000Y-103260000D01*
X172936000Y-104772500D01*
X171044000Y-104772500D01*
X171044000Y-103260000D01*
G37*
X171044000Y-104772500D02*
X172936000Y-104772500D01*
X172936000Y-106655000D01*
X171044000Y-106655000D01*
X171044000Y-104772500D01*
G36*
X171044000Y-104772500D02*
G01*
X172936000Y-104772500D01*
X172936000Y-106655000D01*
X171044000Y-106655000D01*
X171044000Y-104772500D01*
G37*
D11*
X171587500Y-112920000D02*
G75*
G02*
X171112500Y-112920000I-237500J0D01*
G01*
X171112500Y-112920000D02*
G75*
G02*
X171587500Y-112920000I237500J0D01*
G01*
X172072500Y-93820000D02*
G75*
G02*
X171597500Y-93820000I-237500J0D01*
G01*
X171597500Y-93820000D02*
G75*
G02*
X172072500Y-93820000I237500J0D01*
G01*
X197307500Y-98130000D02*
G75*
G02*
X196832500Y-98130000I-237500J0D01*
G01*
X196832500Y-98130000D02*
G75*
G02*
X197307500Y-98130000I237500J0D01*
G01*
D12*
X195842291Y-114365917D02*
X172972291Y-114239263D01*
X172950291Y-85369263D01*
X195870000Y-85362325D01*
X195842291Y-114365917D01*
G36*
X195842291Y-114365917D02*
G01*
X172972291Y-114239263D01*
X172950291Y-85369263D01*
X195870000Y-85362325D01*
X195842291Y-114365917D01*
G37*
%TD*%
D13*
%TO.C,J4*%
X207285000Y-77415000D03*
X209825000Y-74875000D03*
X204745000Y-74875000D03*
X209825000Y-79955000D03*
X204745000Y-79955000D03*
%TD*%
D14*
%TO.C,H5*%
X169925000Y-121425000D03*
%TD*%
D15*
%TO.C,C2*%
X163840000Y-106675000D03*
X163840000Y-105125000D03*
%TD*%
D16*
%TO.C,JP5*%
X178980000Y-74855000D03*
D17*
X178980000Y-77395000D03*
%TD*%
D18*
%TO.C,FID4*%
X207500000Y-64125000D03*
%TD*%
D16*
%TO.C,J14*%
X170850000Y-61450000D03*
D17*
X173390000Y-61450000D03*
X175930000Y-61450000D03*
X178470000Y-61450000D03*
X181010000Y-61450000D03*
X183550000Y-61450000D03*
X186090000Y-61450000D03*
X188630000Y-61450000D03*
X191170000Y-61450000D03*
X193710000Y-61450000D03*
X196250000Y-61450000D03*
X198790000Y-61450000D03*
%TD*%
D19*
%TO.C,C9*%
X168250000Y-109475000D03*
X168250000Y-111025000D03*
%TD*%
D15*
%TO.C,C4*%
X165350000Y-106675000D03*
X165350000Y-105125000D03*
%TD*%
D20*
%TO.C,R4*%
X202075000Y-105450000D03*
X202075000Y-107100000D03*
%TD*%
%TO.C,R2*%
X200050000Y-117825000D03*
X200050000Y-119475000D03*
%TD*%
D21*
%TO.C,U2*%
X175470000Y-112050000D03*
X175510000Y-113760000D03*
X176440000Y-113770000D03*
X177320000Y-112000000D03*
X177750000Y-110640000D03*
X177710000Y-113710000D03*
X178410000Y-112020000D03*
X179070000Y-110640000D03*
X178240000Y-113670000D03*
X179170000Y-111990000D03*
X179730000Y-110640000D03*
X179180000Y-113730000D03*
X179620000Y-113730000D03*
X180372500Y-110640000D03*
X180720000Y-110640000D03*
X180187500Y-113750000D03*
X180550000Y-113750000D03*
X180870000Y-112040000D03*
X181265000Y-112060000D03*
X181100000Y-113750000D03*
X181530000Y-113730000D03*
X181847500Y-112060000D03*
X182070000Y-110640000D03*
X181960000Y-113720000D03*
X182440000Y-113710000D03*
X182700000Y-110640000D03*
X182820000Y-112060000D03*
X182920000Y-113730000D03*
X183290000Y-110640000D03*
X183550000Y-113750000D03*
X183640000Y-112040000D03*
X183790000Y-110640000D03*
X184227500Y-113770000D03*
X184270000Y-111980000D03*
X184340000Y-110640000D03*
X184920000Y-113800000D03*
X184842500Y-112060000D03*
X185312500Y-112060000D03*
X185330000Y-110640000D03*
X185900000Y-113720000D03*
X185900000Y-112060000D03*
X186330000Y-112050000D03*
X186972500Y-113710000D03*
X187560000Y-113710000D03*
X187430000Y-112060000D03*
X187260000Y-110640000D03*
X188110000Y-112060000D03*
X188710000Y-112060000D03*
X188380000Y-110640000D03*
X189430000Y-113730000D03*
X189620000Y-112060000D03*
X190190000Y-112060000D03*
X190100000Y-110640000D03*
X191570000Y-113730000D03*
D22*
X184090000Y-109850000D03*
D23*
X172370000Y-105630000D03*
X171360000Y-105797500D03*
X172380000Y-106010000D03*
X171360000Y-106222500D03*
X172390000Y-106420000D03*
X172360000Y-104430000D03*
X171360000Y-104242500D03*
X172380000Y-104040000D03*
X171410000Y-103670000D03*
X172390000Y-103400000D03*
D21*
X194020000Y-112070000D03*
X193500000Y-110680000D03*
X193300000Y-112070000D03*
X192790000Y-110640000D03*
X192537500Y-112060000D03*
D22*
X184090000Y-107825000D03*
X184090000Y-107150000D03*
X184090000Y-108500000D03*
%TD*%
D20*
%TO.C,R3*%
X165725000Y-118150000D03*
X165725000Y-119800000D03*
%TD*%
D16*
%TO.C,JP3*%
X188750000Y-74855000D03*
D17*
X188750000Y-77395000D03*
X188750000Y-79935000D03*
%TD*%
D24*
%TO.C,C15*%
X164975000Y-89275000D03*
X167925000Y-89275000D03*
%TD*%
D13*
%TO.C,J7*%
X160460000Y-77540000D03*
X157920000Y-80080000D03*
X163000000Y-80080000D03*
X157920000Y-75000000D03*
X163000000Y-75000000D03*
%TD*%
D18*
%TO.C,FID3*%
X170775000Y-69725000D03*
%TD*%
D16*
%TO.C,J2*%
X158550000Y-89225000D03*
D17*
X158550000Y-91765000D03*
X158550000Y-94305000D03*
X158550000Y-96845000D03*
X158550000Y-99385000D03*
%TD*%
D19*
%TO.C,C13*%
X201010000Y-110475000D03*
X201010000Y-112025000D03*
%TD*%
%TO.C,C11*%
X166740000Y-109475000D03*
X166740000Y-111025000D03*
%TD*%
D25*
%TO.C,R1*%
X166025000Y-85700000D03*
X167675000Y-85700000D03*
%TD*%
D26*
%TO.C,J3*%
X156000000Y-130575000D03*
X157000000Y-130575000D03*
X158000000Y-130575000D03*
X159000000Y-130575000D03*
X160000000Y-130575000D03*
X161000000Y-130575000D03*
X162000000Y-130575000D03*
X163000000Y-130575000D03*
X164000000Y-130575000D03*
X165000000Y-130575000D03*
X166000000Y-130575000D03*
X169000000Y-130575000D03*
X170000000Y-130575000D03*
X171000000Y-130575000D03*
X172000000Y-130575000D03*
X173000000Y-130575000D03*
X174000000Y-130575000D03*
X175000000Y-130575000D03*
X176000000Y-130575000D03*
X177000000Y-130575000D03*
X178000000Y-130575000D03*
X179000000Y-130575000D03*
X180000000Y-130575000D03*
X181000000Y-130575000D03*
X182000000Y-130575000D03*
X183000000Y-130575000D03*
X184000000Y-130575000D03*
X185000000Y-130575000D03*
X186000000Y-130575000D03*
X187000000Y-130575000D03*
X188000000Y-130575000D03*
X189000000Y-130575000D03*
X190000000Y-130575000D03*
X191000000Y-130575000D03*
X192000000Y-130575000D03*
X193000000Y-130575000D03*
X194000000Y-130575000D03*
X195000000Y-130575000D03*
X196000000Y-130575000D03*
X197000000Y-130575000D03*
X198000000Y-130575000D03*
X199000000Y-130575000D03*
X200000000Y-130575000D03*
X201000000Y-130575000D03*
X202000000Y-130575000D03*
X203000000Y-130575000D03*
X204000000Y-130575000D03*
X205000000Y-130575000D03*
X206000000Y-130575000D03*
X207000000Y-130575000D03*
X208000000Y-130575000D03*
X209000000Y-130575000D03*
X210000000Y-130575000D03*
X211000000Y-130575000D03*
%TD*%
D16*
%TO.C,JP4*%
X183980000Y-74855000D03*
D17*
X183980000Y-77395000D03*
%TD*%
D13*
%TO.C,J5*%
X160500000Y-118225000D03*
X157960000Y-120765000D03*
X163040000Y-120765000D03*
X157960000Y-115685000D03*
X163040000Y-115685000D03*
%TD*%
D27*
%TO.C,H6*%
X159000000Y-84250000D03*
X159000000Y-111250000D03*
X204000000Y-84250000D03*
X204000000Y-111250000D03*
%TD*%
D19*
%TO.C,C6*%
X169740000Y-109475000D03*
X169740000Y-111025000D03*
%TD*%
%TO.C,C8*%
X198010000Y-110475000D03*
X198010000Y-112025000D03*
%TD*%
D14*
%TO.C,H4*%
X194750000Y-80925000D03*
%TD*%
D16*
%TO.C,J8*%
X204775000Y-105980000D03*
D17*
X204775000Y-103440000D03*
X204775000Y-100900000D03*
%TD*%
D18*
%TO.C,TP2*%
X209000000Y-94000000D03*
%TD*%
D16*
%TO.C,J12*%
X208775000Y-108450000D03*
D17*
X208775000Y-105910000D03*
X208775000Y-103370000D03*
X208775000Y-100830000D03*
%TD*%
D15*
%TO.C,C1*%
X162350000Y-106675000D03*
X162350000Y-105125000D03*
%TD*%
D18*
%TO.C,TP1*%
X209000000Y-90000000D03*
%TD*%
D19*
%TO.C,C10*%
X199500000Y-110475000D03*
X199500000Y-112025000D03*
%TD*%
D25*
%TO.C,R6*%
X190925000Y-116750000D03*
X192575000Y-116750000D03*
%TD*%
D24*
%TO.C,C14*%
X164975000Y-92625000D03*
X167925000Y-92625000D03*
%TD*%
D13*
%TO.C,J1*%
X206600000Y-118225000D03*
X209140000Y-115685000D03*
X204060000Y-115685000D03*
X209140000Y-120765000D03*
X204060000Y-120765000D03*
%TD*%
D28*
%TO.C,C3*%
X174650000Y-115250000D03*
X176200000Y-115250000D03*
%TD*%
M02*
