%TF.GenerationSoftware,KiCad,Pcbnew,8.0.6*%
%TF.CreationDate,2026-07-15T12:09:55+02:00*%
%TF.ProjectId,astropix_v5,61737472-6f70-4697-985f-76352e6b6963,rev?*%
%TF.SameCoordinates,Original*%
%TF.FileFunction,Paste,Top*%
%TF.FilePolarity,Positive*%
%FSLAX46Y46*%
G04 Gerber Fmt 4.6, Leading zero omitted, Abs format (unit mm)*
G04 Created by KiCad (PCBNEW 8.0.6) date 2026-07-15 12:09:55*
%MOMM*%
%LPD*%
G01*
G04 APERTURE LIST*
G04 Aperture macros list*
%AMRoundRect*
0 Rectangle with rounded corners*
0 $1 Rounding radius*
0 $2 $3 $4 $5 $6 $7 $8 $9 X,Y pos of 4 corners*
0 Add a 4 corners polygon primitive as box body*
4,1,4,$2,$3,$4,$5,$6,$7,$8,$9,$2,$3,0*
0 Add four circle primitives for the rounded corners*
1,1,$1+$1,$2,$3*
1,1,$1+$1,$4,$5*
1,1,$1+$1,$6,$7*
1,1,$1+$1,$8,$9*
0 Add four rect primitives between the rounded corners*
20,1,$1+$1,$2,$3,$4,$5,0*
20,1,$1+$1,$4,$5,$6,$7,0*
20,1,$1+$1,$6,$7,$8,$9,0*
20,1,$1+$1,$8,$9,$2,$3,0*%
G04 Aperture macros list end*
%ADD10RoundRect,0.225000X0.250000X-0.225000X0.250000X0.225000X-0.250000X0.225000X-0.250000X-0.225000X0*%
%ADD11RoundRect,0.225000X-0.250000X0.225000X-0.250000X-0.225000X0.250000X-0.225000X0.250000X0.225000X0*%
%ADD12RoundRect,0.200000X-0.275000X0.200000X-0.275000X-0.200000X0.275000X-0.200000X0.275000X0.200000X0*%
%ADD13R,0.125000X0.600000*%
%ADD14R,19.480000X0.400000*%
%ADD15R,0.600000X0.125000*%
%ADD16RoundRect,0.250000X-0.325000X-1.100000X0.325000X-1.100000X0.325000X1.100000X-0.325000X1.100000X0*%
%ADD17RoundRect,0.200000X-0.200000X-0.275000X0.200000X-0.275000X0.200000X0.275000X-0.200000X0.275000X0*%
%ADD18RoundRect,0.225000X-0.225000X-0.250000X0.225000X-0.250000X0.225000X0.250000X-0.225000X0.250000X0*%
G04 APERTURE END LIST*
D10*
%TO.C,C2*%
X163840000Y-106675000D03*
X163840000Y-105125000D03*
%TD*%
D11*
%TO.C,C9*%
X168250000Y-109475000D03*
X168250000Y-111025000D03*
%TD*%
D10*
%TO.C,C4*%
X165350000Y-106675000D03*
X165350000Y-105125000D03*
%TD*%
D12*
%TO.C,R4*%
X202075000Y-105450000D03*
X202075000Y-107100000D03*
%TD*%
%TO.C,R2*%
X200050000Y-117825000D03*
X200050000Y-119475000D03*
%TD*%
D13*
%TO.C,U2*%
X175470000Y-112050000D03*
X175510000Y-113760000D03*
X176440000Y-113770000D03*
X177320000Y-112000000D03*
X177750000Y-110640000D03*
X177710000Y-113710000D03*
X178410000Y-112020000D03*
X179070000Y-110640000D03*
X178240000Y-113670000D03*
X179170000Y-111990000D03*
X179730000Y-110640000D03*
X179180000Y-113730000D03*
X179620000Y-113730000D03*
X180372500Y-110640000D03*
X180720000Y-110640000D03*
X180187500Y-113750000D03*
X180550000Y-113750000D03*
X180870000Y-112040000D03*
X181265000Y-112060000D03*
X181100000Y-113750000D03*
X181530000Y-113730000D03*
X181847500Y-112060000D03*
X182070000Y-110640000D03*
X181960000Y-113720000D03*
X182440000Y-113710000D03*
X182700000Y-110640000D03*
X182820000Y-112060000D03*
X182920000Y-113730000D03*
X183290000Y-110640000D03*
X183550000Y-113750000D03*
X183640000Y-112040000D03*
X183790000Y-110640000D03*
X184227500Y-113770000D03*
X184270000Y-111980000D03*
X184340000Y-110640000D03*
X184920000Y-113800000D03*
X184842500Y-112060000D03*
X185312500Y-112060000D03*
X185330000Y-110640000D03*
X185900000Y-113720000D03*
X185900000Y-112060000D03*
X186330000Y-112050000D03*
X186972500Y-113710000D03*
X187560000Y-113710000D03*
X187430000Y-112060000D03*
X187260000Y-110640000D03*
X188110000Y-112060000D03*
X188710000Y-112060000D03*
X188380000Y-110640000D03*
X189430000Y-113730000D03*
X189620000Y-112060000D03*
X190190000Y-112060000D03*
X190100000Y-110640000D03*
X191570000Y-113730000D03*
D14*
X184090000Y-109850000D03*
X184090000Y-109175000D03*
D15*
X172370000Y-105630000D03*
X171360000Y-105797500D03*
X172380000Y-106010000D03*
X171360000Y-106222500D03*
X172390000Y-106420000D03*
X172360000Y-104430000D03*
X171360000Y-104242500D03*
X172380000Y-104040000D03*
X171410000Y-103670000D03*
X172390000Y-103400000D03*
D13*
X194020000Y-112070000D03*
X193500000Y-110680000D03*
X193300000Y-112070000D03*
X192790000Y-110640000D03*
X192537500Y-112060000D03*
D14*
X184090000Y-107825000D03*
X184090000Y-107150000D03*
X184090000Y-108500000D03*
%TD*%
D12*
%TO.C,R3*%
X165725000Y-118150000D03*
X165725000Y-119800000D03*
%TD*%
D16*
%TO.C,C15*%
X164975000Y-89275000D03*
X167925000Y-89275000D03*
%TD*%
D11*
%TO.C,C13*%
X201010000Y-110475000D03*
X201010000Y-112025000D03*
%TD*%
%TO.C,C11*%
X166740000Y-109475000D03*
X166740000Y-111025000D03*
%TD*%
D17*
%TO.C,R1*%
X166025000Y-85700000D03*
X167675000Y-85700000D03*
%TD*%
D11*
%TO.C,C6*%
X169740000Y-109475000D03*
X169740000Y-111025000D03*
%TD*%
%TO.C,C8*%
X198010000Y-110475000D03*
X198010000Y-112025000D03*
%TD*%
D10*
%TO.C,C1*%
X162350000Y-106675000D03*
X162350000Y-105125000D03*
%TD*%
D11*
%TO.C,C10*%
X199500000Y-110475000D03*
X199500000Y-112025000D03*
%TD*%
D17*
%TO.C,R6*%
X190925000Y-116750000D03*
X192575000Y-116750000D03*
%TD*%
D16*
%TO.C,C14*%
X164975000Y-92625000D03*
X167925000Y-92625000D03*
%TD*%
D18*
%TO.C,C3*%
X174650000Y-115250000D03*
X176200000Y-115250000D03*
%TD*%
M02*
