M48
; DRILL file {KiCad 8.0.6} date 2026-07-15T12:10:36+0200
; FORMAT={-:-/ absolute / metric / decimal}
; #@! TF.CreationDate,2026-07-15T12:10:36+02:00
; #@! TF.GenerationSoftware,Kicad,Pcbnew,8.0.6
; #@! TF.FileFunction,MixedPlating,1,4
FMAT,2
METRIC
; #@! TA.AperFunction,Plated,PTH,ViaDrill
T1C0.250
; #@! TA.AperFunction,Plated,PTH,ViaDrill
T2C0.300
; #@! TA.AperFunction,Plated,PTH,ComponentDrill
T3C1.000
; #@! TA.AperFunction,Plated,PTH,ComponentDrill
T4C1.500
; #@! TA.AperFunction,NonPlated,NPTH,ComponentDrill
T5C3.100
; #@! TA.AperFunction,NonPlated,NPTH,ComponentDrill
T6C3.200
%
G90
G05
T1
X158.8Y-125.275
X159.425Y-105.9
X160.375Y-105.375
X160.864Y-104.214
X161.0Y-125.15
X161.5Y-106.75
X161.537Y-105.212
X163.0Y-126.65
X164.812Y-87.661
X165.45Y-111.025
X165.45Y-109.475
X165.725Y-121.1
X166.0Y-127.05
X166.672Y-105.803
X168.622Y-104.935
X168.762Y-95.462
X173.325Y-110.575
X173.5Y-115.225
X174.55Y-113.76
X174.625Y-110.5
X175.5Y-111.368
X176.5Y-111.475
X176.611Y-116.779
X177.042Y-114.822
X178.099Y-115.509
X178.295Y-110.695
X178.75Y-112.575
X179.94Y-113.097
X180.609Y-112.846
X181.247Y-111.359
X181.47Y-118.344
X181.518Y-117.721
X181.75Y-113.075
X181.95Y-111.275
X182.214Y-112.695
X182.75Y-111.267
X183.045Y-116.473
X183.125Y-117.248
X183.143Y-79.192
X183.348Y-112.803
X183.825Y-111.321
X184.65Y-111.275
X184.725Y-114.25
X185.25Y-114.8
X185.781Y-115.402
X185.916Y-113.006
X186.625Y-110.5
X186.763Y-116.087
X186.918Y-112.239
X187.2Y-111.325
X187.625Y-112.975
X187.665Y-114.5
X187.875Y-111.325
X188.378Y-114.922
X188.775Y-81.825
X188.861Y-118.839
X188.95Y-127.15
X189.05Y-115.125
X189.425Y-119.55
X189.95Y-114.825
X189.95Y-119.075
X190.0Y-127.15
X190.05Y-113.73
X190.175Y-113.0
X191.0Y-127.125
X191.0Y-120.6
X191.1Y-74.855
X191.8Y-123.1
X192.075Y-127.125
X192.475Y-119.075
X194.05Y-116.425
X195.45Y-122.83
X195.6Y-116.212
X196.316Y-105.391
X196.5Y-124.925
X196.537Y-122.487
X196.66Y-116.131
X196.75Y-110.5
X197.243Y-124.907
X197.325Y-63.95
X197.325Y-122.05
X197.435Y-116.188
X198.25Y-78.4
X199.375Y-98.625
X199.6Y-116.725
X199.7Y-99.6
X200.331Y-126.25
X200.6Y-102.575
X201.1Y-103.025
X201.525Y-118.025
X201.75Y-119.475
X201.921Y-103.6
X202.55Y-104.275
X203.0Y-103.1
X204.95Y-123.765
T2
X196.25Y-112.0
T3
X158.55Y-89.225
X158.55Y-91.765
X158.55Y-94.305
X158.55Y-96.845
X158.55Y-99.385
X170.85Y-61.45
X173.39Y-61.45
X175.93Y-61.45
X178.47Y-61.45
X178.98Y-74.855
X178.98Y-77.395
X181.01Y-61.45
X183.55Y-61.45
X183.98Y-74.855
X183.98Y-77.395
X186.09Y-61.45
X188.63Y-61.45
X188.75Y-74.855
X188.75Y-77.395
X188.75Y-79.935
X191.17Y-61.45
X193.71Y-61.45
X196.25Y-61.45
X198.79Y-61.45
X204.775Y-100.9
X204.775Y-103.44
X204.775Y-105.98
X208.775Y-100.83
X208.775Y-103.37
X208.775Y-105.91
X208.775Y-108.45
X209.0Y-90.0
X209.0Y-94.0
T4
X157.92Y-75.0
X157.92Y-80.08
X157.96Y-115.685
X157.96Y-120.765
X160.46Y-77.54
X160.5Y-118.225
X163.0Y-75.0
X163.0Y-80.08
X163.04Y-115.685
X163.04Y-120.765
X204.06Y-115.685
X204.06Y-120.765
X204.745Y-74.875
X204.745Y-79.955
X206.6Y-118.225
X207.285Y-77.415
X209.14Y-115.685
X209.14Y-120.765
X209.825Y-74.875
X209.825Y-79.955
T5
X159.0Y-84.25
X159.0Y-111.25
X204.0Y-84.25
X204.0Y-111.25
T6
X169.925Y-121.425
X194.75Y-80.925
M30
