%TF.GenerationSoftware,KiCad,Pcbnew,8.0.6*%
%TF.CreationDate,2026-07-15T12:10:48+02:00*%
%TF.ProjectId,astropix_v5,61737472-6f70-4697-985f-76352e6b6963,rev?*%
%TF.SameCoordinates,Original*%
%TF.FileFunction,Drillmap*%
%TF.FilePolarity,Positive*%
%FSLAX45Y45*%
G04 Gerber Fmt 4.5, Leading zero omitted, Abs format (unit mm)*
G04 Created by KiCad (PCBNEW 8.0.6) date 2026-07-15 12:10:48*
%MOMM*%
%LPD*%
G01*
G04 APERTURE LIST*
%ADD10C,0.100000*%
%ADD11C,0.200000*%
%ADD12C,0.150000*%
%ADD13C,0.310000*%
%ADD14C,0.320000*%
G04 APERTURE END LIST*
D10*
X21177500Y-6085000D02*
X21177000Y-12542500D01*
X15635924Y-6001964D02*
X21076965Y-6000035D01*
X15535000Y-6101960D02*
X15535000Y-12562500D01*
X15535000Y-6101960D02*
G75*
G02*
X15635924Y-6001964I100010J-10D01*
G01*
X21076973Y-6000492D02*
G75*
G02*
X21177499Y-6085000I1897J-99788D01*
G01*
X17732000Y-8939500D02*
X19172000Y-8939500D01*
X19172000Y-10273500D01*
X17732000Y-10273500D01*
X17732000Y-8939500D01*
X15535000Y-12562500D02*
X15535000Y-13352500D01*
X15535000Y-13352500D02*
X15585000Y-13402500D01*
X15585000Y-13402500D02*
X16605000Y-13402500D01*
X16655000Y-12657500D02*
X16655000Y-13352500D01*
X16655000Y-13352500D02*
X16605000Y-13402500D01*
X16845000Y-12657500D02*
X16845000Y-13352500D01*
X16845000Y-13352500D02*
X16891000Y-13402500D01*
X16891000Y-13402500D02*
X21117023Y-13402500D01*
X21177000Y-12542500D02*
X21177000Y-13332500D01*
X21177000Y-13332500D02*
X21117023Y-13402500D01*
X16655000Y-12657500D02*
G75*
G02*
X16845000Y-12657500I95000J0D01*
G01*
D11*
D10*
X15867500Y-12515000D02*
X15892500Y-12540000D01*
X15892500Y-12515000D02*
X15867500Y-12540000D01*
X15930000Y-10577500D02*
X15955000Y-10602500D01*
X15955000Y-10577500D02*
X15930000Y-10602500D01*
X16025000Y-10525000D02*
X16050000Y-10550000D01*
X16050000Y-10525000D02*
X16025000Y-10550000D01*
X16073912Y-10408913D02*
X16098912Y-10433913D01*
X16098912Y-10408913D02*
X16073912Y-10433913D01*
X16087500Y-12502494D02*
X16112500Y-12527494D01*
X16112500Y-12502494D02*
X16087500Y-12527494D01*
X16137499Y-10662500D02*
X16162499Y-10687500D01*
X16162499Y-10662500D02*
X16137499Y-10687500D01*
X16141177Y-10508676D02*
X16166177Y-10533676D01*
X16166177Y-10508676D02*
X16141177Y-10533676D01*
X16287498Y-12652500D02*
X16312498Y-12677500D01*
X16312498Y-12652500D02*
X16287498Y-12677500D01*
X16468750Y-8753650D02*
X16493750Y-8778650D01*
X16493750Y-8753650D02*
X16468750Y-8778650D01*
X16532500Y-11090000D02*
X16557500Y-11115000D01*
X16557500Y-11090000D02*
X16532500Y-11115000D01*
X16532501Y-10935000D02*
X16557501Y-10960000D01*
X16557501Y-10935000D02*
X16532501Y-10960000D01*
X16560000Y-12097499D02*
X16585000Y-12122499D01*
X16585000Y-12097499D02*
X16560000Y-12122499D01*
X16587500Y-12692500D02*
X16612500Y-12717500D01*
X16612500Y-12692500D02*
X16587500Y-12717500D01*
X16654686Y-10567814D02*
X16679686Y-10592814D01*
X16679686Y-10567814D02*
X16654686Y-10592814D01*
X16849701Y-10481000D02*
X16874701Y-10506000D01*
X16874701Y-10481000D02*
X16849701Y-10506000D01*
X16863750Y-9533650D02*
X16888750Y-9558650D01*
X16888750Y-9533650D02*
X16863750Y-9558650D01*
X17320000Y-11045000D02*
X17345000Y-11070000D01*
X17345000Y-11045000D02*
X17320000Y-11070000D01*
X17337500Y-11510000D02*
X17362500Y-11535000D01*
X17362500Y-11510000D02*
X17337500Y-11535000D01*
X17442500Y-11363500D02*
X17467500Y-11388500D01*
X17467500Y-11363500D02*
X17442500Y-11388500D01*
X17450000Y-11037500D02*
X17475000Y-11062500D01*
X17475000Y-11037500D02*
X17450000Y-11062500D01*
X17537500Y-11124257D02*
X17562500Y-11149257D01*
X17562500Y-11124257D02*
X17537500Y-11149257D01*
X17637500Y-11135000D02*
X17662500Y-11160000D01*
X17662500Y-11135000D02*
X17637500Y-11160000D01*
X17648600Y-11665386D02*
X17673600Y-11690386D01*
X17673600Y-11665386D02*
X17648600Y-11690386D01*
X17691744Y-11469677D02*
X17716744Y-11494677D01*
X17716744Y-11469677D02*
X17691744Y-11494677D01*
X17797427Y-11538441D02*
X17822427Y-11563441D01*
X17822427Y-11538441D02*
X17797427Y-11563441D01*
X17816993Y-11056993D02*
X17841993Y-11081993D01*
X17841993Y-11056993D02*
X17816993Y-11081993D01*
X17862500Y-11245000D02*
X17887500Y-11270000D01*
X17887500Y-11245000D02*
X17862500Y-11270000D01*
X17981458Y-11297219D02*
X18006458Y-11322219D01*
X18006458Y-11297219D02*
X17981458Y-11322219D01*
X18048401Y-11272083D02*
X18073401Y-11297083D01*
X18073401Y-11272083D02*
X18048401Y-11297083D01*
X18112195Y-11123433D02*
X18137195Y-11148433D01*
X18137195Y-11123433D02*
X18112195Y-11148433D01*
X18134506Y-11821949D02*
X18159506Y-11846949D01*
X18159506Y-11821949D02*
X18134506Y-11846949D01*
X18139316Y-11759584D02*
X18164316Y-11784584D01*
X18164316Y-11759584D02*
X18139316Y-11784584D01*
X18162500Y-11295000D02*
X18187500Y-11320000D01*
X18187500Y-11295000D02*
X18162500Y-11320000D01*
X18182500Y-11115000D02*
X18207500Y-11140000D01*
X18207500Y-11115000D02*
X18182500Y-11140000D01*
X18208938Y-11257006D02*
X18233938Y-11282006D01*
X18233938Y-11257006D02*
X18208938Y-11282006D01*
X18262501Y-11114187D02*
X18287501Y-11139187D01*
X18287501Y-11114187D02*
X18262501Y-11139187D01*
X18292008Y-11634790D02*
X18317008Y-11659790D01*
X18317008Y-11634790D02*
X18292008Y-11659790D01*
X18300000Y-11712265D02*
X18325000Y-11737265D01*
X18325000Y-11712265D02*
X18300000Y-11737265D01*
X18301807Y-7906707D02*
X18326807Y-7931707D01*
X18326807Y-7906707D02*
X18301807Y-7931707D01*
X18322251Y-11267750D02*
X18347251Y-11292750D01*
X18347251Y-11267750D02*
X18322251Y-11292750D01*
X18370031Y-11119587D02*
X18395031Y-11144587D01*
X18395031Y-11119587D02*
X18370031Y-11144587D01*
X18452500Y-11115000D02*
X18477500Y-11140000D01*
X18477500Y-11115000D02*
X18452500Y-11140000D01*
X18460001Y-11412500D02*
X18485001Y-11437500D01*
X18485001Y-11412500D02*
X18460001Y-11437500D01*
X18512500Y-11467500D02*
X18537500Y-11492500D01*
X18537500Y-11467500D02*
X18512500Y-11492500D01*
X18565637Y-11527750D02*
X18590637Y-11552750D01*
X18590637Y-11527750D02*
X18565637Y-11552750D01*
X18579109Y-11288095D02*
X18604109Y-11313095D01*
X18604109Y-11288095D02*
X18579109Y-11313095D01*
X18650000Y-11037500D02*
X18675000Y-11062500D01*
X18675000Y-11037500D02*
X18650000Y-11062500D01*
X18663813Y-11596187D02*
X18688813Y-11621187D01*
X18688813Y-11596187D02*
X18663813Y-11621187D01*
X18679265Y-11211376D02*
X18704265Y-11236376D01*
X18704265Y-11211376D02*
X18679265Y-11236376D01*
X18707501Y-11120000D02*
X18732501Y-11145000D01*
X18732501Y-11120000D02*
X18707501Y-11145000D01*
X18750000Y-11285000D02*
X18775000Y-11310000D01*
X18775000Y-11285000D02*
X18750000Y-11310000D01*
X18754000Y-11437500D02*
X18779000Y-11462500D01*
X18779000Y-11437500D02*
X18754000Y-11462500D01*
X18775000Y-11120000D02*
X18800000Y-11145000D01*
X18800000Y-11120000D02*
X18775000Y-11145000D01*
X18825314Y-11479686D02*
X18850314Y-11504686D01*
X18850314Y-11479686D02*
X18825314Y-11504686D01*
X18865000Y-8170000D02*
X18890000Y-8195000D01*
X18890000Y-8170000D02*
X18865000Y-8195000D01*
X18873588Y-11871412D02*
X18898588Y-11896412D01*
X18898588Y-11871412D02*
X18873588Y-11896412D01*
X18882500Y-12702500D02*
X18907500Y-12727500D01*
X18907500Y-12702500D02*
X18882500Y-12727500D01*
X18892500Y-11500000D02*
X18917500Y-11525000D01*
X18917500Y-11500000D02*
X18892500Y-11525000D01*
X18930000Y-11942500D02*
X18955000Y-11967500D01*
X18955000Y-11942500D02*
X18930000Y-11967500D01*
X18982500Y-11470000D02*
X19007500Y-11495000D01*
X19007500Y-11470000D02*
X18982500Y-11495000D01*
X18982500Y-11895000D02*
X19007500Y-11920000D01*
X19007500Y-11895000D02*
X18982500Y-11920000D01*
X18987500Y-12702501D02*
X19012500Y-12727501D01*
X19012500Y-12702501D02*
X18987500Y-12727501D01*
X18992500Y-11360500D02*
X19017500Y-11385500D01*
X19017500Y-11360500D02*
X18992500Y-11385500D01*
X19005000Y-11287500D02*
X19030000Y-11312500D01*
X19030000Y-11287500D02*
X19005000Y-11312500D01*
X19087500Y-12699999D02*
X19112500Y-12724999D01*
X19112500Y-12699999D02*
X19087500Y-12724999D01*
X19087500Y-12047500D02*
X19112500Y-12072500D01*
X19112500Y-12047500D02*
X19087500Y-12072500D01*
X19097498Y-7473000D02*
X19122498Y-7498000D01*
X19122498Y-7473000D02*
X19097498Y-7498000D01*
X19167500Y-12297500D02*
X19192500Y-12322500D01*
X19192500Y-12297500D02*
X19167500Y-12322500D01*
X19195000Y-12700000D02*
X19220000Y-12725000D01*
X19220000Y-12700000D02*
X19195000Y-12725000D01*
X19235000Y-11895000D02*
X19260000Y-11920000D01*
X19260000Y-11895000D02*
X19235000Y-11920000D01*
X19392500Y-11630000D02*
X19417500Y-11655000D01*
X19417500Y-11630000D02*
X19392500Y-11655000D01*
X19532500Y-12270500D02*
X19557500Y-12295500D01*
X19557500Y-12270500D02*
X19532500Y-12295500D01*
X19547500Y-11608750D02*
X19572500Y-11633750D01*
X19572500Y-11608750D02*
X19547500Y-11633750D01*
X19619064Y-10526564D02*
X19644064Y-10551564D01*
X19644064Y-10526564D02*
X19619064Y-10551564D01*
X19637500Y-12480000D02*
X19662500Y-12505000D01*
X19662500Y-12480000D02*
X19637500Y-12505000D01*
X19641250Y-12236250D02*
X19666250Y-12261250D01*
X19666250Y-12236250D02*
X19641250Y-12261250D01*
X19653458Y-11600609D02*
X19678458Y-11625609D01*
X19678458Y-11600609D02*
X19653458Y-11625609D01*
X19662500Y-11037500D02*
X19687500Y-11062500D01*
X19687500Y-11037500D02*
X19662500Y-11062500D01*
X19711813Y-12478188D02*
X19736813Y-12503188D01*
X19736813Y-12478188D02*
X19711813Y-12503188D01*
X19720000Y-6382500D02*
X19745000Y-6407500D01*
X19745000Y-6382500D02*
X19720000Y-6407500D01*
X19720037Y-12192500D02*
X19745037Y-12217500D01*
X19745037Y-12192500D02*
X19720037Y-12217500D01*
X19731008Y-11606250D02*
X19756008Y-11631250D01*
X19756008Y-11606250D02*
X19731008Y-11631250D01*
X19812500Y-7827500D02*
X19837500Y-7852500D01*
X19837500Y-7827500D02*
X19812500Y-7852500D01*
X19925000Y-9850000D02*
X19950000Y-9875000D01*
X19950000Y-9850000D02*
X19925000Y-9875000D01*
X19947500Y-11660000D02*
X19972500Y-11685000D01*
X19972500Y-11660000D02*
X19947500Y-11685000D01*
X19957500Y-9947500D02*
X19982500Y-9972500D01*
X19982500Y-9947500D02*
X19957500Y-9972500D01*
X20020591Y-12612500D02*
X20045591Y-12637500D01*
X20045591Y-12612500D02*
X20020591Y-12637500D01*
X20047500Y-10245000D02*
X20072500Y-10270000D01*
X20072500Y-10245000D02*
X20047500Y-10270000D01*
X20097500Y-10290000D02*
X20122500Y-10315000D01*
X20122500Y-10290000D02*
X20097500Y-10315000D01*
X20140000Y-11790000D02*
X20165000Y-11815000D01*
X20165000Y-11790000D02*
X20140000Y-11815000D01*
X20162500Y-11935000D02*
X20187500Y-11960000D01*
X20187500Y-11935000D02*
X20162500Y-11960000D01*
X20179607Y-10347521D02*
X20204607Y-10372521D01*
X20204607Y-10347521D02*
X20179607Y-10372521D01*
X20242500Y-10415000D02*
X20267500Y-10440000D01*
X20267500Y-10415000D02*
X20242500Y-10440000D01*
X20287500Y-10297500D02*
X20312500Y-10322500D01*
X20312500Y-10297500D02*
X20287500Y-10322500D01*
X20482500Y-12364000D02*
X20507500Y-12389000D01*
X20507500Y-12364000D02*
X20482500Y-12389000D01*
X19640000Y-11200000D02*
G75*
G02*
X19610000Y-11200000I-15000J0D01*
G01*
X19610000Y-11200000D02*
G75*
G02*
X19640000Y-11200000I15000J0D01*
G01*
X15855000Y-8872500D02*
X15855000Y-8972500D01*
X15805000Y-8922500D02*
X15905000Y-8922500D01*
X15855000Y-9126500D02*
X15855000Y-9226500D01*
X15805000Y-9176500D02*
X15905000Y-9176500D01*
X15855000Y-9380500D02*
X15855000Y-9480500D01*
X15805000Y-9430500D02*
X15905000Y-9430500D01*
X15855000Y-9634500D02*
X15855000Y-9734500D01*
X15805000Y-9684500D02*
X15905000Y-9684500D01*
X15855000Y-9888500D02*
X15855000Y-9988500D01*
X15805000Y-9938500D02*
X15905000Y-9938500D01*
X17085000Y-6095000D02*
X17085000Y-6195000D01*
X17035000Y-6145000D02*
X17135000Y-6145000D01*
X17339000Y-6095000D02*
X17339000Y-6195000D01*
X17289000Y-6145000D02*
X17389000Y-6145000D01*
X17593000Y-6095000D02*
X17593000Y-6195000D01*
X17543000Y-6145000D02*
X17643000Y-6145000D01*
X17847000Y-6095000D02*
X17847000Y-6195000D01*
X17797000Y-6145000D02*
X17897000Y-6145000D01*
X17898000Y-7435500D02*
X17898000Y-7535500D01*
X17848000Y-7485500D02*
X17948000Y-7485500D01*
X17898000Y-7689500D02*
X17898000Y-7789500D01*
X17848000Y-7739500D02*
X17948000Y-7739500D01*
X18101000Y-6095000D02*
X18101000Y-6195000D01*
X18051000Y-6145000D02*
X18151000Y-6145000D01*
X18355000Y-6095000D02*
X18355000Y-6195000D01*
X18305000Y-6145000D02*
X18405000Y-6145000D01*
X18398000Y-7435500D02*
X18398000Y-7535500D01*
X18348000Y-7485500D02*
X18448000Y-7485500D01*
X18398000Y-7689500D02*
X18398000Y-7789500D01*
X18348000Y-7739500D02*
X18448000Y-7739500D01*
X18609000Y-6095000D02*
X18609000Y-6195000D01*
X18559000Y-6145000D02*
X18659000Y-6145000D01*
X18863000Y-6095000D02*
X18863000Y-6195000D01*
X18813000Y-6145000D02*
X18913000Y-6145000D01*
X18875000Y-7435500D02*
X18875000Y-7535500D01*
X18825000Y-7485500D02*
X18925000Y-7485500D01*
X18875000Y-7689500D02*
X18875000Y-7789500D01*
X18825000Y-7739500D02*
X18925000Y-7739500D01*
X18875000Y-7943500D02*
X18875000Y-8043500D01*
X18825000Y-7993500D02*
X18925000Y-7993500D01*
X19117000Y-6095000D02*
X19117000Y-6195000D01*
X19067000Y-6145000D02*
X19167000Y-6145000D01*
X19371000Y-6095000D02*
X19371000Y-6195000D01*
X19321000Y-6145000D02*
X19421000Y-6145000D01*
X19625000Y-6095000D02*
X19625000Y-6195000D01*
X19575000Y-6145000D02*
X19675000Y-6145000D01*
X19879000Y-6095000D02*
X19879000Y-6195000D01*
X19829000Y-6145000D02*
X19929000Y-6145000D01*
X20477500Y-10040000D02*
X20477500Y-10140000D01*
X20427500Y-10090000D02*
X20527500Y-10090000D01*
X20477500Y-10294000D02*
X20477500Y-10394000D01*
X20427500Y-10344000D02*
X20527500Y-10344000D01*
X20477500Y-10548000D02*
X20477500Y-10648000D01*
X20427500Y-10598000D02*
X20527500Y-10598000D01*
X20877500Y-10033000D02*
X20877500Y-10133000D01*
X20827500Y-10083000D02*
X20927500Y-10083000D01*
X20877500Y-10287000D02*
X20877500Y-10387000D01*
X20827500Y-10337000D02*
X20927500Y-10337000D01*
X20877500Y-10541000D02*
X20877500Y-10641000D01*
X20827500Y-10591000D02*
X20927500Y-10591000D01*
X20877500Y-10795000D02*
X20877500Y-10895000D01*
X20827500Y-10845000D02*
X20927500Y-10845000D01*
X20900000Y-8950000D02*
X20900000Y-9050000D01*
X20850000Y-9000000D02*
X20950000Y-9000000D01*
X20900000Y-9350000D02*
X20900000Y-9450000D01*
X20850000Y-9400000D02*
X20950000Y-9400000D01*
D12*
X15845033Y-7553033D02*
X15845033Y-7446966D01*
X15738966Y-7446966D01*
X15738966Y-7553033D01*
X15845033Y-7553033D01*
X15845033Y-8061033D02*
X15845033Y-7954966D01*
X15738966Y-7954966D01*
X15738966Y-8061033D01*
X15845033Y-8061033D01*
X15849033Y-11621533D02*
X15849033Y-11515466D01*
X15742966Y-11515466D01*
X15742966Y-11621533D01*
X15849033Y-11621533D01*
X15849033Y-12129533D02*
X15849033Y-12023466D01*
X15742966Y-12023466D01*
X15742966Y-12129533D01*
X15849033Y-12129533D01*
X16099033Y-7807033D02*
X16099033Y-7700966D01*
X15992966Y-7700966D01*
X15992966Y-7807033D01*
X16099033Y-7807033D01*
X16103033Y-11875533D02*
X16103033Y-11769466D01*
X15996966Y-11769466D01*
X15996966Y-11875533D01*
X16103033Y-11875533D01*
X16353033Y-7553033D02*
X16353033Y-7446966D01*
X16246966Y-7446966D01*
X16246966Y-7553033D01*
X16353033Y-7553033D01*
X16353033Y-8061033D02*
X16353033Y-7954966D01*
X16246966Y-7954966D01*
X16246966Y-8061033D01*
X16353033Y-8061033D01*
X16357033Y-11621533D02*
X16357033Y-11515466D01*
X16250966Y-11515466D01*
X16250966Y-11621533D01*
X16357033Y-11621533D01*
X16357033Y-12129533D02*
X16357033Y-12023466D01*
X16250966Y-12023466D01*
X16250966Y-12129533D01*
X16357033Y-12129533D01*
X20459034Y-11621533D02*
X20459034Y-11515466D01*
X20352967Y-11515466D01*
X20352967Y-11621533D01*
X20459034Y-11621533D01*
X20459034Y-12129533D02*
X20459034Y-12023466D01*
X20352967Y-12023466D01*
X20352967Y-12129533D01*
X20459034Y-12129533D01*
X20527534Y-7540533D02*
X20527534Y-7434466D01*
X20421467Y-7434466D01*
X20421467Y-7540533D01*
X20527534Y-7540533D01*
X20527534Y-8048533D02*
X20527534Y-7942466D01*
X20421467Y-7942466D01*
X20421467Y-8048533D01*
X20527534Y-8048533D01*
X20713034Y-11875533D02*
X20713034Y-11769466D01*
X20606967Y-11769466D01*
X20606967Y-11875533D01*
X20713034Y-11875533D01*
X20781534Y-7794533D02*
X20781534Y-7688466D01*
X20675467Y-7688466D01*
X20675467Y-7794533D01*
X20781534Y-7794533D01*
X20967034Y-11621533D02*
X20967034Y-11515466D01*
X20860967Y-11515466D01*
X20860967Y-11621533D01*
X20967034Y-11621533D01*
X20967034Y-12129533D02*
X20967034Y-12023466D01*
X20860967Y-12023466D01*
X20860967Y-12129533D01*
X20967034Y-12129533D01*
X21035534Y-7540533D02*
X21035534Y-7434466D01*
X20929467Y-7434466D01*
X20929467Y-7540533D01*
X21035534Y-7540533D01*
X21035534Y-8048533D02*
X21035534Y-7942466D01*
X20929467Y-7942466D01*
X20929467Y-8048533D01*
X21035534Y-8048533D01*
D13*
X15900000Y-8580000D02*
X16055000Y-8425000D01*
X15900000Y-8270000D01*
X15745000Y-8425000D01*
X15900000Y-8580000D01*
X15900000Y-11280000D02*
X16055000Y-11125000D01*
X15900000Y-10970000D01*
X15745000Y-11125000D01*
X15900000Y-11280000D01*
X20400000Y-8580000D02*
X20555000Y-8425000D01*
X20400000Y-8270000D01*
X20245000Y-8425000D01*
X20400000Y-8580000D01*
X20400000Y-11280000D02*
X20555000Y-11125000D01*
X20400000Y-10970000D01*
X20245000Y-11125000D01*
X20400000Y-11280000D01*
D14*
X16832500Y-11982500D02*
X17152500Y-12302500D01*
X17152500Y-11982500D02*
X16832500Y-12302500D01*
X17152500Y-12142500D02*
G75*
G02*
X16832500Y-12142500I-160000J0D01*
G01*
X16832500Y-12142500D02*
G75*
G02*
X17152500Y-12142500I160000J0D01*
G01*
X19315000Y-7932500D02*
X19635000Y-8252500D01*
X19635000Y-7932500D02*
X19315000Y-8252500D01*
X19635000Y-8092500D02*
G75*
G02*
X19315000Y-8092500I-160000J0D01*
G01*
X19315000Y-8092500D02*
G75*
G02*
X19635000Y-8092500I160000J0D01*
G01*
D11*
X15790777Y-13718984D02*
X15790777Y-13518984D01*
X15790777Y-13518984D02*
X15838396Y-13518984D01*
X15838396Y-13518984D02*
X15866967Y-13528508D01*
X15866967Y-13528508D02*
X15886015Y-13547555D01*
X15886015Y-13547555D02*
X15895539Y-13566603D01*
X15895539Y-13566603D02*
X15905062Y-13604698D01*
X15905062Y-13604698D02*
X15905062Y-13633269D01*
X15905062Y-13633269D02*
X15895539Y-13671365D01*
X15895539Y-13671365D02*
X15886015Y-13690412D01*
X15886015Y-13690412D02*
X15866967Y-13709460D01*
X15866967Y-13709460D02*
X15838396Y-13718984D01*
X15838396Y-13718984D02*
X15790777Y-13718984D01*
X15990777Y-13718984D02*
X15990777Y-13585650D01*
X15990777Y-13623746D02*
X16000301Y-13604698D01*
X16000301Y-13604698D02*
X16009824Y-13595174D01*
X16009824Y-13595174D02*
X16028872Y-13585650D01*
X16028872Y-13585650D02*
X16047920Y-13585650D01*
X16114586Y-13718984D02*
X16114586Y-13585650D01*
X16114586Y-13518984D02*
X16105062Y-13528508D01*
X16105062Y-13528508D02*
X16114586Y-13538031D01*
X16114586Y-13538031D02*
X16124110Y-13528508D01*
X16124110Y-13528508D02*
X16114586Y-13518984D01*
X16114586Y-13518984D02*
X16114586Y-13538031D01*
X16238396Y-13718984D02*
X16219348Y-13709460D01*
X16219348Y-13709460D02*
X16209824Y-13690412D01*
X16209824Y-13690412D02*
X16209824Y-13518984D01*
X16343158Y-13718984D02*
X16324110Y-13709460D01*
X16324110Y-13709460D02*
X16314586Y-13690412D01*
X16314586Y-13690412D02*
X16314586Y-13518984D01*
X16571729Y-13718984D02*
X16571729Y-13518984D01*
X16571729Y-13518984D02*
X16638396Y-13661841D01*
X16638396Y-13661841D02*
X16705062Y-13518984D01*
X16705062Y-13518984D02*
X16705062Y-13718984D01*
X16886015Y-13718984D02*
X16886015Y-13614222D01*
X16886015Y-13614222D02*
X16876491Y-13595174D01*
X16876491Y-13595174D02*
X16857444Y-13585650D01*
X16857444Y-13585650D02*
X16819348Y-13585650D01*
X16819348Y-13585650D02*
X16800301Y-13595174D01*
X16886015Y-13709460D02*
X16866967Y-13718984D01*
X16866967Y-13718984D02*
X16819348Y-13718984D01*
X16819348Y-13718984D02*
X16800301Y-13709460D01*
X16800301Y-13709460D02*
X16790777Y-13690412D01*
X16790777Y-13690412D02*
X16790777Y-13671365D01*
X16790777Y-13671365D02*
X16800301Y-13652317D01*
X16800301Y-13652317D02*
X16819348Y-13642793D01*
X16819348Y-13642793D02*
X16866967Y-13642793D01*
X16866967Y-13642793D02*
X16886015Y-13633269D01*
X16981253Y-13585650D02*
X16981253Y-13785650D01*
X16981253Y-13595174D02*
X17000301Y-13585650D01*
X17000301Y-13585650D02*
X17038396Y-13585650D01*
X17038396Y-13585650D02*
X17057444Y-13595174D01*
X17057444Y-13595174D02*
X17066967Y-13604698D01*
X17066967Y-13604698D02*
X17076491Y-13623746D01*
X17076491Y-13623746D02*
X17076491Y-13680888D01*
X17076491Y-13680888D02*
X17066967Y-13699936D01*
X17066967Y-13699936D02*
X17057444Y-13709460D01*
X17057444Y-13709460D02*
X17038396Y-13718984D01*
X17038396Y-13718984D02*
X17000301Y-13718984D01*
X17000301Y-13718984D02*
X16981253Y-13709460D01*
X17162205Y-13699936D02*
X17171729Y-13709460D01*
X17171729Y-13709460D02*
X17162205Y-13718984D01*
X17162205Y-13718984D02*
X17152682Y-13709460D01*
X17152682Y-13709460D02*
X17162205Y-13699936D01*
X17162205Y-13699936D02*
X17162205Y-13718984D01*
X17162205Y-13595174D02*
X17171729Y-13604698D01*
X17171729Y-13604698D02*
X17162205Y-13614222D01*
X17162205Y-13614222D02*
X17152682Y-13604698D01*
X17152682Y-13604698D02*
X17162205Y-13595174D01*
X17162205Y-13595174D02*
X17162205Y-13614222D01*
D10*
X15505000Y-14035000D02*
X15530000Y-14060000D01*
X15530000Y-14035000D02*
X15505000Y-14060000D01*
D11*
X15828872Y-13938984D02*
X15847920Y-13938984D01*
X15847920Y-13938984D02*
X15866967Y-13948508D01*
X15866967Y-13948508D02*
X15876491Y-13958031D01*
X15876491Y-13958031D02*
X15886015Y-13977079D01*
X15886015Y-13977079D02*
X15895539Y-14015174D01*
X15895539Y-14015174D02*
X15895539Y-14062793D01*
X15895539Y-14062793D02*
X15886015Y-14100888D01*
X15886015Y-14100888D02*
X15876491Y-14119936D01*
X15876491Y-14119936D02*
X15866967Y-14129460D01*
X15866967Y-14129460D02*
X15847920Y-14138984D01*
X15847920Y-14138984D02*
X15828872Y-14138984D01*
X15828872Y-14138984D02*
X15809824Y-14129460D01*
X15809824Y-14129460D02*
X15800301Y-14119936D01*
X15800301Y-14119936D02*
X15790777Y-14100888D01*
X15790777Y-14100888D02*
X15781253Y-14062793D01*
X15781253Y-14062793D02*
X15781253Y-14015174D01*
X15781253Y-14015174D02*
X15790777Y-13977079D01*
X15790777Y-13977079D02*
X15800301Y-13958031D01*
X15800301Y-13958031D02*
X15809824Y-13948508D01*
X15809824Y-13948508D02*
X15828872Y-13938984D01*
X15981253Y-14119936D02*
X15990777Y-14129460D01*
X15990777Y-14129460D02*
X15981253Y-14138984D01*
X15981253Y-14138984D02*
X15971729Y-14129460D01*
X15971729Y-14129460D02*
X15981253Y-14119936D01*
X15981253Y-14119936D02*
X15981253Y-14138984D01*
X16066967Y-13958031D02*
X16076491Y-13948508D01*
X16076491Y-13948508D02*
X16095539Y-13938984D01*
X16095539Y-13938984D02*
X16143158Y-13938984D01*
X16143158Y-13938984D02*
X16162205Y-13948508D01*
X16162205Y-13948508D02*
X16171729Y-13958031D01*
X16171729Y-13958031D02*
X16181253Y-13977079D01*
X16181253Y-13977079D02*
X16181253Y-13996127D01*
X16181253Y-13996127D02*
X16171729Y-14024698D01*
X16171729Y-14024698D02*
X16057443Y-14138984D01*
X16057443Y-14138984D02*
X16181253Y-14138984D01*
X16362205Y-13938984D02*
X16266967Y-13938984D01*
X16266967Y-13938984D02*
X16257443Y-14034222D01*
X16257443Y-14034222D02*
X16266967Y-14024698D01*
X16266967Y-14024698D02*
X16286015Y-14015174D01*
X16286015Y-14015174D02*
X16333634Y-14015174D01*
X16333634Y-14015174D02*
X16352682Y-14024698D01*
X16352682Y-14024698D02*
X16362205Y-14034222D01*
X16362205Y-14034222D02*
X16371729Y-14053269D01*
X16371729Y-14053269D02*
X16371729Y-14100888D01*
X16371729Y-14100888D02*
X16362205Y-14119936D01*
X16362205Y-14119936D02*
X16352682Y-14129460D01*
X16352682Y-14129460D02*
X16333634Y-14138984D01*
X16333634Y-14138984D02*
X16286015Y-14138984D01*
X16286015Y-14138984D02*
X16266967Y-14129460D01*
X16266967Y-14129460D02*
X16257443Y-14119936D01*
X16495539Y-13938984D02*
X16514586Y-13938984D01*
X16514586Y-13938984D02*
X16533634Y-13948508D01*
X16533634Y-13948508D02*
X16543158Y-13958031D01*
X16543158Y-13958031D02*
X16552682Y-13977079D01*
X16552682Y-13977079D02*
X16562205Y-14015174D01*
X16562205Y-14015174D02*
X16562205Y-14062793D01*
X16562205Y-14062793D02*
X16552682Y-14100888D01*
X16552682Y-14100888D02*
X16543158Y-14119936D01*
X16543158Y-14119936D02*
X16533634Y-14129460D01*
X16533634Y-14129460D02*
X16514586Y-14138984D01*
X16514586Y-14138984D02*
X16495539Y-14138984D01*
X16495539Y-14138984D02*
X16476491Y-14129460D01*
X16476491Y-14129460D02*
X16466967Y-14119936D01*
X16466967Y-14119936D02*
X16457443Y-14100888D01*
X16457443Y-14100888D02*
X16447920Y-14062793D01*
X16447920Y-14062793D02*
X16447920Y-14015174D01*
X16447920Y-14015174D02*
X16457443Y-13977079D01*
X16457443Y-13977079D02*
X16466967Y-13958031D01*
X16466967Y-13958031D02*
X16476491Y-13948508D01*
X16476491Y-13948508D02*
X16495539Y-13938984D01*
X16647920Y-14138984D02*
X16647920Y-14005650D01*
X16647920Y-14024698D02*
X16657443Y-14015174D01*
X16657443Y-14015174D02*
X16676491Y-14005650D01*
X16676491Y-14005650D02*
X16705063Y-14005650D01*
X16705063Y-14005650D02*
X16724110Y-14015174D01*
X16724110Y-14015174D02*
X16733634Y-14034222D01*
X16733634Y-14034222D02*
X16733634Y-14138984D01*
X16733634Y-14034222D02*
X16743158Y-14015174D01*
X16743158Y-14015174D02*
X16762205Y-14005650D01*
X16762205Y-14005650D02*
X16790777Y-14005650D01*
X16790777Y-14005650D02*
X16809825Y-14015174D01*
X16809825Y-14015174D02*
X16819348Y-14034222D01*
X16819348Y-14034222D02*
X16819348Y-14138984D01*
X16914586Y-14138984D02*
X16914586Y-14005650D01*
X16914586Y-14024698D02*
X16924110Y-14015174D01*
X16924110Y-14015174D02*
X16943158Y-14005650D01*
X16943158Y-14005650D02*
X16971729Y-14005650D01*
X16971729Y-14005650D02*
X16990777Y-14015174D01*
X16990777Y-14015174D02*
X17000301Y-14034222D01*
X17000301Y-14034222D02*
X17000301Y-14138984D01*
X17000301Y-14034222D02*
X17009825Y-14015174D01*
X17009825Y-14015174D02*
X17028872Y-14005650D01*
X17028872Y-14005650D02*
X17057444Y-14005650D01*
X17057444Y-14005650D02*
X17076491Y-14015174D01*
X17076491Y-14015174D02*
X17086015Y-14034222D01*
X17086015Y-14034222D02*
X17086015Y-14138984D01*
X17476491Y-13929460D02*
X17305063Y-14186603D01*
X17733634Y-13938984D02*
X17752682Y-13938984D01*
X17752682Y-13938984D02*
X17771729Y-13948508D01*
X17771729Y-13948508D02*
X17781253Y-13958031D01*
X17781253Y-13958031D02*
X17790777Y-13977079D01*
X17790777Y-13977079D02*
X17800301Y-14015174D01*
X17800301Y-14015174D02*
X17800301Y-14062793D01*
X17800301Y-14062793D02*
X17790777Y-14100888D01*
X17790777Y-14100888D02*
X17781253Y-14119936D01*
X17781253Y-14119936D02*
X17771729Y-14129460D01*
X17771729Y-14129460D02*
X17752682Y-14138984D01*
X17752682Y-14138984D02*
X17733634Y-14138984D01*
X17733634Y-14138984D02*
X17714587Y-14129460D01*
X17714587Y-14129460D02*
X17705063Y-14119936D01*
X17705063Y-14119936D02*
X17695539Y-14100888D01*
X17695539Y-14100888D02*
X17686015Y-14062793D01*
X17686015Y-14062793D02*
X17686015Y-14015174D01*
X17686015Y-14015174D02*
X17695539Y-13977079D01*
X17695539Y-13977079D02*
X17705063Y-13958031D01*
X17705063Y-13958031D02*
X17714587Y-13948508D01*
X17714587Y-13948508D02*
X17733634Y-13938984D01*
X17886015Y-14119936D02*
X17895539Y-14129460D01*
X17895539Y-14129460D02*
X17886015Y-14138984D01*
X17886015Y-14138984D02*
X17876491Y-14129460D01*
X17876491Y-14129460D02*
X17886015Y-14119936D01*
X17886015Y-14119936D02*
X17886015Y-14138984D01*
X18019348Y-13938984D02*
X18038396Y-13938984D01*
X18038396Y-13938984D02*
X18057444Y-13948508D01*
X18057444Y-13948508D02*
X18066968Y-13958031D01*
X18066968Y-13958031D02*
X18076491Y-13977079D01*
X18076491Y-13977079D02*
X18086015Y-14015174D01*
X18086015Y-14015174D02*
X18086015Y-14062793D01*
X18086015Y-14062793D02*
X18076491Y-14100888D01*
X18076491Y-14100888D02*
X18066968Y-14119936D01*
X18066968Y-14119936D02*
X18057444Y-14129460D01*
X18057444Y-14129460D02*
X18038396Y-14138984D01*
X18038396Y-14138984D02*
X18019348Y-14138984D01*
X18019348Y-14138984D02*
X18000301Y-14129460D01*
X18000301Y-14129460D02*
X17990777Y-14119936D01*
X17990777Y-14119936D02*
X17981253Y-14100888D01*
X17981253Y-14100888D02*
X17971729Y-14062793D01*
X17971729Y-14062793D02*
X17971729Y-14015174D01*
X17971729Y-14015174D02*
X17981253Y-13977079D01*
X17981253Y-13977079D02*
X17990777Y-13958031D01*
X17990777Y-13958031D02*
X18000301Y-13948508D01*
X18000301Y-13948508D02*
X18019348Y-13938984D01*
X18209825Y-13938984D02*
X18228872Y-13938984D01*
X18228872Y-13938984D02*
X18247920Y-13948508D01*
X18247920Y-13948508D02*
X18257444Y-13958031D01*
X18257444Y-13958031D02*
X18266968Y-13977079D01*
X18266968Y-13977079D02*
X18276491Y-14015174D01*
X18276491Y-14015174D02*
X18276491Y-14062793D01*
X18276491Y-14062793D02*
X18266968Y-14100888D01*
X18266968Y-14100888D02*
X18257444Y-14119936D01*
X18257444Y-14119936D02*
X18247920Y-14129460D01*
X18247920Y-14129460D02*
X18228872Y-14138984D01*
X18228872Y-14138984D02*
X18209825Y-14138984D01*
X18209825Y-14138984D02*
X18190777Y-14129460D01*
X18190777Y-14129460D02*
X18181253Y-14119936D01*
X18181253Y-14119936D02*
X18171729Y-14100888D01*
X18171729Y-14100888D02*
X18162206Y-14062793D01*
X18162206Y-14062793D02*
X18162206Y-14015174D01*
X18162206Y-14015174D02*
X18171729Y-13977079D01*
X18171729Y-13977079D02*
X18181253Y-13958031D01*
X18181253Y-13958031D02*
X18190777Y-13948508D01*
X18190777Y-13948508D02*
X18209825Y-13938984D01*
X18371729Y-14138984D02*
X18409825Y-14138984D01*
X18409825Y-14138984D02*
X18428872Y-14129460D01*
X18428872Y-14129460D02*
X18438396Y-14119936D01*
X18438396Y-14119936D02*
X18457444Y-14091365D01*
X18457444Y-14091365D02*
X18466968Y-14053269D01*
X18466968Y-14053269D02*
X18466968Y-13977079D01*
X18466968Y-13977079D02*
X18457444Y-13958031D01*
X18457444Y-13958031D02*
X18447920Y-13948508D01*
X18447920Y-13948508D02*
X18428872Y-13938984D01*
X18428872Y-13938984D02*
X18390777Y-13938984D01*
X18390777Y-13938984D02*
X18371729Y-13948508D01*
X18371729Y-13948508D02*
X18362206Y-13958031D01*
X18362206Y-13958031D02*
X18352682Y-13977079D01*
X18352682Y-13977079D02*
X18352682Y-14024698D01*
X18352682Y-14024698D02*
X18362206Y-14043746D01*
X18362206Y-14043746D02*
X18371729Y-14053269D01*
X18371729Y-14053269D02*
X18390777Y-14062793D01*
X18390777Y-14062793D02*
X18428872Y-14062793D01*
X18428872Y-14062793D02*
X18447920Y-14053269D01*
X18447920Y-14053269D02*
X18457444Y-14043746D01*
X18457444Y-14043746D02*
X18466968Y-14024698D01*
X18581253Y-14024698D02*
X18562206Y-14015174D01*
X18562206Y-14015174D02*
X18552682Y-14005650D01*
X18552682Y-14005650D02*
X18543158Y-13986603D01*
X18543158Y-13986603D02*
X18543158Y-13977079D01*
X18543158Y-13977079D02*
X18552682Y-13958031D01*
X18552682Y-13958031D02*
X18562206Y-13948508D01*
X18562206Y-13948508D02*
X18581253Y-13938984D01*
X18581253Y-13938984D02*
X18619349Y-13938984D01*
X18619349Y-13938984D02*
X18638396Y-13948508D01*
X18638396Y-13948508D02*
X18647920Y-13958031D01*
X18647920Y-13958031D02*
X18657444Y-13977079D01*
X18657444Y-13977079D02*
X18657444Y-13986603D01*
X18657444Y-13986603D02*
X18647920Y-14005650D01*
X18647920Y-14005650D02*
X18638396Y-14015174D01*
X18638396Y-14015174D02*
X18619349Y-14024698D01*
X18619349Y-14024698D02*
X18581253Y-14024698D01*
X18581253Y-14024698D02*
X18562206Y-14034222D01*
X18562206Y-14034222D02*
X18552682Y-14043746D01*
X18552682Y-14043746D02*
X18543158Y-14062793D01*
X18543158Y-14062793D02*
X18543158Y-14100888D01*
X18543158Y-14100888D02*
X18552682Y-14119936D01*
X18552682Y-14119936D02*
X18562206Y-14129460D01*
X18562206Y-14129460D02*
X18581253Y-14138984D01*
X18581253Y-14138984D02*
X18619349Y-14138984D01*
X18619349Y-14138984D02*
X18638396Y-14129460D01*
X18638396Y-14129460D02*
X18647920Y-14119936D01*
X18647920Y-14119936D02*
X18657444Y-14100888D01*
X18657444Y-14100888D02*
X18657444Y-14062793D01*
X18657444Y-14062793D02*
X18647920Y-14043746D01*
X18647920Y-14043746D02*
X18638396Y-14034222D01*
X18638396Y-14034222D02*
X18619349Y-14024698D01*
X18733634Y-13938984D02*
X18733634Y-13977079D01*
X18809825Y-13938984D02*
X18809825Y-13977079D01*
X19105063Y-14215174D02*
X19095539Y-14205650D01*
X19095539Y-14205650D02*
X19076491Y-14177079D01*
X19076491Y-14177079D02*
X19066968Y-14158031D01*
X19066968Y-14158031D02*
X19057444Y-14129460D01*
X19057444Y-14129460D02*
X19047920Y-14081841D01*
X19047920Y-14081841D02*
X19047920Y-14043746D01*
X19047920Y-14043746D02*
X19057444Y-13996127D01*
X19057444Y-13996127D02*
X19066968Y-13967555D01*
X19066968Y-13967555D02*
X19076491Y-13948508D01*
X19076491Y-13948508D02*
X19095539Y-13919936D01*
X19095539Y-13919936D02*
X19105063Y-13910412D01*
X19190777Y-14138984D02*
X19228872Y-14138984D01*
X19228872Y-14138984D02*
X19247920Y-14129460D01*
X19247920Y-14129460D02*
X19257444Y-14119936D01*
X19257444Y-14119936D02*
X19276491Y-14091365D01*
X19276491Y-14091365D02*
X19286015Y-14053269D01*
X19286015Y-14053269D02*
X19286015Y-13977079D01*
X19286015Y-13977079D02*
X19276491Y-13958031D01*
X19276491Y-13958031D02*
X19266968Y-13948508D01*
X19266968Y-13948508D02*
X19247920Y-13938984D01*
X19247920Y-13938984D02*
X19209825Y-13938984D01*
X19209825Y-13938984D02*
X19190777Y-13948508D01*
X19190777Y-13948508D02*
X19181253Y-13958031D01*
X19181253Y-13958031D02*
X19171730Y-13977079D01*
X19171730Y-13977079D02*
X19171730Y-14024698D01*
X19171730Y-14024698D02*
X19181253Y-14043746D01*
X19181253Y-14043746D02*
X19190777Y-14053269D01*
X19190777Y-14053269D02*
X19209825Y-14062793D01*
X19209825Y-14062793D02*
X19247920Y-14062793D01*
X19247920Y-14062793D02*
X19266968Y-14053269D01*
X19266968Y-14053269D02*
X19276491Y-14043746D01*
X19276491Y-14043746D02*
X19286015Y-14024698D01*
X19466968Y-13938984D02*
X19371730Y-13938984D01*
X19371730Y-13938984D02*
X19362206Y-14034222D01*
X19362206Y-14034222D02*
X19371730Y-14024698D01*
X19371730Y-14024698D02*
X19390777Y-14015174D01*
X19390777Y-14015174D02*
X19438396Y-14015174D01*
X19438396Y-14015174D02*
X19457444Y-14024698D01*
X19457444Y-14024698D02*
X19466968Y-14034222D01*
X19466968Y-14034222D02*
X19476491Y-14053269D01*
X19476491Y-14053269D02*
X19476491Y-14100888D01*
X19476491Y-14100888D02*
X19466968Y-14119936D01*
X19466968Y-14119936D02*
X19457444Y-14129460D01*
X19457444Y-14129460D02*
X19438396Y-14138984D01*
X19438396Y-14138984D02*
X19390777Y-14138984D01*
X19390777Y-14138984D02*
X19371730Y-14129460D01*
X19371730Y-14129460D02*
X19362206Y-14119936D01*
X19714587Y-14138984D02*
X19714587Y-13938984D01*
X19800301Y-14138984D02*
X19800301Y-14034222D01*
X19800301Y-14034222D02*
X19790777Y-14015174D01*
X19790777Y-14015174D02*
X19771730Y-14005650D01*
X19771730Y-14005650D02*
X19743158Y-14005650D01*
X19743158Y-14005650D02*
X19724111Y-14015174D01*
X19724111Y-14015174D02*
X19714587Y-14024698D01*
X19924111Y-14138984D02*
X19905063Y-14129460D01*
X19905063Y-14129460D02*
X19895539Y-14119936D01*
X19895539Y-14119936D02*
X19886015Y-14100888D01*
X19886015Y-14100888D02*
X19886015Y-14043746D01*
X19886015Y-14043746D02*
X19895539Y-14024698D01*
X19895539Y-14024698D02*
X19905063Y-14015174D01*
X19905063Y-14015174D02*
X19924111Y-14005650D01*
X19924111Y-14005650D02*
X19952682Y-14005650D01*
X19952682Y-14005650D02*
X19971730Y-14015174D01*
X19971730Y-14015174D02*
X19981253Y-14024698D01*
X19981253Y-14024698D02*
X19990777Y-14043746D01*
X19990777Y-14043746D02*
X19990777Y-14100888D01*
X19990777Y-14100888D02*
X19981253Y-14119936D01*
X19981253Y-14119936D02*
X19971730Y-14129460D01*
X19971730Y-14129460D02*
X19952682Y-14138984D01*
X19952682Y-14138984D02*
X19924111Y-14138984D01*
X20105063Y-14138984D02*
X20086015Y-14129460D01*
X20086015Y-14129460D02*
X20076492Y-14110412D01*
X20076492Y-14110412D02*
X20076492Y-13938984D01*
X20257444Y-14129460D02*
X20238396Y-14138984D01*
X20238396Y-14138984D02*
X20200301Y-14138984D01*
X20200301Y-14138984D02*
X20181253Y-14129460D01*
X20181253Y-14129460D02*
X20171730Y-14110412D01*
X20171730Y-14110412D02*
X20171730Y-14034222D01*
X20171730Y-14034222D02*
X20181253Y-14015174D01*
X20181253Y-14015174D02*
X20200301Y-14005650D01*
X20200301Y-14005650D02*
X20238396Y-14005650D01*
X20238396Y-14005650D02*
X20257444Y-14015174D01*
X20257444Y-14015174D02*
X20266968Y-14034222D01*
X20266968Y-14034222D02*
X20266968Y-14053269D01*
X20266968Y-14053269D02*
X20171730Y-14072317D01*
X20343158Y-14129460D02*
X20362206Y-14138984D01*
X20362206Y-14138984D02*
X20400301Y-14138984D01*
X20400301Y-14138984D02*
X20419349Y-14129460D01*
X20419349Y-14129460D02*
X20428873Y-14110412D01*
X20428873Y-14110412D02*
X20428873Y-14100888D01*
X20428873Y-14100888D02*
X20419349Y-14081841D01*
X20419349Y-14081841D02*
X20400301Y-14072317D01*
X20400301Y-14072317D02*
X20371730Y-14072317D01*
X20371730Y-14072317D02*
X20352682Y-14062793D01*
X20352682Y-14062793D02*
X20343158Y-14043746D01*
X20343158Y-14043746D02*
X20343158Y-14034222D01*
X20343158Y-14034222D02*
X20352682Y-14015174D01*
X20352682Y-14015174D02*
X20371730Y-14005650D01*
X20371730Y-14005650D02*
X20400301Y-14005650D01*
X20400301Y-14005650D02*
X20419349Y-14015174D01*
X20495539Y-14215174D02*
X20505063Y-14205650D01*
X20505063Y-14205650D02*
X20524111Y-14177079D01*
X20524111Y-14177079D02*
X20533634Y-14158031D01*
X20533634Y-14158031D02*
X20543158Y-14129460D01*
X20543158Y-14129460D02*
X20552682Y-14081841D01*
X20552682Y-14081841D02*
X20552682Y-14043746D01*
X20552682Y-14043746D02*
X20543158Y-13996127D01*
X20543158Y-13996127D02*
X20533634Y-13967555D01*
X20533634Y-13967555D02*
X20524111Y-13948508D01*
X20524111Y-13948508D02*
X20505063Y-13919936D01*
X20505063Y-13919936D02*
X20495539Y-13910412D01*
D10*
X15530000Y-14311500D02*
G75*
G02*
X15500000Y-14311500I-15000J0D01*
G01*
X15500000Y-14311500D02*
G75*
G02*
X15530000Y-14311500I15000J0D01*
G01*
D11*
X15828872Y-14202984D02*
X15847920Y-14202984D01*
X15847920Y-14202984D02*
X15866967Y-14212508D01*
X15866967Y-14212508D02*
X15876491Y-14222031D01*
X15876491Y-14222031D02*
X15886015Y-14241079D01*
X15886015Y-14241079D02*
X15895539Y-14279174D01*
X15895539Y-14279174D02*
X15895539Y-14326793D01*
X15895539Y-14326793D02*
X15886015Y-14364888D01*
X15886015Y-14364888D02*
X15876491Y-14383936D01*
X15876491Y-14383936D02*
X15866967Y-14393460D01*
X15866967Y-14393460D02*
X15847920Y-14402984D01*
X15847920Y-14402984D02*
X15828872Y-14402984D01*
X15828872Y-14402984D02*
X15809824Y-14393460D01*
X15809824Y-14393460D02*
X15800301Y-14383936D01*
X15800301Y-14383936D02*
X15790777Y-14364888D01*
X15790777Y-14364888D02*
X15781253Y-14326793D01*
X15781253Y-14326793D02*
X15781253Y-14279174D01*
X15781253Y-14279174D02*
X15790777Y-14241079D01*
X15790777Y-14241079D02*
X15800301Y-14222031D01*
X15800301Y-14222031D02*
X15809824Y-14212508D01*
X15809824Y-14212508D02*
X15828872Y-14202984D01*
X15981253Y-14383936D02*
X15990777Y-14393460D01*
X15990777Y-14393460D02*
X15981253Y-14402984D01*
X15981253Y-14402984D02*
X15971729Y-14393460D01*
X15971729Y-14393460D02*
X15981253Y-14383936D01*
X15981253Y-14383936D02*
X15981253Y-14402984D01*
X16057443Y-14202984D02*
X16181253Y-14202984D01*
X16181253Y-14202984D02*
X16114586Y-14279174D01*
X16114586Y-14279174D02*
X16143158Y-14279174D01*
X16143158Y-14279174D02*
X16162205Y-14288698D01*
X16162205Y-14288698D02*
X16171729Y-14298222D01*
X16171729Y-14298222D02*
X16181253Y-14317269D01*
X16181253Y-14317269D02*
X16181253Y-14364888D01*
X16181253Y-14364888D02*
X16171729Y-14383936D01*
X16171729Y-14383936D02*
X16162205Y-14393460D01*
X16162205Y-14393460D02*
X16143158Y-14402984D01*
X16143158Y-14402984D02*
X16086015Y-14402984D01*
X16086015Y-14402984D02*
X16066967Y-14393460D01*
X16066967Y-14393460D02*
X16057443Y-14383936D01*
X16305062Y-14202984D02*
X16324110Y-14202984D01*
X16324110Y-14202984D02*
X16343158Y-14212508D01*
X16343158Y-14212508D02*
X16352682Y-14222031D01*
X16352682Y-14222031D02*
X16362205Y-14241079D01*
X16362205Y-14241079D02*
X16371729Y-14279174D01*
X16371729Y-14279174D02*
X16371729Y-14326793D01*
X16371729Y-14326793D02*
X16362205Y-14364888D01*
X16362205Y-14364888D02*
X16352682Y-14383936D01*
X16352682Y-14383936D02*
X16343158Y-14393460D01*
X16343158Y-14393460D02*
X16324110Y-14402984D01*
X16324110Y-14402984D02*
X16305062Y-14402984D01*
X16305062Y-14402984D02*
X16286015Y-14393460D01*
X16286015Y-14393460D02*
X16276491Y-14383936D01*
X16276491Y-14383936D02*
X16266967Y-14364888D01*
X16266967Y-14364888D02*
X16257443Y-14326793D01*
X16257443Y-14326793D02*
X16257443Y-14279174D01*
X16257443Y-14279174D02*
X16266967Y-14241079D01*
X16266967Y-14241079D02*
X16276491Y-14222031D01*
X16276491Y-14222031D02*
X16286015Y-14212508D01*
X16286015Y-14212508D02*
X16305062Y-14202984D01*
X16495539Y-14202984D02*
X16514586Y-14202984D01*
X16514586Y-14202984D02*
X16533634Y-14212508D01*
X16533634Y-14212508D02*
X16543158Y-14222031D01*
X16543158Y-14222031D02*
X16552682Y-14241079D01*
X16552682Y-14241079D02*
X16562205Y-14279174D01*
X16562205Y-14279174D02*
X16562205Y-14326793D01*
X16562205Y-14326793D02*
X16552682Y-14364888D01*
X16552682Y-14364888D02*
X16543158Y-14383936D01*
X16543158Y-14383936D02*
X16533634Y-14393460D01*
X16533634Y-14393460D02*
X16514586Y-14402984D01*
X16514586Y-14402984D02*
X16495539Y-14402984D01*
X16495539Y-14402984D02*
X16476491Y-14393460D01*
X16476491Y-14393460D02*
X16466967Y-14383936D01*
X16466967Y-14383936D02*
X16457443Y-14364888D01*
X16457443Y-14364888D02*
X16447920Y-14326793D01*
X16447920Y-14326793D02*
X16447920Y-14279174D01*
X16447920Y-14279174D02*
X16457443Y-14241079D01*
X16457443Y-14241079D02*
X16466967Y-14222031D01*
X16466967Y-14222031D02*
X16476491Y-14212508D01*
X16476491Y-14212508D02*
X16495539Y-14202984D01*
X16647920Y-14402984D02*
X16647920Y-14269650D01*
X16647920Y-14288698D02*
X16657443Y-14279174D01*
X16657443Y-14279174D02*
X16676491Y-14269650D01*
X16676491Y-14269650D02*
X16705063Y-14269650D01*
X16705063Y-14269650D02*
X16724110Y-14279174D01*
X16724110Y-14279174D02*
X16733634Y-14298222D01*
X16733634Y-14298222D02*
X16733634Y-14402984D01*
X16733634Y-14298222D02*
X16743158Y-14279174D01*
X16743158Y-14279174D02*
X16762205Y-14269650D01*
X16762205Y-14269650D02*
X16790777Y-14269650D01*
X16790777Y-14269650D02*
X16809825Y-14279174D01*
X16809825Y-14279174D02*
X16819348Y-14298222D01*
X16819348Y-14298222D02*
X16819348Y-14402984D01*
X16914586Y-14402984D02*
X16914586Y-14269650D01*
X16914586Y-14288698D02*
X16924110Y-14279174D01*
X16924110Y-14279174D02*
X16943158Y-14269650D01*
X16943158Y-14269650D02*
X16971729Y-14269650D01*
X16971729Y-14269650D02*
X16990777Y-14279174D01*
X16990777Y-14279174D02*
X17000301Y-14298222D01*
X17000301Y-14298222D02*
X17000301Y-14402984D01*
X17000301Y-14298222D02*
X17009825Y-14279174D01*
X17009825Y-14279174D02*
X17028872Y-14269650D01*
X17028872Y-14269650D02*
X17057444Y-14269650D01*
X17057444Y-14269650D02*
X17076491Y-14279174D01*
X17076491Y-14279174D02*
X17086015Y-14298222D01*
X17086015Y-14298222D02*
X17086015Y-14402984D01*
X17476491Y-14193460D02*
X17305063Y-14450603D01*
X17733634Y-14202984D02*
X17752682Y-14202984D01*
X17752682Y-14202984D02*
X17771729Y-14212508D01*
X17771729Y-14212508D02*
X17781253Y-14222031D01*
X17781253Y-14222031D02*
X17790777Y-14241079D01*
X17790777Y-14241079D02*
X17800301Y-14279174D01*
X17800301Y-14279174D02*
X17800301Y-14326793D01*
X17800301Y-14326793D02*
X17790777Y-14364888D01*
X17790777Y-14364888D02*
X17781253Y-14383936D01*
X17781253Y-14383936D02*
X17771729Y-14393460D01*
X17771729Y-14393460D02*
X17752682Y-14402984D01*
X17752682Y-14402984D02*
X17733634Y-14402984D01*
X17733634Y-14402984D02*
X17714587Y-14393460D01*
X17714587Y-14393460D02*
X17705063Y-14383936D01*
X17705063Y-14383936D02*
X17695539Y-14364888D01*
X17695539Y-14364888D02*
X17686015Y-14326793D01*
X17686015Y-14326793D02*
X17686015Y-14279174D01*
X17686015Y-14279174D02*
X17695539Y-14241079D01*
X17695539Y-14241079D02*
X17705063Y-14222031D01*
X17705063Y-14222031D02*
X17714587Y-14212508D01*
X17714587Y-14212508D02*
X17733634Y-14202984D01*
X17886015Y-14383936D02*
X17895539Y-14393460D01*
X17895539Y-14393460D02*
X17886015Y-14402984D01*
X17886015Y-14402984D02*
X17876491Y-14393460D01*
X17876491Y-14393460D02*
X17886015Y-14383936D01*
X17886015Y-14383936D02*
X17886015Y-14402984D01*
X18019348Y-14202984D02*
X18038396Y-14202984D01*
X18038396Y-14202984D02*
X18057444Y-14212508D01*
X18057444Y-14212508D02*
X18066968Y-14222031D01*
X18066968Y-14222031D02*
X18076491Y-14241079D01*
X18076491Y-14241079D02*
X18086015Y-14279174D01*
X18086015Y-14279174D02*
X18086015Y-14326793D01*
X18086015Y-14326793D02*
X18076491Y-14364888D01*
X18076491Y-14364888D02*
X18066968Y-14383936D01*
X18066968Y-14383936D02*
X18057444Y-14393460D01*
X18057444Y-14393460D02*
X18038396Y-14402984D01*
X18038396Y-14402984D02*
X18019348Y-14402984D01*
X18019348Y-14402984D02*
X18000301Y-14393460D01*
X18000301Y-14393460D02*
X17990777Y-14383936D01*
X17990777Y-14383936D02*
X17981253Y-14364888D01*
X17981253Y-14364888D02*
X17971729Y-14326793D01*
X17971729Y-14326793D02*
X17971729Y-14279174D01*
X17971729Y-14279174D02*
X17981253Y-14241079D01*
X17981253Y-14241079D02*
X17990777Y-14222031D01*
X17990777Y-14222031D02*
X18000301Y-14212508D01*
X18000301Y-14212508D02*
X18019348Y-14202984D01*
X18276491Y-14402984D02*
X18162206Y-14402984D01*
X18219348Y-14402984D02*
X18219348Y-14202984D01*
X18219348Y-14202984D02*
X18200301Y-14231555D01*
X18200301Y-14231555D02*
X18181253Y-14250603D01*
X18181253Y-14250603D02*
X18162206Y-14260127D01*
X18466968Y-14402984D02*
X18352682Y-14402984D01*
X18409825Y-14402984D02*
X18409825Y-14202984D01*
X18409825Y-14202984D02*
X18390777Y-14231555D01*
X18390777Y-14231555D02*
X18371729Y-14250603D01*
X18371729Y-14250603D02*
X18352682Y-14260127D01*
X18581253Y-14288698D02*
X18562206Y-14279174D01*
X18562206Y-14279174D02*
X18552682Y-14269650D01*
X18552682Y-14269650D02*
X18543158Y-14250603D01*
X18543158Y-14250603D02*
X18543158Y-14241079D01*
X18543158Y-14241079D02*
X18552682Y-14222031D01*
X18552682Y-14222031D02*
X18562206Y-14212508D01*
X18562206Y-14212508D02*
X18581253Y-14202984D01*
X18581253Y-14202984D02*
X18619349Y-14202984D01*
X18619349Y-14202984D02*
X18638396Y-14212508D01*
X18638396Y-14212508D02*
X18647920Y-14222031D01*
X18647920Y-14222031D02*
X18657444Y-14241079D01*
X18657444Y-14241079D02*
X18657444Y-14250603D01*
X18657444Y-14250603D02*
X18647920Y-14269650D01*
X18647920Y-14269650D02*
X18638396Y-14279174D01*
X18638396Y-14279174D02*
X18619349Y-14288698D01*
X18619349Y-14288698D02*
X18581253Y-14288698D01*
X18581253Y-14288698D02*
X18562206Y-14298222D01*
X18562206Y-14298222D02*
X18552682Y-14307746D01*
X18552682Y-14307746D02*
X18543158Y-14326793D01*
X18543158Y-14326793D02*
X18543158Y-14364888D01*
X18543158Y-14364888D02*
X18552682Y-14383936D01*
X18552682Y-14383936D02*
X18562206Y-14393460D01*
X18562206Y-14393460D02*
X18581253Y-14402984D01*
X18581253Y-14402984D02*
X18619349Y-14402984D01*
X18619349Y-14402984D02*
X18638396Y-14393460D01*
X18638396Y-14393460D02*
X18647920Y-14383936D01*
X18647920Y-14383936D02*
X18657444Y-14364888D01*
X18657444Y-14364888D02*
X18657444Y-14326793D01*
X18657444Y-14326793D02*
X18647920Y-14307746D01*
X18647920Y-14307746D02*
X18638396Y-14298222D01*
X18638396Y-14298222D02*
X18619349Y-14288698D01*
X18733634Y-14202984D02*
X18733634Y-14241079D01*
X18809825Y-14202984D02*
X18809825Y-14241079D01*
X19105063Y-14479174D02*
X19095539Y-14469650D01*
X19095539Y-14469650D02*
X19076491Y-14441079D01*
X19076491Y-14441079D02*
X19066968Y-14422031D01*
X19066968Y-14422031D02*
X19057444Y-14393460D01*
X19057444Y-14393460D02*
X19047920Y-14345841D01*
X19047920Y-14345841D02*
X19047920Y-14307746D01*
X19047920Y-14307746D02*
X19057444Y-14260127D01*
X19057444Y-14260127D02*
X19066968Y-14231555D01*
X19066968Y-14231555D02*
X19076491Y-14212508D01*
X19076491Y-14212508D02*
X19095539Y-14183936D01*
X19095539Y-14183936D02*
X19105063Y-14174412D01*
X19286015Y-14402984D02*
X19171730Y-14402984D01*
X19228872Y-14402984D02*
X19228872Y-14202984D01*
X19228872Y-14202984D02*
X19209825Y-14231555D01*
X19209825Y-14231555D02*
X19190777Y-14250603D01*
X19190777Y-14250603D02*
X19171730Y-14260127D01*
X19524111Y-14402984D02*
X19524111Y-14202984D01*
X19609825Y-14402984D02*
X19609825Y-14298222D01*
X19609825Y-14298222D02*
X19600301Y-14279174D01*
X19600301Y-14279174D02*
X19581253Y-14269650D01*
X19581253Y-14269650D02*
X19552682Y-14269650D01*
X19552682Y-14269650D02*
X19533634Y-14279174D01*
X19533634Y-14279174D02*
X19524111Y-14288698D01*
X19733634Y-14402984D02*
X19714587Y-14393460D01*
X19714587Y-14393460D02*
X19705063Y-14383936D01*
X19705063Y-14383936D02*
X19695539Y-14364888D01*
X19695539Y-14364888D02*
X19695539Y-14307746D01*
X19695539Y-14307746D02*
X19705063Y-14288698D01*
X19705063Y-14288698D02*
X19714587Y-14279174D01*
X19714587Y-14279174D02*
X19733634Y-14269650D01*
X19733634Y-14269650D02*
X19762206Y-14269650D01*
X19762206Y-14269650D02*
X19781253Y-14279174D01*
X19781253Y-14279174D02*
X19790777Y-14288698D01*
X19790777Y-14288698D02*
X19800301Y-14307746D01*
X19800301Y-14307746D02*
X19800301Y-14364888D01*
X19800301Y-14364888D02*
X19790777Y-14383936D01*
X19790777Y-14383936D02*
X19781253Y-14393460D01*
X19781253Y-14393460D02*
X19762206Y-14402984D01*
X19762206Y-14402984D02*
X19733634Y-14402984D01*
X19914587Y-14402984D02*
X19895539Y-14393460D01*
X19895539Y-14393460D02*
X19886015Y-14374412D01*
X19886015Y-14374412D02*
X19886015Y-14202984D01*
X20066968Y-14393460D02*
X20047920Y-14402984D01*
X20047920Y-14402984D02*
X20009825Y-14402984D01*
X20009825Y-14402984D02*
X19990777Y-14393460D01*
X19990777Y-14393460D02*
X19981253Y-14374412D01*
X19981253Y-14374412D02*
X19981253Y-14298222D01*
X19981253Y-14298222D02*
X19990777Y-14279174D01*
X19990777Y-14279174D02*
X20009825Y-14269650D01*
X20009825Y-14269650D02*
X20047920Y-14269650D01*
X20047920Y-14269650D02*
X20066968Y-14279174D01*
X20066968Y-14279174D02*
X20076492Y-14298222D01*
X20076492Y-14298222D02*
X20076492Y-14317269D01*
X20076492Y-14317269D02*
X19981253Y-14336317D01*
X20143158Y-14479174D02*
X20152682Y-14469650D01*
X20152682Y-14469650D02*
X20171730Y-14441079D01*
X20171730Y-14441079D02*
X20181253Y-14422031D01*
X20181253Y-14422031D02*
X20190777Y-14393460D01*
X20190777Y-14393460D02*
X20200301Y-14345841D01*
X20200301Y-14345841D02*
X20200301Y-14307746D01*
X20200301Y-14307746D02*
X20190777Y-14260127D01*
X20190777Y-14260127D02*
X20181253Y-14231555D01*
X20181253Y-14231555D02*
X20171730Y-14212508D01*
X20171730Y-14212508D02*
X20152682Y-14183936D01*
X20152682Y-14183936D02*
X20143158Y-14174412D01*
D10*
X15480000Y-14525500D02*
X15480000Y-14625500D01*
X15430000Y-14575500D02*
X15530000Y-14575500D01*
D11*
X15895539Y-14666984D02*
X15781253Y-14666984D01*
X15838396Y-14666984D02*
X15838396Y-14466984D01*
X15838396Y-14466984D02*
X15819348Y-14495555D01*
X15819348Y-14495555D02*
X15800301Y-14514603D01*
X15800301Y-14514603D02*
X15781253Y-14524127D01*
X15981253Y-14647936D02*
X15990777Y-14657460D01*
X15990777Y-14657460D02*
X15981253Y-14666984D01*
X15981253Y-14666984D02*
X15971729Y-14657460D01*
X15971729Y-14657460D02*
X15981253Y-14647936D01*
X15981253Y-14647936D02*
X15981253Y-14666984D01*
X16114586Y-14466984D02*
X16133634Y-14466984D01*
X16133634Y-14466984D02*
X16152682Y-14476508D01*
X16152682Y-14476508D02*
X16162205Y-14486031D01*
X16162205Y-14486031D02*
X16171729Y-14505079D01*
X16171729Y-14505079D02*
X16181253Y-14543174D01*
X16181253Y-14543174D02*
X16181253Y-14590793D01*
X16181253Y-14590793D02*
X16171729Y-14628888D01*
X16171729Y-14628888D02*
X16162205Y-14647936D01*
X16162205Y-14647936D02*
X16152682Y-14657460D01*
X16152682Y-14657460D02*
X16133634Y-14666984D01*
X16133634Y-14666984D02*
X16114586Y-14666984D01*
X16114586Y-14666984D02*
X16095539Y-14657460D01*
X16095539Y-14657460D02*
X16086015Y-14647936D01*
X16086015Y-14647936D02*
X16076491Y-14628888D01*
X16076491Y-14628888D02*
X16066967Y-14590793D01*
X16066967Y-14590793D02*
X16066967Y-14543174D01*
X16066967Y-14543174D02*
X16076491Y-14505079D01*
X16076491Y-14505079D02*
X16086015Y-14486031D01*
X16086015Y-14486031D02*
X16095539Y-14476508D01*
X16095539Y-14476508D02*
X16114586Y-14466984D01*
X16305062Y-14466984D02*
X16324110Y-14466984D01*
X16324110Y-14466984D02*
X16343158Y-14476508D01*
X16343158Y-14476508D02*
X16352682Y-14486031D01*
X16352682Y-14486031D02*
X16362205Y-14505079D01*
X16362205Y-14505079D02*
X16371729Y-14543174D01*
X16371729Y-14543174D02*
X16371729Y-14590793D01*
X16371729Y-14590793D02*
X16362205Y-14628888D01*
X16362205Y-14628888D02*
X16352682Y-14647936D01*
X16352682Y-14647936D02*
X16343158Y-14657460D01*
X16343158Y-14657460D02*
X16324110Y-14666984D01*
X16324110Y-14666984D02*
X16305062Y-14666984D01*
X16305062Y-14666984D02*
X16286015Y-14657460D01*
X16286015Y-14657460D02*
X16276491Y-14647936D01*
X16276491Y-14647936D02*
X16266967Y-14628888D01*
X16266967Y-14628888D02*
X16257443Y-14590793D01*
X16257443Y-14590793D02*
X16257443Y-14543174D01*
X16257443Y-14543174D02*
X16266967Y-14505079D01*
X16266967Y-14505079D02*
X16276491Y-14486031D01*
X16276491Y-14486031D02*
X16286015Y-14476508D01*
X16286015Y-14476508D02*
X16305062Y-14466984D01*
X16495539Y-14466984D02*
X16514586Y-14466984D01*
X16514586Y-14466984D02*
X16533634Y-14476508D01*
X16533634Y-14476508D02*
X16543158Y-14486031D01*
X16543158Y-14486031D02*
X16552682Y-14505079D01*
X16552682Y-14505079D02*
X16562205Y-14543174D01*
X16562205Y-14543174D02*
X16562205Y-14590793D01*
X16562205Y-14590793D02*
X16552682Y-14628888D01*
X16552682Y-14628888D02*
X16543158Y-14647936D01*
X16543158Y-14647936D02*
X16533634Y-14657460D01*
X16533634Y-14657460D02*
X16514586Y-14666984D01*
X16514586Y-14666984D02*
X16495539Y-14666984D01*
X16495539Y-14666984D02*
X16476491Y-14657460D01*
X16476491Y-14657460D02*
X16466967Y-14647936D01*
X16466967Y-14647936D02*
X16457443Y-14628888D01*
X16457443Y-14628888D02*
X16447920Y-14590793D01*
X16447920Y-14590793D02*
X16447920Y-14543174D01*
X16447920Y-14543174D02*
X16457443Y-14505079D01*
X16457443Y-14505079D02*
X16466967Y-14486031D01*
X16466967Y-14486031D02*
X16476491Y-14476508D01*
X16476491Y-14476508D02*
X16495539Y-14466984D01*
X16647920Y-14666984D02*
X16647920Y-14533650D01*
X16647920Y-14552698D02*
X16657443Y-14543174D01*
X16657443Y-14543174D02*
X16676491Y-14533650D01*
X16676491Y-14533650D02*
X16705063Y-14533650D01*
X16705063Y-14533650D02*
X16724110Y-14543174D01*
X16724110Y-14543174D02*
X16733634Y-14562222D01*
X16733634Y-14562222D02*
X16733634Y-14666984D01*
X16733634Y-14562222D02*
X16743158Y-14543174D01*
X16743158Y-14543174D02*
X16762205Y-14533650D01*
X16762205Y-14533650D02*
X16790777Y-14533650D01*
X16790777Y-14533650D02*
X16809825Y-14543174D01*
X16809825Y-14543174D02*
X16819348Y-14562222D01*
X16819348Y-14562222D02*
X16819348Y-14666984D01*
X16914586Y-14666984D02*
X16914586Y-14533650D01*
X16914586Y-14552698D02*
X16924110Y-14543174D01*
X16924110Y-14543174D02*
X16943158Y-14533650D01*
X16943158Y-14533650D02*
X16971729Y-14533650D01*
X16971729Y-14533650D02*
X16990777Y-14543174D01*
X16990777Y-14543174D02*
X17000301Y-14562222D01*
X17000301Y-14562222D02*
X17000301Y-14666984D01*
X17000301Y-14562222D02*
X17009825Y-14543174D01*
X17009825Y-14543174D02*
X17028872Y-14533650D01*
X17028872Y-14533650D02*
X17057444Y-14533650D01*
X17057444Y-14533650D02*
X17076491Y-14543174D01*
X17076491Y-14543174D02*
X17086015Y-14562222D01*
X17086015Y-14562222D02*
X17086015Y-14666984D01*
X17476491Y-14457460D02*
X17305063Y-14714603D01*
X17733634Y-14466984D02*
X17752682Y-14466984D01*
X17752682Y-14466984D02*
X17771729Y-14476508D01*
X17771729Y-14476508D02*
X17781253Y-14486031D01*
X17781253Y-14486031D02*
X17790777Y-14505079D01*
X17790777Y-14505079D02*
X17800301Y-14543174D01*
X17800301Y-14543174D02*
X17800301Y-14590793D01*
X17800301Y-14590793D02*
X17790777Y-14628888D01*
X17790777Y-14628888D02*
X17781253Y-14647936D01*
X17781253Y-14647936D02*
X17771729Y-14657460D01*
X17771729Y-14657460D02*
X17752682Y-14666984D01*
X17752682Y-14666984D02*
X17733634Y-14666984D01*
X17733634Y-14666984D02*
X17714587Y-14657460D01*
X17714587Y-14657460D02*
X17705063Y-14647936D01*
X17705063Y-14647936D02*
X17695539Y-14628888D01*
X17695539Y-14628888D02*
X17686015Y-14590793D01*
X17686015Y-14590793D02*
X17686015Y-14543174D01*
X17686015Y-14543174D02*
X17695539Y-14505079D01*
X17695539Y-14505079D02*
X17705063Y-14486031D01*
X17705063Y-14486031D02*
X17714587Y-14476508D01*
X17714587Y-14476508D02*
X17733634Y-14466984D01*
X17886015Y-14647936D02*
X17895539Y-14657460D01*
X17895539Y-14657460D02*
X17886015Y-14666984D01*
X17886015Y-14666984D02*
X17876491Y-14657460D01*
X17876491Y-14657460D02*
X17886015Y-14647936D01*
X17886015Y-14647936D02*
X17886015Y-14666984D01*
X18019348Y-14466984D02*
X18038396Y-14466984D01*
X18038396Y-14466984D02*
X18057444Y-14476508D01*
X18057444Y-14476508D02*
X18066968Y-14486031D01*
X18066968Y-14486031D02*
X18076491Y-14505079D01*
X18076491Y-14505079D02*
X18086015Y-14543174D01*
X18086015Y-14543174D02*
X18086015Y-14590793D01*
X18086015Y-14590793D02*
X18076491Y-14628888D01*
X18076491Y-14628888D02*
X18066968Y-14647936D01*
X18066968Y-14647936D02*
X18057444Y-14657460D01*
X18057444Y-14657460D02*
X18038396Y-14666984D01*
X18038396Y-14666984D02*
X18019348Y-14666984D01*
X18019348Y-14666984D02*
X18000301Y-14657460D01*
X18000301Y-14657460D02*
X17990777Y-14647936D01*
X17990777Y-14647936D02*
X17981253Y-14628888D01*
X17981253Y-14628888D02*
X17971729Y-14590793D01*
X17971729Y-14590793D02*
X17971729Y-14543174D01*
X17971729Y-14543174D02*
X17981253Y-14505079D01*
X17981253Y-14505079D02*
X17990777Y-14486031D01*
X17990777Y-14486031D02*
X18000301Y-14476508D01*
X18000301Y-14476508D02*
X18019348Y-14466984D01*
X18152682Y-14466984D02*
X18276491Y-14466984D01*
X18276491Y-14466984D02*
X18209825Y-14543174D01*
X18209825Y-14543174D02*
X18238396Y-14543174D01*
X18238396Y-14543174D02*
X18257444Y-14552698D01*
X18257444Y-14552698D02*
X18266968Y-14562222D01*
X18266968Y-14562222D02*
X18276491Y-14581269D01*
X18276491Y-14581269D02*
X18276491Y-14628888D01*
X18276491Y-14628888D02*
X18266968Y-14647936D01*
X18266968Y-14647936D02*
X18257444Y-14657460D01*
X18257444Y-14657460D02*
X18238396Y-14666984D01*
X18238396Y-14666984D02*
X18181253Y-14666984D01*
X18181253Y-14666984D02*
X18162206Y-14657460D01*
X18162206Y-14657460D02*
X18152682Y-14647936D01*
X18371729Y-14666984D02*
X18409825Y-14666984D01*
X18409825Y-14666984D02*
X18428872Y-14657460D01*
X18428872Y-14657460D02*
X18438396Y-14647936D01*
X18438396Y-14647936D02*
X18457444Y-14619365D01*
X18457444Y-14619365D02*
X18466968Y-14581269D01*
X18466968Y-14581269D02*
X18466968Y-14505079D01*
X18466968Y-14505079D02*
X18457444Y-14486031D01*
X18457444Y-14486031D02*
X18447920Y-14476508D01*
X18447920Y-14476508D02*
X18428872Y-14466984D01*
X18428872Y-14466984D02*
X18390777Y-14466984D01*
X18390777Y-14466984D02*
X18371729Y-14476508D01*
X18371729Y-14476508D02*
X18362206Y-14486031D01*
X18362206Y-14486031D02*
X18352682Y-14505079D01*
X18352682Y-14505079D02*
X18352682Y-14552698D01*
X18352682Y-14552698D02*
X18362206Y-14571746D01*
X18362206Y-14571746D02*
X18371729Y-14581269D01*
X18371729Y-14581269D02*
X18390777Y-14590793D01*
X18390777Y-14590793D02*
X18428872Y-14590793D01*
X18428872Y-14590793D02*
X18447920Y-14581269D01*
X18447920Y-14581269D02*
X18457444Y-14571746D01*
X18457444Y-14571746D02*
X18466968Y-14552698D01*
X18638396Y-14533650D02*
X18638396Y-14666984D01*
X18590777Y-14457460D02*
X18543158Y-14600317D01*
X18543158Y-14600317D02*
X18666968Y-14600317D01*
X18733634Y-14466984D02*
X18733634Y-14505079D01*
X18809825Y-14466984D02*
X18809825Y-14505079D01*
X19105063Y-14743174D02*
X19095539Y-14733650D01*
X19095539Y-14733650D02*
X19076491Y-14705079D01*
X19076491Y-14705079D02*
X19066968Y-14686031D01*
X19066968Y-14686031D02*
X19057444Y-14657460D01*
X19057444Y-14657460D02*
X19047920Y-14609841D01*
X19047920Y-14609841D02*
X19047920Y-14571746D01*
X19047920Y-14571746D02*
X19057444Y-14524127D01*
X19057444Y-14524127D02*
X19066968Y-14495555D01*
X19066968Y-14495555D02*
X19076491Y-14476508D01*
X19076491Y-14476508D02*
X19095539Y-14447936D01*
X19095539Y-14447936D02*
X19105063Y-14438412D01*
X19162206Y-14466984D02*
X19286015Y-14466984D01*
X19286015Y-14466984D02*
X19219349Y-14543174D01*
X19219349Y-14543174D02*
X19247920Y-14543174D01*
X19247920Y-14543174D02*
X19266968Y-14552698D01*
X19266968Y-14552698D02*
X19276491Y-14562222D01*
X19276491Y-14562222D02*
X19286015Y-14581269D01*
X19286015Y-14581269D02*
X19286015Y-14628888D01*
X19286015Y-14628888D02*
X19276491Y-14647936D01*
X19276491Y-14647936D02*
X19266968Y-14657460D01*
X19266968Y-14657460D02*
X19247920Y-14666984D01*
X19247920Y-14666984D02*
X19190777Y-14666984D01*
X19190777Y-14666984D02*
X19171730Y-14657460D01*
X19171730Y-14657460D02*
X19162206Y-14647936D01*
X19352682Y-14466984D02*
X19476491Y-14466984D01*
X19476491Y-14466984D02*
X19409825Y-14543174D01*
X19409825Y-14543174D02*
X19438396Y-14543174D01*
X19438396Y-14543174D02*
X19457444Y-14552698D01*
X19457444Y-14552698D02*
X19466968Y-14562222D01*
X19466968Y-14562222D02*
X19476491Y-14581269D01*
X19476491Y-14581269D02*
X19476491Y-14628888D01*
X19476491Y-14628888D02*
X19466968Y-14647936D01*
X19466968Y-14647936D02*
X19457444Y-14657460D01*
X19457444Y-14657460D02*
X19438396Y-14666984D01*
X19438396Y-14666984D02*
X19381253Y-14666984D01*
X19381253Y-14666984D02*
X19362206Y-14657460D01*
X19362206Y-14657460D02*
X19352682Y-14647936D01*
X19714587Y-14666984D02*
X19714587Y-14466984D01*
X19800301Y-14666984D02*
X19800301Y-14562222D01*
X19800301Y-14562222D02*
X19790777Y-14543174D01*
X19790777Y-14543174D02*
X19771730Y-14533650D01*
X19771730Y-14533650D02*
X19743158Y-14533650D01*
X19743158Y-14533650D02*
X19724111Y-14543174D01*
X19724111Y-14543174D02*
X19714587Y-14552698D01*
X19924111Y-14666984D02*
X19905063Y-14657460D01*
X19905063Y-14657460D02*
X19895539Y-14647936D01*
X19895539Y-14647936D02*
X19886015Y-14628888D01*
X19886015Y-14628888D02*
X19886015Y-14571746D01*
X19886015Y-14571746D02*
X19895539Y-14552698D01*
X19895539Y-14552698D02*
X19905063Y-14543174D01*
X19905063Y-14543174D02*
X19924111Y-14533650D01*
X19924111Y-14533650D02*
X19952682Y-14533650D01*
X19952682Y-14533650D02*
X19971730Y-14543174D01*
X19971730Y-14543174D02*
X19981253Y-14552698D01*
X19981253Y-14552698D02*
X19990777Y-14571746D01*
X19990777Y-14571746D02*
X19990777Y-14628888D01*
X19990777Y-14628888D02*
X19981253Y-14647936D01*
X19981253Y-14647936D02*
X19971730Y-14657460D01*
X19971730Y-14657460D02*
X19952682Y-14666984D01*
X19952682Y-14666984D02*
X19924111Y-14666984D01*
X20105063Y-14666984D02*
X20086015Y-14657460D01*
X20086015Y-14657460D02*
X20076492Y-14638412D01*
X20076492Y-14638412D02*
X20076492Y-14466984D01*
X20257444Y-14657460D02*
X20238396Y-14666984D01*
X20238396Y-14666984D02*
X20200301Y-14666984D01*
X20200301Y-14666984D02*
X20181253Y-14657460D01*
X20181253Y-14657460D02*
X20171730Y-14638412D01*
X20171730Y-14638412D02*
X20171730Y-14562222D01*
X20171730Y-14562222D02*
X20181253Y-14543174D01*
X20181253Y-14543174D02*
X20200301Y-14533650D01*
X20200301Y-14533650D02*
X20238396Y-14533650D01*
X20238396Y-14533650D02*
X20257444Y-14543174D01*
X20257444Y-14543174D02*
X20266968Y-14562222D01*
X20266968Y-14562222D02*
X20266968Y-14581269D01*
X20266968Y-14581269D02*
X20171730Y-14600317D01*
X20343158Y-14657460D02*
X20362206Y-14666984D01*
X20362206Y-14666984D02*
X20400301Y-14666984D01*
X20400301Y-14666984D02*
X20419349Y-14657460D01*
X20419349Y-14657460D02*
X20428873Y-14638412D01*
X20428873Y-14638412D02*
X20428873Y-14628888D01*
X20428873Y-14628888D02*
X20419349Y-14609841D01*
X20419349Y-14609841D02*
X20400301Y-14600317D01*
X20400301Y-14600317D02*
X20371730Y-14600317D01*
X20371730Y-14600317D02*
X20352682Y-14590793D01*
X20352682Y-14590793D02*
X20343158Y-14571746D01*
X20343158Y-14571746D02*
X20343158Y-14562222D01*
X20343158Y-14562222D02*
X20352682Y-14543174D01*
X20352682Y-14543174D02*
X20371730Y-14533650D01*
X20371730Y-14533650D02*
X20400301Y-14533650D01*
X20400301Y-14533650D02*
X20419349Y-14543174D01*
X20495539Y-14743174D02*
X20505063Y-14733650D01*
X20505063Y-14733650D02*
X20524111Y-14705079D01*
X20524111Y-14705079D02*
X20533634Y-14686031D01*
X20533634Y-14686031D02*
X20543158Y-14657460D01*
X20543158Y-14657460D02*
X20552682Y-14609841D01*
X20552682Y-14609841D02*
X20552682Y-14571746D01*
X20552682Y-14571746D02*
X20543158Y-14524127D01*
X20543158Y-14524127D02*
X20533634Y-14495555D01*
X20533634Y-14495555D02*
X20524111Y-14476508D01*
X20524111Y-14476508D02*
X20505063Y-14447936D01*
X20505063Y-14447936D02*
X20495539Y-14438412D01*
D12*
X15508033Y-14892533D02*
X15508033Y-14786466D01*
X15401966Y-14786466D01*
X15401966Y-14892533D01*
X15508033Y-14892533D01*
D11*
X15895539Y-14930984D02*
X15781253Y-14930984D01*
X15838396Y-14930984D02*
X15838396Y-14730984D01*
X15838396Y-14730984D02*
X15819348Y-14759555D01*
X15819348Y-14759555D02*
X15800301Y-14778603D01*
X15800301Y-14778603D02*
X15781253Y-14788127D01*
X15981253Y-14911936D02*
X15990777Y-14921460D01*
X15990777Y-14921460D02*
X15981253Y-14930984D01*
X15981253Y-14930984D02*
X15971729Y-14921460D01*
X15971729Y-14921460D02*
X15981253Y-14911936D01*
X15981253Y-14911936D02*
X15981253Y-14930984D01*
X16171729Y-14730984D02*
X16076491Y-14730984D01*
X16076491Y-14730984D02*
X16066967Y-14826222D01*
X16066967Y-14826222D02*
X16076491Y-14816698D01*
X16076491Y-14816698D02*
X16095539Y-14807174D01*
X16095539Y-14807174D02*
X16143158Y-14807174D01*
X16143158Y-14807174D02*
X16162205Y-14816698D01*
X16162205Y-14816698D02*
X16171729Y-14826222D01*
X16171729Y-14826222D02*
X16181253Y-14845269D01*
X16181253Y-14845269D02*
X16181253Y-14892888D01*
X16181253Y-14892888D02*
X16171729Y-14911936D01*
X16171729Y-14911936D02*
X16162205Y-14921460D01*
X16162205Y-14921460D02*
X16143158Y-14930984D01*
X16143158Y-14930984D02*
X16095539Y-14930984D01*
X16095539Y-14930984D02*
X16076491Y-14921460D01*
X16076491Y-14921460D02*
X16066967Y-14911936D01*
X16305062Y-14730984D02*
X16324110Y-14730984D01*
X16324110Y-14730984D02*
X16343158Y-14740508D01*
X16343158Y-14740508D02*
X16352682Y-14750031D01*
X16352682Y-14750031D02*
X16362205Y-14769079D01*
X16362205Y-14769079D02*
X16371729Y-14807174D01*
X16371729Y-14807174D02*
X16371729Y-14854793D01*
X16371729Y-14854793D02*
X16362205Y-14892888D01*
X16362205Y-14892888D02*
X16352682Y-14911936D01*
X16352682Y-14911936D02*
X16343158Y-14921460D01*
X16343158Y-14921460D02*
X16324110Y-14930984D01*
X16324110Y-14930984D02*
X16305062Y-14930984D01*
X16305062Y-14930984D02*
X16286015Y-14921460D01*
X16286015Y-14921460D02*
X16276491Y-14911936D01*
X16276491Y-14911936D02*
X16266967Y-14892888D01*
X16266967Y-14892888D02*
X16257443Y-14854793D01*
X16257443Y-14854793D02*
X16257443Y-14807174D01*
X16257443Y-14807174D02*
X16266967Y-14769079D01*
X16266967Y-14769079D02*
X16276491Y-14750031D01*
X16276491Y-14750031D02*
X16286015Y-14740508D01*
X16286015Y-14740508D02*
X16305062Y-14730984D01*
X16495539Y-14730984D02*
X16514586Y-14730984D01*
X16514586Y-14730984D02*
X16533634Y-14740508D01*
X16533634Y-14740508D02*
X16543158Y-14750031D01*
X16543158Y-14750031D02*
X16552682Y-14769079D01*
X16552682Y-14769079D02*
X16562205Y-14807174D01*
X16562205Y-14807174D02*
X16562205Y-14854793D01*
X16562205Y-14854793D02*
X16552682Y-14892888D01*
X16552682Y-14892888D02*
X16543158Y-14911936D01*
X16543158Y-14911936D02*
X16533634Y-14921460D01*
X16533634Y-14921460D02*
X16514586Y-14930984D01*
X16514586Y-14930984D02*
X16495539Y-14930984D01*
X16495539Y-14930984D02*
X16476491Y-14921460D01*
X16476491Y-14921460D02*
X16466967Y-14911936D01*
X16466967Y-14911936D02*
X16457443Y-14892888D01*
X16457443Y-14892888D02*
X16447920Y-14854793D01*
X16447920Y-14854793D02*
X16447920Y-14807174D01*
X16447920Y-14807174D02*
X16457443Y-14769079D01*
X16457443Y-14769079D02*
X16466967Y-14750031D01*
X16466967Y-14750031D02*
X16476491Y-14740508D01*
X16476491Y-14740508D02*
X16495539Y-14730984D01*
X16647920Y-14930984D02*
X16647920Y-14797650D01*
X16647920Y-14816698D02*
X16657443Y-14807174D01*
X16657443Y-14807174D02*
X16676491Y-14797650D01*
X16676491Y-14797650D02*
X16705063Y-14797650D01*
X16705063Y-14797650D02*
X16724110Y-14807174D01*
X16724110Y-14807174D02*
X16733634Y-14826222D01*
X16733634Y-14826222D02*
X16733634Y-14930984D01*
X16733634Y-14826222D02*
X16743158Y-14807174D01*
X16743158Y-14807174D02*
X16762205Y-14797650D01*
X16762205Y-14797650D02*
X16790777Y-14797650D01*
X16790777Y-14797650D02*
X16809825Y-14807174D01*
X16809825Y-14807174D02*
X16819348Y-14826222D01*
X16819348Y-14826222D02*
X16819348Y-14930984D01*
X16914586Y-14930984D02*
X16914586Y-14797650D01*
X16914586Y-14816698D02*
X16924110Y-14807174D01*
X16924110Y-14807174D02*
X16943158Y-14797650D01*
X16943158Y-14797650D02*
X16971729Y-14797650D01*
X16971729Y-14797650D02*
X16990777Y-14807174D01*
X16990777Y-14807174D02*
X17000301Y-14826222D01*
X17000301Y-14826222D02*
X17000301Y-14930984D01*
X17000301Y-14826222D02*
X17009825Y-14807174D01*
X17009825Y-14807174D02*
X17028872Y-14797650D01*
X17028872Y-14797650D02*
X17057444Y-14797650D01*
X17057444Y-14797650D02*
X17076491Y-14807174D01*
X17076491Y-14807174D02*
X17086015Y-14826222D01*
X17086015Y-14826222D02*
X17086015Y-14930984D01*
X17476491Y-14721460D02*
X17305063Y-14978603D01*
X17733634Y-14730984D02*
X17752682Y-14730984D01*
X17752682Y-14730984D02*
X17771729Y-14740508D01*
X17771729Y-14740508D02*
X17781253Y-14750031D01*
X17781253Y-14750031D02*
X17790777Y-14769079D01*
X17790777Y-14769079D02*
X17800301Y-14807174D01*
X17800301Y-14807174D02*
X17800301Y-14854793D01*
X17800301Y-14854793D02*
X17790777Y-14892888D01*
X17790777Y-14892888D02*
X17781253Y-14911936D01*
X17781253Y-14911936D02*
X17771729Y-14921460D01*
X17771729Y-14921460D02*
X17752682Y-14930984D01*
X17752682Y-14930984D02*
X17733634Y-14930984D01*
X17733634Y-14930984D02*
X17714587Y-14921460D01*
X17714587Y-14921460D02*
X17705063Y-14911936D01*
X17705063Y-14911936D02*
X17695539Y-14892888D01*
X17695539Y-14892888D02*
X17686015Y-14854793D01*
X17686015Y-14854793D02*
X17686015Y-14807174D01*
X17686015Y-14807174D02*
X17695539Y-14769079D01*
X17695539Y-14769079D02*
X17705063Y-14750031D01*
X17705063Y-14750031D02*
X17714587Y-14740508D01*
X17714587Y-14740508D02*
X17733634Y-14730984D01*
X17886015Y-14911936D02*
X17895539Y-14921460D01*
X17895539Y-14921460D02*
X17886015Y-14930984D01*
X17886015Y-14930984D02*
X17876491Y-14921460D01*
X17876491Y-14921460D02*
X17886015Y-14911936D01*
X17886015Y-14911936D02*
X17886015Y-14930984D01*
X18019348Y-14730984D02*
X18038396Y-14730984D01*
X18038396Y-14730984D02*
X18057444Y-14740508D01*
X18057444Y-14740508D02*
X18066968Y-14750031D01*
X18066968Y-14750031D02*
X18076491Y-14769079D01*
X18076491Y-14769079D02*
X18086015Y-14807174D01*
X18086015Y-14807174D02*
X18086015Y-14854793D01*
X18086015Y-14854793D02*
X18076491Y-14892888D01*
X18076491Y-14892888D02*
X18066968Y-14911936D01*
X18066968Y-14911936D02*
X18057444Y-14921460D01*
X18057444Y-14921460D02*
X18038396Y-14930984D01*
X18038396Y-14930984D02*
X18019348Y-14930984D01*
X18019348Y-14930984D02*
X18000301Y-14921460D01*
X18000301Y-14921460D02*
X17990777Y-14911936D01*
X17990777Y-14911936D02*
X17981253Y-14892888D01*
X17981253Y-14892888D02*
X17971729Y-14854793D01*
X17971729Y-14854793D02*
X17971729Y-14807174D01*
X17971729Y-14807174D02*
X17981253Y-14769079D01*
X17981253Y-14769079D02*
X17990777Y-14750031D01*
X17990777Y-14750031D02*
X18000301Y-14740508D01*
X18000301Y-14740508D02*
X18019348Y-14730984D01*
X18266968Y-14730984D02*
X18171729Y-14730984D01*
X18171729Y-14730984D02*
X18162206Y-14826222D01*
X18162206Y-14826222D02*
X18171729Y-14816698D01*
X18171729Y-14816698D02*
X18190777Y-14807174D01*
X18190777Y-14807174D02*
X18238396Y-14807174D01*
X18238396Y-14807174D02*
X18257444Y-14816698D01*
X18257444Y-14816698D02*
X18266968Y-14826222D01*
X18266968Y-14826222D02*
X18276491Y-14845269D01*
X18276491Y-14845269D02*
X18276491Y-14892888D01*
X18276491Y-14892888D02*
X18266968Y-14911936D01*
X18266968Y-14911936D02*
X18257444Y-14921460D01*
X18257444Y-14921460D02*
X18238396Y-14930984D01*
X18238396Y-14930984D02*
X18190777Y-14930984D01*
X18190777Y-14930984D02*
X18171729Y-14921460D01*
X18171729Y-14921460D02*
X18162206Y-14911936D01*
X18371729Y-14930984D02*
X18409825Y-14930984D01*
X18409825Y-14930984D02*
X18428872Y-14921460D01*
X18428872Y-14921460D02*
X18438396Y-14911936D01*
X18438396Y-14911936D02*
X18457444Y-14883365D01*
X18457444Y-14883365D02*
X18466968Y-14845269D01*
X18466968Y-14845269D02*
X18466968Y-14769079D01*
X18466968Y-14769079D02*
X18457444Y-14750031D01*
X18457444Y-14750031D02*
X18447920Y-14740508D01*
X18447920Y-14740508D02*
X18428872Y-14730984D01*
X18428872Y-14730984D02*
X18390777Y-14730984D01*
X18390777Y-14730984D02*
X18371729Y-14740508D01*
X18371729Y-14740508D02*
X18362206Y-14750031D01*
X18362206Y-14750031D02*
X18352682Y-14769079D01*
X18352682Y-14769079D02*
X18352682Y-14816698D01*
X18352682Y-14816698D02*
X18362206Y-14835746D01*
X18362206Y-14835746D02*
X18371729Y-14845269D01*
X18371729Y-14845269D02*
X18390777Y-14854793D01*
X18390777Y-14854793D02*
X18428872Y-14854793D01*
X18428872Y-14854793D02*
X18447920Y-14845269D01*
X18447920Y-14845269D02*
X18457444Y-14835746D01*
X18457444Y-14835746D02*
X18466968Y-14816698D01*
X18657444Y-14930984D02*
X18543158Y-14930984D01*
X18600301Y-14930984D02*
X18600301Y-14730984D01*
X18600301Y-14730984D02*
X18581253Y-14759555D01*
X18581253Y-14759555D02*
X18562206Y-14778603D01*
X18562206Y-14778603D02*
X18543158Y-14788127D01*
X18733634Y-14730984D02*
X18733634Y-14769079D01*
X18809825Y-14730984D02*
X18809825Y-14769079D01*
X19105063Y-15007174D02*
X19095539Y-14997650D01*
X19095539Y-14997650D02*
X19076491Y-14969079D01*
X19076491Y-14969079D02*
X19066968Y-14950031D01*
X19066968Y-14950031D02*
X19057444Y-14921460D01*
X19057444Y-14921460D02*
X19047920Y-14873841D01*
X19047920Y-14873841D02*
X19047920Y-14835746D01*
X19047920Y-14835746D02*
X19057444Y-14788127D01*
X19057444Y-14788127D02*
X19066968Y-14759555D01*
X19066968Y-14759555D02*
X19076491Y-14740508D01*
X19076491Y-14740508D02*
X19095539Y-14711936D01*
X19095539Y-14711936D02*
X19105063Y-14702412D01*
X19171730Y-14750031D02*
X19181253Y-14740508D01*
X19181253Y-14740508D02*
X19200301Y-14730984D01*
X19200301Y-14730984D02*
X19247920Y-14730984D01*
X19247920Y-14730984D02*
X19266968Y-14740508D01*
X19266968Y-14740508D02*
X19276491Y-14750031D01*
X19276491Y-14750031D02*
X19286015Y-14769079D01*
X19286015Y-14769079D02*
X19286015Y-14788127D01*
X19286015Y-14788127D02*
X19276491Y-14816698D01*
X19276491Y-14816698D02*
X19162206Y-14930984D01*
X19162206Y-14930984D02*
X19286015Y-14930984D01*
X19409825Y-14730984D02*
X19428872Y-14730984D01*
X19428872Y-14730984D02*
X19447920Y-14740508D01*
X19447920Y-14740508D02*
X19457444Y-14750031D01*
X19457444Y-14750031D02*
X19466968Y-14769079D01*
X19466968Y-14769079D02*
X19476491Y-14807174D01*
X19476491Y-14807174D02*
X19476491Y-14854793D01*
X19476491Y-14854793D02*
X19466968Y-14892888D01*
X19466968Y-14892888D02*
X19457444Y-14911936D01*
X19457444Y-14911936D02*
X19447920Y-14921460D01*
X19447920Y-14921460D02*
X19428872Y-14930984D01*
X19428872Y-14930984D02*
X19409825Y-14930984D01*
X19409825Y-14930984D02*
X19390777Y-14921460D01*
X19390777Y-14921460D02*
X19381253Y-14911936D01*
X19381253Y-14911936D02*
X19371730Y-14892888D01*
X19371730Y-14892888D02*
X19362206Y-14854793D01*
X19362206Y-14854793D02*
X19362206Y-14807174D01*
X19362206Y-14807174D02*
X19371730Y-14769079D01*
X19371730Y-14769079D02*
X19381253Y-14750031D01*
X19381253Y-14750031D02*
X19390777Y-14740508D01*
X19390777Y-14740508D02*
X19409825Y-14730984D01*
X19714587Y-14930984D02*
X19714587Y-14730984D01*
X19800301Y-14930984D02*
X19800301Y-14826222D01*
X19800301Y-14826222D02*
X19790777Y-14807174D01*
X19790777Y-14807174D02*
X19771730Y-14797650D01*
X19771730Y-14797650D02*
X19743158Y-14797650D01*
X19743158Y-14797650D02*
X19724111Y-14807174D01*
X19724111Y-14807174D02*
X19714587Y-14816698D01*
X19924111Y-14930984D02*
X19905063Y-14921460D01*
X19905063Y-14921460D02*
X19895539Y-14911936D01*
X19895539Y-14911936D02*
X19886015Y-14892888D01*
X19886015Y-14892888D02*
X19886015Y-14835746D01*
X19886015Y-14835746D02*
X19895539Y-14816698D01*
X19895539Y-14816698D02*
X19905063Y-14807174D01*
X19905063Y-14807174D02*
X19924111Y-14797650D01*
X19924111Y-14797650D02*
X19952682Y-14797650D01*
X19952682Y-14797650D02*
X19971730Y-14807174D01*
X19971730Y-14807174D02*
X19981253Y-14816698D01*
X19981253Y-14816698D02*
X19990777Y-14835746D01*
X19990777Y-14835746D02*
X19990777Y-14892888D01*
X19990777Y-14892888D02*
X19981253Y-14911936D01*
X19981253Y-14911936D02*
X19971730Y-14921460D01*
X19971730Y-14921460D02*
X19952682Y-14930984D01*
X19952682Y-14930984D02*
X19924111Y-14930984D01*
X20105063Y-14930984D02*
X20086015Y-14921460D01*
X20086015Y-14921460D02*
X20076492Y-14902412D01*
X20076492Y-14902412D02*
X20076492Y-14730984D01*
X20257444Y-14921460D02*
X20238396Y-14930984D01*
X20238396Y-14930984D02*
X20200301Y-14930984D01*
X20200301Y-14930984D02*
X20181253Y-14921460D01*
X20181253Y-14921460D02*
X20171730Y-14902412D01*
X20171730Y-14902412D02*
X20171730Y-14826222D01*
X20171730Y-14826222D02*
X20181253Y-14807174D01*
X20181253Y-14807174D02*
X20200301Y-14797650D01*
X20200301Y-14797650D02*
X20238396Y-14797650D01*
X20238396Y-14797650D02*
X20257444Y-14807174D01*
X20257444Y-14807174D02*
X20266968Y-14826222D01*
X20266968Y-14826222D02*
X20266968Y-14845269D01*
X20266968Y-14845269D02*
X20171730Y-14864317D01*
X20343158Y-14921460D02*
X20362206Y-14930984D01*
X20362206Y-14930984D02*
X20400301Y-14930984D01*
X20400301Y-14930984D02*
X20419349Y-14921460D01*
X20419349Y-14921460D02*
X20428873Y-14902412D01*
X20428873Y-14902412D02*
X20428873Y-14892888D01*
X20428873Y-14892888D02*
X20419349Y-14873841D01*
X20419349Y-14873841D02*
X20400301Y-14864317D01*
X20400301Y-14864317D02*
X20371730Y-14864317D01*
X20371730Y-14864317D02*
X20352682Y-14854793D01*
X20352682Y-14854793D02*
X20343158Y-14835746D01*
X20343158Y-14835746D02*
X20343158Y-14826222D01*
X20343158Y-14826222D02*
X20352682Y-14807174D01*
X20352682Y-14807174D02*
X20371730Y-14797650D01*
X20371730Y-14797650D02*
X20400301Y-14797650D01*
X20400301Y-14797650D02*
X20419349Y-14807174D01*
X20495539Y-15007174D02*
X20505063Y-14997650D01*
X20505063Y-14997650D02*
X20524111Y-14969079D01*
X20524111Y-14969079D02*
X20533634Y-14950031D01*
X20533634Y-14950031D02*
X20543158Y-14921460D01*
X20543158Y-14921460D02*
X20552682Y-14873841D01*
X20552682Y-14873841D02*
X20552682Y-14835746D01*
X20552682Y-14835746D02*
X20543158Y-14788127D01*
X20543158Y-14788127D02*
X20533634Y-14759555D01*
X20533634Y-14759555D02*
X20524111Y-14740508D01*
X20524111Y-14740508D02*
X20505063Y-14711936D01*
X20505063Y-14711936D02*
X20495539Y-14702412D01*
X15430000Y-15209500D02*
X15530000Y-15109500D01*
X15430000Y-15009500D01*
X15330000Y-15109500D01*
X15430000Y-15209500D01*
X15771729Y-15000984D02*
X15895539Y-15000984D01*
X15895539Y-15000984D02*
X15828872Y-15077174D01*
X15828872Y-15077174D02*
X15857443Y-15077174D01*
X15857443Y-15077174D02*
X15876491Y-15086698D01*
X15876491Y-15086698D02*
X15886015Y-15096222D01*
X15886015Y-15096222D02*
X15895539Y-15115269D01*
X15895539Y-15115269D02*
X15895539Y-15162888D01*
X15895539Y-15162888D02*
X15886015Y-15181936D01*
X15886015Y-15181936D02*
X15876491Y-15191460D01*
X15876491Y-15191460D02*
X15857443Y-15200984D01*
X15857443Y-15200984D02*
X15800301Y-15200984D01*
X15800301Y-15200984D02*
X15781253Y-15191460D01*
X15781253Y-15191460D02*
X15771729Y-15181936D01*
X15981253Y-15181936D02*
X15990777Y-15191460D01*
X15990777Y-15191460D02*
X15981253Y-15200984D01*
X15981253Y-15200984D02*
X15971729Y-15191460D01*
X15971729Y-15191460D02*
X15981253Y-15181936D01*
X15981253Y-15181936D02*
X15981253Y-15200984D01*
X16181253Y-15200984D02*
X16066967Y-15200984D01*
X16124110Y-15200984D02*
X16124110Y-15000984D01*
X16124110Y-15000984D02*
X16105062Y-15029555D01*
X16105062Y-15029555D02*
X16086015Y-15048603D01*
X16086015Y-15048603D02*
X16066967Y-15058127D01*
X16305062Y-15000984D02*
X16324110Y-15000984D01*
X16324110Y-15000984D02*
X16343158Y-15010508D01*
X16343158Y-15010508D02*
X16352682Y-15020031D01*
X16352682Y-15020031D02*
X16362205Y-15039079D01*
X16362205Y-15039079D02*
X16371729Y-15077174D01*
X16371729Y-15077174D02*
X16371729Y-15124793D01*
X16371729Y-15124793D02*
X16362205Y-15162888D01*
X16362205Y-15162888D02*
X16352682Y-15181936D01*
X16352682Y-15181936D02*
X16343158Y-15191460D01*
X16343158Y-15191460D02*
X16324110Y-15200984D01*
X16324110Y-15200984D02*
X16305062Y-15200984D01*
X16305062Y-15200984D02*
X16286015Y-15191460D01*
X16286015Y-15191460D02*
X16276491Y-15181936D01*
X16276491Y-15181936D02*
X16266967Y-15162888D01*
X16266967Y-15162888D02*
X16257443Y-15124793D01*
X16257443Y-15124793D02*
X16257443Y-15077174D01*
X16257443Y-15077174D02*
X16266967Y-15039079D01*
X16266967Y-15039079D02*
X16276491Y-15020031D01*
X16276491Y-15020031D02*
X16286015Y-15010508D01*
X16286015Y-15010508D02*
X16305062Y-15000984D01*
X16495539Y-15000984D02*
X16514586Y-15000984D01*
X16514586Y-15000984D02*
X16533634Y-15010508D01*
X16533634Y-15010508D02*
X16543158Y-15020031D01*
X16543158Y-15020031D02*
X16552682Y-15039079D01*
X16552682Y-15039079D02*
X16562205Y-15077174D01*
X16562205Y-15077174D02*
X16562205Y-15124793D01*
X16562205Y-15124793D02*
X16552682Y-15162888D01*
X16552682Y-15162888D02*
X16543158Y-15181936D01*
X16543158Y-15181936D02*
X16533634Y-15191460D01*
X16533634Y-15191460D02*
X16514586Y-15200984D01*
X16514586Y-15200984D02*
X16495539Y-15200984D01*
X16495539Y-15200984D02*
X16476491Y-15191460D01*
X16476491Y-15191460D02*
X16466967Y-15181936D01*
X16466967Y-15181936D02*
X16457443Y-15162888D01*
X16457443Y-15162888D02*
X16447920Y-15124793D01*
X16447920Y-15124793D02*
X16447920Y-15077174D01*
X16447920Y-15077174D02*
X16457443Y-15039079D01*
X16457443Y-15039079D02*
X16466967Y-15020031D01*
X16466967Y-15020031D02*
X16476491Y-15010508D01*
X16476491Y-15010508D02*
X16495539Y-15000984D01*
X16647920Y-15200984D02*
X16647920Y-15067650D01*
X16647920Y-15086698D02*
X16657443Y-15077174D01*
X16657443Y-15077174D02*
X16676491Y-15067650D01*
X16676491Y-15067650D02*
X16705063Y-15067650D01*
X16705063Y-15067650D02*
X16724110Y-15077174D01*
X16724110Y-15077174D02*
X16733634Y-15096222D01*
X16733634Y-15096222D02*
X16733634Y-15200984D01*
X16733634Y-15096222D02*
X16743158Y-15077174D01*
X16743158Y-15077174D02*
X16762205Y-15067650D01*
X16762205Y-15067650D02*
X16790777Y-15067650D01*
X16790777Y-15067650D02*
X16809825Y-15077174D01*
X16809825Y-15077174D02*
X16819348Y-15096222D01*
X16819348Y-15096222D02*
X16819348Y-15200984D01*
X16914586Y-15200984D02*
X16914586Y-15067650D01*
X16914586Y-15086698D02*
X16924110Y-15077174D01*
X16924110Y-15077174D02*
X16943158Y-15067650D01*
X16943158Y-15067650D02*
X16971729Y-15067650D01*
X16971729Y-15067650D02*
X16990777Y-15077174D01*
X16990777Y-15077174D02*
X17000301Y-15096222D01*
X17000301Y-15096222D02*
X17000301Y-15200984D01*
X17000301Y-15096222D02*
X17009825Y-15077174D01*
X17009825Y-15077174D02*
X17028872Y-15067650D01*
X17028872Y-15067650D02*
X17057444Y-15067650D01*
X17057444Y-15067650D02*
X17076491Y-15077174D01*
X17076491Y-15077174D02*
X17086015Y-15096222D01*
X17086015Y-15096222D02*
X17086015Y-15200984D01*
X17476491Y-14991460D02*
X17305063Y-15248603D01*
X17733634Y-15000984D02*
X17752682Y-15000984D01*
X17752682Y-15000984D02*
X17771729Y-15010508D01*
X17771729Y-15010508D02*
X17781253Y-15020031D01*
X17781253Y-15020031D02*
X17790777Y-15039079D01*
X17790777Y-15039079D02*
X17800301Y-15077174D01*
X17800301Y-15077174D02*
X17800301Y-15124793D01*
X17800301Y-15124793D02*
X17790777Y-15162888D01*
X17790777Y-15162888D02*
X17781253Y-15181936D01*
X17781253Y-15181936D02*
X17771729Y-15191460D01*
X17771729Y-15191460D02*
X17752682Y-15200984D01*
X17752682Y-15200984D02*
X17733634Y-15200984D01*
X17733634Y-15200984D02*
X17714587Y-15191460D01*
X17714587Y-15191460D02*
X17705063Y-15181936D01*
X17705063Y-15181936D02*
X17695539Y-15162888D01*
X17695539Y-15162888D02*
X17686015Y-15124793D01*
X17686015Y-15124793D02*
X17686015Y-15077174D01*
X17686015Y-15077174D02*
X17695539Y-15039079D01*
X17695539Y-15039079D02*
X17705063Y-15020031D01*
X17705063Y-15020031D02*
X17714587Y-15010508D01*
X17714587Y-15010508D02*
X17733634Y-15000984D01*
X17886015Y-15181936D02*
X17895539Y-15191460D01*
X17895539Y-15191460D02*
X17886015Y-15200984D01*
X17886015Y-15200984D02*
X17876491Y-15191460D01*
X17876491Y-15191460D02*
X17886015Y-15181936D01*
X17886015Y-15181936D02*
X17886015Y-15200984D01*
X18086015Y-15200984D02*
X17971729Y-15200984D01*
X18028872Y-15200984D02*
X18028872Y-15000984D01*
X18028872Y-15000984D02*
X18009825Y-15029555D01*
X18009825Y-15029555D02*
X17990777Y-15048603D01*
X17990777Y-15048603D02*
X17971729Y-15058127D01*
X18162206Y-15020031D02*
X18171729Y-15010508D01*
X18171729Y-15010508D02*
X18190777Y-15000984D01*
X18190777Y-15000984D02*
X18238396Y-15000984D01*
X18238396Y-15000984D02*
X18257444Y-15010508D01*
X18257444Y-15010508D02*
X18266968Y-15020031D01*
X18266968Y-15020031D02*
X18276491Y-15039079D01*
X18276491Y-15039079D02*
X18276491Y-15058127D01*
X18276491Y-15058127D02*
X18266968Y-15086698D01*
X18266968Y-15086698D02*
X18152682Y-15200984D01*
X18152682Y-15200984D02*
X18276491Y-15200984D01*
X18352682Y-15020031D02*
X18362206Y-15010508D01*
X18362206Y-15010508D02*
X18381253Y-15000984D01*
X18381253Y-15000984D02*
X18428872Y-15000984D01*
X18428872Y-15000984D02*
X18447920Y-15010508D01*
X18447920Y-15010508D02*
X18457444Y-15020031D01*
X18457444Y-15020031D02*
X18466968Y-15039079D01*
X18466968Y-15039079D02*
X18466968Y-15058127D01*
X18466968Y-15058127D02*
X18457444Y-15086698D01*
X18457444Y-15086698D02*
X18343158Y-15200984D01*
X18343158Y-15200984D02*
X18466968Y-15200984D01*
X18590777Y-15000984D02*
X18609825Y-15000984D01*
X18609825Y-15000984D02*
X18628872Y-15010508D01*
X18628872Y-15010508D02*
X18638396Y-15020031D01*
X18638396Y-15020031D02*
X18647920Y-15039079D01*
X18647920Y-15039079D02*
X18657444Y-15077174D01*
X18657444Y-15077174D02*
X18657444Y-15124793D01*
X18657444Y-15124793D02*
X18647920Y-15162888D01*
X18647920Y-15162888D02*
X18638396Y-15181936D01*
X18638396Y-15181936D02*
X18628872Y-15191460D01*
X18628872Y-15191460D02*
X18609825Y-15200984D01*
X18609825Y-15200984D02*
X18590777Y-15200984D01*
X18590777Y-15200984D02*
X18571729Y-15191460D01*
X18571729Y-15191460D02*
X18562206Y-15181936D01*
X18562206Y-15181936D02*
X18552682Y-15162888D01*
X18552682Y-15162888D02*
X18543158Y-15124793D01*
X18543158Y-15124793D02*
X18543158Y-15077174D01*
X18543158Y-15077174D02*
X18552682Y-15039079D01*
X18552682Y-15039079D02*
X18562206Y-15020031D01*
X18562206Y-15020031D02*
X18571729Y-15010508D01*
X18571729Y-15010508D02*
X18590777Y-15000984D01*
X18733634Y-15000984D02*
X18733634Y-15039079D01*
X18809825Y-15000984D02*
X18809825Y-15039079D01*
X19105063Y-15277174D02*
X19095539Y-15267650D01*
X19095539Y-15267650D02*
X19076491Y-15239079D01*
X19076491Y-15239079D02*
X19066968Y-15220031D01*
X19066968Y-15220031D02*
X19057444Y-15191460D01*
X19057444Y-15191460D02*
X19047920Y-15143841D01*
X19047920Y-15143841D02*
X19047920Y-15105746D01*
X19047920Y-15105746D02*
X19057444Y-15058127D01*
X19057444Y-15058127D02*
X19066968Y-15029555D01*
X19066968Y-15029555D02*
X19076491Y-15010508D01*
X19076491Y-15010508D02*
X19095539Y-14981936D01*
X19095539Y-14981936D02*
X19105063Y-14972412D01*
X19266968Y-15067650D02*
X19266968Y-15200984D01*
X19219349Y-14991460D02*
X19171730Y-15134317D01*
X19171730Y-15134317D02*
X19295539Y-15134317D01*
X19524111Y-15200984D02*
X19524111Y-15000984D01*
X19609825Y-15200984D02*
X19609825Y-15096222D01*
X19609825Y-15096222D02*
X19600301Y-15077174D01*
X19600301Y-15077174D02*
X19581253Y-15067650D01*
X19581253Y-15067650D02*
X19552682Y-15067650D01*
X19552682Y-15067650D02*
X19533634Y-15077174D01*
X19533634Y-15077174D02*
X19524111Y-15086698D01*
X19733634Y-15200984D02*
X19714587Y-15191460D01*
X19714587Y-15191460D02*
X19705063Y-15181936D01*
X19705063Y-15181936D02*
X19695539Y-15162888D01*
X19695539Y-15162888D02*
X19695539Y-15105746D01*
X19695539Y-15105746D02*
X19705063Y-15086698D01*
X19705063Y-15086698D02*
X19714587Y-15077174D01*
X19714587Y-15077174D02*
X19733634Y-15067650D01*
X19733634Y-15067650D02*
X19762206Y-15067650D01*
X19762206Y-15067650D02*
X19781253Y-15077174D01*
X19781253Y-15077174D02*
X19790777Y-15086698D01*
X19790777Y-15086698D02*
X19800301Y-15105746D01*
X19800301Y-15105746D02*
X19800301Y-15162888D01*
X19800301Y-15162888D02*
X19790777Y-15181936D01*
X19790777Y-15181936D02*
X19781253Y-15191460D01*
X19781253Y-15191460D02*
X19762206Y-15200984D01*
X19762206Y-15200984D02*
X19733634Y-15200984D01*
X19914587Y-15200984D02*
X19895539Y-15191460D01*
X19895539Y-15191460D02*
X19886015Y-15172412D01*
X19886015Y-15172412D02*
X19886015Y-15000984D01*
X20066968Y-15191460D02*
X20047920Y-15200984D01*
X20047920Y-15200984D02*
X20009825Y-15200984D01*
X20009825Y-15200984D02*
X19990777Y-15191460D01*
X19990777Y-15191460D02*
X19981253Y-15172412D01*
X19981253Y-15172412D02*
X19981253Y-15096222D01*
X19981253Y-15096222D02*
X19990777Y-15077174D01*
X19990777Y-15077174D02*
X20009825Y-15067650D01*
X20009825Y-15067650D02*
X20047920Y-15067650D01*
X20047920Y-15067650D02*
X20066968Y-15077174D01*
X20066968Y-15077174D02*
X20076492Y-15096222D01*
X20076492Y-15096222D02*
X20076492Y-15115269D01*
X20076492Y-15115269D02*
X19981253Y-15134317D01*
X20152682Y-15191460D02*
X20171730Y-15200984D01*
X20171730Y-15200984D02*
X20209825Y-15200984D01*
X20209825Y-15200984D02*
X20228873Y-15191460D01*
X20228873Y-15191460D02*
X20238396Y-15172412D01*
X20238396Y-15172412D02*
X20238396Y-15162888D01*
X20238396Y-15162888D02*
X20228873Y-15143841D01*
X20228873Y-15143841D02*
X20209825Y-15134317D01*
X20209825Y-15134317D02*
X20181253Y-15134317D01*
X20181253Y-15134317D02*
X20162206Y-15124793D01*
X20162206Y-15124793D02*
X20152682Y-15105746D01*
X20152682Y-15105746D02*
X20152682Y-15096222D01*
X20152682Y-15096222D02*
X20162206Y-15077174D01*
X20162206Y-15077174D02*
X20181253Y-15067650D01*
X20181253Y-15067650D02*
X20209825Y-15067650D01*
X20209825Y-15067650D02*
X20228873Y-15077174D01*
X20305063Y-15277174D02*
X20314587Y-15267650D01*
X20314587Y-15267650D02*
X20333634Y-15239079D01*
X20333634Y-15239079D02*
X20343158Y-15220031D01*
X20343158Y-15220031D02*
X20352682Y-15191460D01*
X20352682Y-15191460D02*
X20362206Y-15143841D01*
X20362206Y-15143841D02*
X20362206Y-15105746D01*
X20362206Y-15105746D02*
X20352682Y-15058127D01*
X20352682Y-15058127D02*
X20343158Y-15029555D01*
X20343158Y-15029555D02*
X20333634Y-15010508D01*
X20333634Y-15010508D02*
X20314587Y-14981936D01*
X20314587Y-14981936D02*
X20305063Y-14972412D01*
X20666968Y-15277174D02*
X20657444Y-15267650D01*
X20657444Y-15267650D02*
X20638396Y-15239079D01*
X20638396Y-15239079D02*
X20628873Y-15220031D01*
X20628873Y-15220031D02*
X20619349Y-15191460D01*
X20619349Y-15191460D02*
X20609825Y-15143841D01*
X20609825Y-15143841D02*
X20609825Y-15105746D01*
X20609825Y-15105746D02*
X20619349Y-15058127D01*
X20619349Y-15058127D02*
X20628873Y-15029555D01*
X20628873Y-15029555D02*
X20638396Y-15010508D01*
X20638396Y-15010508D02*
X20657444Y-14981936D01*
X20657444Y-14981936D02*
X20666968Y-14972412D01*
X20743158Y-15067650D02*
X20743158Y-15200984D01*
X20743158Y-15086698D02*
X20752682Y-15077174D01*
X20752682Y-15077174D02*
X20771730Y-15067650D01*
X20771730Y-15067650D02*
X20800301Y-15067650D01*
X20800301Y-15067650D02*
X20819349Y-15077174D01*
X20819349Y-15077174D02*
X20828873Y-15096222D01*
X20828873Y-15096222D02*
X20828873Y-15200984D01*
X20952682Y-15200984D02*
X20933634Y-15191460D01*
X20933634Y-15191460D02*
X20924111Y-15181936D01*
X20924111Y-15181936D02*
X20914587Y-15162888D01*
X20914587Y-15162888D02*
X20914587Y-15105746D01*
X20914587Y-15105746D02*
X20924111Y-15086698D01*
X20924111Y-15086698D02*
X20933634Y-15077174D01*
X20933634Y-15077174D02*
X20952682Y-15067650D01*
X20952682Y-15067650D02*
X20981254Y-15067650D01*
X20981254Y-15067650D02*
X21000301Y-15077174D01*
X21000301Y-15077174D02*
X21009825Y-15086698D01*
X21009825Y-15086698D02*
X21019349Y-15105746D01*
X21019349Y-15105746D02*
X21019349Y-15162888D01*
X21019349Y-15162888D02*
X21009825Y-15181936D01*
X21009825Y-15181936D02*
X21000301Y-15191460D01*
X21000301Y-15191460D02*
X20981254Y-15200984D01*
X20981254Y-15200984D02*
X20952682Y-15200984D01*
X21076492Y-15067650D02*
X21152682Y-15067650D01*
X21105063Y-15000984D02*
X21105063Y-15172412D01*
X21105063Y-15172412D02*
X21114587Y-15191460D01*
X21114587Y-15191460D02*
X21133634Y-15200984D01*
X21133634Y-15200984D02*
X21152682Y-15200984D01*
X21371730Y-15067650D02*
X21371730Y-15267650D01*
X21371730Y-15077174D02*
X21390777Y-15067650D01*
X21390777Y-15067650D02*
X21428873Y-15067650D01*
X21428873Y-15067650D02*
X21447920Y-15077174D01*
X21447920Y-15077174D02*
X21457444Y-15086698D01*
X21457444Y-15086698D02*
X21466968Y-15105746D01*
X21466968Y-15105746D02*
X21466968Y-15162888D01*
X21466968Y-15162888D02*
X21457444Y-15181936D01*
X21457444Y-15181936D02*
X21447920Y-15191460D01*
X21447920Y-15191460D02*
X21428873Y-15200984D01*
X21428873Y-15200984D02*
X21390777Y-15200984D01*
X21390777Y-15200984D02*
X21371730Y-15191460D01*
X21581254Y-15200984D02*
X21562206Y-15191460D01*
X21562206Y-15191460D02*
X21552682Y-15172412D01*
X21552682Y-15172412D02*
X21552682Y-15000984D01*
X21743158Y-15200984D02*
X21743158Y-15096222D01*
X21743158Y-15096222D02*
X21733635Y-15077174D01*
X21733635Y-15077174D02*
X21714587Y-15067650D01*
X21714587Y-15067650D02*
X21676492Y-15067650D01*
X21676492Y-15067650D02*
X21657444Y-15077174D01*
X21743158Y-15191460D02*
X21724111Y-15200984D01*
X21724111Y-15200984D02*
X21676492Y-15200984D01*
X21676492Y-15200984D02*
X21657444Y-15191460D01*
X21657444Y-15191460D02*
X21647920Y-15172412D01*
X21647920Y-15172412D02*
X21647920Y-15153365D01*
X21647920Y-15153365D02*
X21657444Y-15134317D01*
X21657444Y-15134317D02*
X21676492Y-15124793D01*
X21676492Y-15124793D02*
X21724111Y-15124793D01*
X21724111Y-15124793D02*
X21743158Y-15115269D01*
X21809825Y-15067650D02*
X21886015Y-15067650D01*
X21838396Y-15000984D02*
X21838396Y-15172412D01*
X21838396Y-15172412D02*
X21847920Y-15191460D01*
X21847920Y-15191460D02*
X21866968Y-15200984D01*
X21866968Y-15200984D02*
X21886015Y-15200984D01*
X22028873Y-15191460D02*
X22009825Y-15200984D01*
X22009825Y-15200984D02*
X21971730Y-15200984D01*
X21971730Y-15200984D02*
X21952682Y-15191460D01*
X21952682Y-15191460D02*
X21943158Y-15172412D01*
X21943158Y-15172412D02*
X21943158Y-15096222D01*
X21943158Y-15096222D02*
X21952682Y-15077174D01*
X21952682Y-15077174D02*
X21971730Y-15067650D01*
X21971730Y-15067650D02*
X22009825Y-15067650D01*
X22009825Y-15067650D02*
X22028873Y-15077174D01*
X22028873Y-15077174D02*
X22038396Y-15096222D01*
X22038396Y-15096222D02*
X22038396Y-15115269D01*
X22038396Y-15115269D02*
X21943158Y-15134317D01*
X22209825Y-15200984D02*
X22209825Y-15000984D01*
X22209825Y-15191460D02*
X22190777Y-15200984D01*
X22190777Y-15200984D02*
X22152682Y-15200984D01*
X22152682Y-15200984D02*
X22133635Y-15191460D01*
X22133635Y-15191460D02*
X22124111Y-15181936D01*
X22124111Y-15181936D02*
X22114587Y-15162888D01*
X22114587Y-15162888D02*
X22114587Y-15105746D01*
X22114587Y-15105746D02*
X22124111Y-15086698D01*
X22124111Y-15086698D02*
X22133635Y-15077174D01*
X22133635Y-15077174D02*
X22152682Y-15067650D01*
X22152682Y-15067650D02*
X22190777Y-15067650D01*
X22190777Y-15067650D02*
X22209825Y-15077174D01*
X22286016Y-15277174D02*
X22295539Y-15267650D01*
X22295539Y-15267650D02*
X22314587Y-15239079D01*
X22314587Y-15239079D02*
X22324111Y-15220031D01*
X22324111Y-15220031D02*
X22333635Y-15191460D01*
X22333635Y-15191460D02*
X22343158Y-15143841D01*
X22343158Y-15143841D02*
X22343158Y-15105746D01*
X22343158Y-15105746D02*
X22333635Y-15058127D01*
X22333635Y-15058127D02*
X22324111Y-15029555D01*
X22324111Y-15029555D02*
X22314587Y-15010508D01*
X22314587Y-15010508D02*
X22295539Y-14981936D01*
X22295539Y-14981936D02*
X22286016Y-14972412D01*
X15330000Y-15329500D02*
X15530000Y-15529500D01*
X15530000Y-15329500D02*
X15330000Y-15529500D01*
X15530000Y-15429500D02*
G75*
G02*
X15330000Y-15429500I-100000J0D01*
G01*
X15330000Y-15429500D02*
G75*
G02*
X15530000Y-15429500I100000J0D01*
G01*
X15771729Y-15320984D02*
X15895539Y-15320984D01*
X15895539Y-15320984D02*
X15828872Y-15397174D01*
X15828872Y-15397174D02*
X15857443Y-15397174D01*
X15857443Y-15397174D02*
X15876491Y-15406698D01*
X15876491Y-15406698D02*
X15886015Y-15416222D01*
X15886015Y-15416222D02*
X15895539Y-15435269D01*
X15895539Y-15435269D02*
X15895539Y-15482888D01*
X15895539Y-15482888D02*
X15886015Y-15501936D01*
X15886015Y-15501936D02*
X15876491Y-15511460D01*
X15876491Y-15511460D02*
X15857443Y-15520984D01*
X15857443Y-15520984D02*
X15800301Y-15520984D01*
X15800301Y-15520984D02*
X15781253Y-15511460D01*
X15781253Y-15511460D02*
X15771729Y-15501936D01*
X15981253Y-15501936D02*
X15990777Y-15511460D01*
X15990777Y-15511460D02*
X15981253Y-15520984D01*
X15981253Y-15520984D02*
X15971729Y-15511460D01*
X15971729Y-15511460D02*
X15981253Y-15501936D01*
X15981253Y-15501936D02*
X15981253Y-15520984D01*
X16066967Y-15340031D02*
X16076491Y-15330508D01*
X16076491Y-15330508D02*
X16095539Y-15320984D01*
X16095539Y-15320984D02*
X16143158Y-15320984D01*
X16143158Y-15320984D02*
X16162205Y-15330508D01*
X16162205Y-15330508D02*
X16171729Y-15340031D01*
X16171729Y-15340031D02*
X16181253Y-15359079D01*
X16181253Y-15359079D02*
X16181253Y-15378127D01*
X16181253Y-15378127D02*
X16171729Y-15406698D01*
X16171729Y-15406698D02*
X16057443Y-15520984D01*
X16057443Y-15520984D02*
X16181253Y-15520984D01*
X16305062Y-15320984D02*
X16324110Y-15320984D01*
X16324110Y-15320984D02*
X16343158Y-15330508D01*
X16343158Y-15330508D02*
X16352682Y-15340031D01*
X16352682Y-15340031D02*
X16362205Y-15359079D01*
X16362205Y-15359079D02*
X16371729Y-15397174D01*
X16371729Y-15397174D02*
X16371729Y-15444793D01*
X16371729Y-15444793D02*
X16362205Y-15482888D01*
X16362205Y-15482888D02*
X16352682Y-15501936D01*
X16352682Y-15501936D02*
X16343158Y-15511460D01*
X16343158Y-15511460D02*
X16324110Y-15520984D01*
X16324110Y-15520984D02*
X16305062Y-15520984D01*
X16305062Y-15520984D02*
X16286015Y-15511460D01*
X16286015Y-15511460D02*
X16276491Y-15501936D01*
X16276491Y-15501936D02*
X16266967Y-15482888D01*
X16266967Y-15482888D02*
X16257443Y-15444793D01*
X16257443Y-15444793D02*
X16257443Y-15397174D01*
X16257443Y-15397174D02*
X16266967Y-15359079D01*
X16266967Y-15359079D02*
X16276491Y-15340031D01*
X16276491Y-15340031D02*
X16286015Y-15330508D01*
X16286015Y-15330508D02*
X16305062Y-15320984D01*
X16495539Y-15320984D02*
X16514586Y-15320984D01*
X16514586Y-15320984D02*
X16533634Y-15330508D01*
X16533634Y-15330508D02*
X16543158Y-15340031D01*
X16543158Y-15340031D02*
X16552682Y-15359079D01*
X16552682Y-15359079D02*
X16562205Y-15397174D01*
X16562205Y-15397174D02*
X16562205Y-15444793D01*
X16562205Y-15444793D02*
X16552682Y-15482888D01*
X16552682Y-15482888D02*
X16543158Y-15501936D01*
X16543158Y-15501936D02*
X16533634Y-15511460D01*
X16533634Y-15511460D02*
X16514586Y-15520984D01*
X16514586Y-15520984D02*
X16495539Y-15520984D01*
X16495539Y-15520984D02*
X16476491Y-15511460D01*
X16476491Y-15511460D02*
X16466967Y-15501936D01*
X16466967Y-15501936D02*
X16457443Y-15482888D01*
X16457443Y-15482888D02*
X16447920Y-15444793D01*
X16447920Y-15444793D02*
X16447920Y-15397174D01*
X16447920Y-15397174D02*
X16457443Y-15359079D01*
X16457443Y-15359079D02*
X16466967Y-15340031D01*
X16466967Y-15340031D02*
X16476491Y-15330508D01*
X16476491Y-15330508D02*
X16495539Y-15320984D01*
X16647920Y-15520984D02*
X16647920Y-15387650D01*
X16647920Y-15406698D02*
X16657443Y-15397174D01*
X16657443Y-15397174D02*
X16676491Y-15387650D01*
X16676491Y-15387650D02*
X16705063Y-15387650D01*
X16705063Y-15387650D02*
X16724110Y-15397174D01*
X16724110Y-15397174D02*
X16733634Y-15416222D01*
X16733634Y-15416222D02*
X16733634Y-15520984D01*
X16733634Y-15416222D02*
X16743158Y-15397174D01*
X16743158Y-15397174D02*
X16762205Y-15387650D01*
X16762205Y-15387650D02*
X16790777Y-15387650D01*
X16790777Y-15387650D02*
X16809825Y-15397174D01*
X16809825Y-15397174D02*
X16819348Y-15416222D01*
X16819348Y-15416222D02*
X16819348Y-15520984D01*
X16914586Y-15520984D02*
X16914586Y-15387650D01*
X16914586Y-15406698D02*
X16924110Y-15397174D01*
X16924110Y-15397174D02*
X16943158Y-15387650D01*
X16943158Y-15387650D02*
X16971729Y-15387650D01*
X16971729Y-15387650D02*
X16990777Y-15397174D01*
X16990777Y-15397174D02*
X17000301Y-15416222D01*
X17000301Y-15416222D02*
X17000301Y-15520984D01*
X17000301Y-15416222D02*
X17009825Y-15397174D01*
X17009825Y-15397174D02*
X17028872Y-15387650D01*
X17028872Y-15387650D02*
X17057444Y-15387650D01*
X17057444Y-15387650D02*
X17076491Y-15397174D01*
X17076491Y-15397174D02*
X17086015Y-15416222D01*
X17086015Y-15416222D02*
X17086015Y-15520984D01*
X17476491Y-15311460D02*
X17305063Y-15568603D01*
X17733634Y-15320984D02*
X17752682Y-15320984D01*
X17752682Y-15320984D02*
X17771729Y-15330508D01*
X17771729Y-15330508D02*
X17781253Y-15340031D01*
X17781253Y-15340031D02*
X17790777Y-15359079D01*
X17790777Y-15359079D02*
X17800301Y-15397174D01*
X17800301Y-15397174D02*
X17800301Y-15444793D01*
X17800301Y-15444793D02*
X17790777Y-15482888D01*
X17790777Y-15482888D02*
X17781253Y-15501936D01*
X17781253Y-15501936D02*
X17771729Y-15511460D01*
X17771729Y-15511460D02*
X17752682Y-15520984D01*
X17752682Y-15520984D02*
X17733634Y-15520984D01*
X17733634Y-15520984D02*
X17714587Y-15511460D01*
X17714587Y-15511460D02*
X17705063Y-15501936D01*
X17705063Y-15501936D02*
X17695539Y-15482888D01*
X17695539Y-15482888D02*
X17686015Y-15444793D01*
X17686015Y-15444793D02*
X17686015Y-15397174D01*
X17686015Y-15397174D02*
X17695539Y-15359079D01*
X17695539Y-15359079D02*
X17705063Y-15340031D01*
X17705063Y-15340031D02*
X17714587Y-15330508D01*
X17714587Y-15330508D02*
X17733634Y-15320984D01*
X17886015Y-15501936D02*
X17895539Y-15511460D01*
X17895539Y-15511460D02*
X17886015Y-15520984D01*
X17886015Y-15520984D02*
X17876491Y-15511460D01*
X17876491Y-15511460D02*
X17886015Y-15501936D01*
X17886015Y-15501936D02*
X17886015Y-15520984D01*
X18086015Y-15520984D02*
X17971729Y-15520984D01*
X18028872Y-15520984D02*
X18028872Y-15320984D01*
X18028872Y-15320984D02*
X18009825Y-15349555D01*
X18009825Y-15349555D02*
X17990777Y-15368603D01*
X17990777Y-15368603D02*
X17971729Y-15378127D01*
X18162206Y-15340031D02*
X18171729Y-15330508D01*
X18171729Y-15330508D02*
X18190777Y-15320984D01*
X18190777Y-15320984D02*
X18238396Y-15320984D01*
X18238396Y-15320984D02*
X18257444Y-15330508D01*
X18257444Y-15330508D02*
X18266968Y-15340031D01*
X18266968Y-15340031D02*
X18276491Y-15359079D01*
X18276491Y-15359079D02*
X18276491Y-15378127D01*
X18276491Y-15378127D02*
X18266968Y-15406698D01*
X18266968Y-15406698D02*
X18152682Y-15520984D01*
X18152682Y-15520984D02*
X18276491Y-15520984D01*
X18447920Y-15320984D02*
X18409825Y-15320984D01*
X18409825Y-15320984D02*
X18390777Y-15330508D01*
X18390777Y-15330508D02*
X18381253Y-15340031D01*
X18381253Y-15340031D02*
X18362206Y-15368603D01*
X18362206Y-15368603D02*
X18352682Y-15406698D01*
X18352682Y-15406698D02*
X18352682Y-15482888D01*
X18352682Y-15482888D02*
X18362206Y-15501936D01*
X18362206Y-15501936D02*
X18371729Y-15511460D01*
X18371729Y-15511460D02*
X18390777Y-15520984D01*
X18390777Y-15520984D02*
X18428872Y-15520984D01*
X18428872Y-15520984D02*
X18447920Y-15511460D01*
X18447920Y-15511460D02*
X18457444Y-15501936D01*
X18457444Y-15501936D02*
X18466968Y-15482888D01*
X18466968Y-15482888D02*
X18466968Y-15435269D01*
X18466968Y-15435269D02*
X18457444Y-15416222D01*
X18457444Y-15416222D02*
X18447920Y-15406698D01*
X18447920Y-15406698D02*
X18428872Y-15397174D01*
X18428872Y-15397174D02*
X18390777Y-15397174D01*
X18390777Y-15397174D02*
X18371729Y-15406698D01*
X18371729Y-15406698D02*
X18362206Y-15416222D01*
X18362206Y-15416222D02*
X18352682Y-15435269D01*
X18590777Y-15320984D02*
X18609825Y-15320984D01*
X18609825Y-15320984D02*
X18628872Y-15330508D01*
X18628872Y-15330508D02*
X18638396Y-15340031D01*
X18638396Y-15340031D02*
X18647920Y-15359079D01*
X18647920Y-15359079D02*
X18657444Y-15397174D01*
X18657444Y-15397174D02*
X18657444Y-15444793D01*
X18657444Y-15444793D02*
X18647920Y-15482888D01*
X18647920Y-15482888D02*
X18638396Y-15501936D01*
X18638396Y-15501936D02*
X18628872Y-15511460D01*
X18628872Y-15511460D02*
X18609825Y-15520984D01*
X18609825Y-15520984D02*
X18590777Y-15520984D01*
X18590777Y-15520984D02*
X18571729Y-15511460D01*
X18571729Y-15511460D02*
X18562206Y-15501936D01*
X18562206Y-15501936D02*
X18552682Y-15482888D01*
X18552682Y-15482888D02*
X18543158Y-15444793D01*
X18543158Y-15444793D02*
X18543158Y-15397174D01*
X18543158Y-15397174D02*
X18552682Y-15359079D01*
X18552682Y-15359079D02*
X18562206Y-15340031D01*
X18562206Y-15340031D02*
X18571729Y-15330508D01*
X18571729Y-15330508D02*
X18590777Y-15320984D01*
X18733634Y-15320984D02*
X18733634Y-15359079D01*
X18809825Y-15320984D02*
X18809825Y-15359079D01*
X19105063Y-15597174D02*
X19095539Y-15587650D01*
X19095539Y-15587650D02*
X19076491Y-15559079D01*
X19076491Y-15559079D02*
X19066968Y-15540031D01*
X19066968Y-15540031D02*
X19057444Y-15511460D01*
X19057444Y-15511460D02*
X19047920Y-15463841D01*
X19047920Y-15463841D02*
X19047920Y-15425746D01*
X19047920Y-15425746D02*
X19057444Y-15378127D01*
X19057444Y-15378127D02*
X19066968Y-15349555D01*
X19066968Y-15349555D02*
X19076491Y-15330508D01*
X19076491Y-15330508D02*
X19095539Y-15301936D01*
X19095539Y-15301936D02*
X19105063Y-15292412D01*
X19171730Y-15340031D02*
X19181253Y-15330508D01*
X19181253Y-15330508D02*
X19200301Y-15320984D01*
X19200301Y-15320984D02*
X19247920Y-15320984D01*
X19247920Y-15320984D02*
X19266968Y-15330508D01*
X19266968Y-15330508D02*
X19276491Y-15340031D01*
X19276491Y-15340031D02*
X19286015Y-15359079D01*
X19286015Y-15359079D02*
X19286015Y-15378127D01*
X19286015Y-15378127D02*
X19276491Y-15406698D01*
X19276491Y-15406698D02*
X19162206Y-15520984D01*
X19162206Y-15520984D02*
X19286015Y-15520984D01*
X19524111Y-15520984D02*
X19524111Y-15320984D01*
X19609825Y-15520984D02*
X19609825Y-15416222D01*
X19609825Y-15416222D02*
X19600301Y-15397174D01*
X19600301Y-15397174D02*
X19581253Y-15387650D01*
X19581253Y-15387650D02*
X19552682Y-15387650D01*
X19552682Y-15387650D02*
X19533634Y-15397174D01*
X19533634Y-15397174D02*
X19524111Y-15406698D01*
X19733634Y-15520984D02*
X19714587Y-15511460D01*
X19714587Y-15511460D02*
X19705063Y-15501936D01*
X19705063Y-15501936D02*
X19695539Y-15482888D01*
X19695539Y-15482888D02*
X19695539Y-15425746D01*
X19695539Y-15425746D02*
X19705063Y-15406698D01*
X19705063Y-15406698D02*
X19714587Y-15397174D01*
X19714587Y-15397174D02*
X19733634Y-15387650D01*
X19733634Y-15387650D02*
X19762206Y-15387650D01*
X19762206Y-15387650D02*
X19781253Y-15397174D01*
X19781253Y-15397174D02*
X19790777Y-15406698D01*
X19790777Y-15406698D02*
X19800301Y-15425746D01*
X19800301Y-15425746D02*
X19800301Y-15482888D01*
X19800301Y-15482888D02*
X19790777Y-15501936D01*
X19790777Y-15501936D02*
X19781253Y-15511460D01*
X19781253Y-15511460D02*
X19762206Y-15520984D01*
X19762206Y-15520984D02*
X19733634Y-15520984D01*
X19914587Y-15520984D02*
X19895539Y-15511460D01*
X19895539Y-15511460D02*
X19886015Y-15492412D01*
X19886015Y-15492412D02*
X19886015Y-15320984D01*
X20066968Y-15511460D02*
X20047920Y-15520984D01*
X20047920Y-15520984D02*
X20009825Y-15520984D01*
X20009825Y-15520984D02*
X19990777Y-15511460D01*
X19990777Y-15511460D02*
X19981253Y-15492412D01*
X19981253Y-15492412D02*
X19981253Y-15416222D01*
X19981253Y-15416222D02*
X19990777Y-15397174D01*
X19990777Y-15397174D02*
X20009825Y-15387650D01*
X20009825Y-15387650D02*
X20047920Y-15387650D01*
X20047920Y-15387650D02*
X20066968Y-15397174D01*
X20066968Y-15397174D02*
X20076492Y-15416222D01*
X20076492Y-15416222D02*
X20076492Y-15435269D01*
X20076492Y-15435269D02*
X19981253Y-15454317D01*
X20152682Y-15511460D02*
X20171730Y-15520984D01*
X20171730Y-15520984D02*
X20209825Y-15520984D01*
X20209825Y-15520984D02*
X20228873Y-15511460D01*
X20228873Y-15511460D02*
X20238396Y-15492412D01*
X20238396Y-15492412D02*
X20238396Y-15482888D01*
X20238396Y-15482888D02*
X20228873Y-15463841D01*
X20228873Y-15463841D02*
X20209825Y-15454317D01*
X20209825Y-15454317D02*
X20181253Y-15454317D01*
X20181253Y-15454317D02*
X20162206Y-15444793D01*
X20162206Y-15444793D02*
X20152682Y-15425746D01*
X20152682Y-15425746D02*
X20152682Y-15416222D01*
X20152682Y-15416222D02*
X20162206Y-15397174D01*
X20162206Y-15397174D02*
X20181253Y-15387650D01*
X20181253Y-15387650D02*
X20209825Y-15387650D01*
X20209825Y-15387650D02*
X20228873Y-15397174D01*
X20305063Y-15597174D02*
X20314587Y-15587650D01*
X20314587Y-15587650D02*
X20333634Y-15559079D01*
X20333634Y-15559079D02*
X20343158Y-15540031D01*
X20343158Y-15540031D02*
X20352682Y-15511460D01*
X20352682Y-15511460D02*
X20362206Y-15463841D01*
X20362206Y-15463841D02*
X20362206Y-15425746D01*
X20362206Y-15425746D02*
X20352682Y-15378127D01*
X20352682Y-15378127D02*
X20343158Y-15349555D01*
X20343158Y-15349555D02*
X20333634Y-15330508D01*
X20333634Y-15330508D02*
X20314587Y-15301936D01*
X20314587Y-15301936D02*
X20305063Y-15292412D01*
X20666968Y-15597174D02*
X20657444Y-15587650D01*
X20657444Y-15587650D02*
X20638396Y-15559079D01*
X20638396Y-15559079D02*
X20628873Y-15540031D01*
X20628873Y-15540031D02*
X20619349Y-15511460D01*
X20619349Y-15511460D02*
X20609825Y-15463841D01*
X20609825Y-15463841D02*
X20609825Y-15425746D01*
X20609825Y-15425746D02*
X20619349Y-15378127D01*
X20619349Y-15378127D02*
X20628873Y-15349555D01*
X20628873Y-15349555D02*
X20638396Y-15330508D01*
X20638396Y-15330508D02*
X20657444Y-15301936D01*
X20657444Y-15301936D02*
X20666968Y-15292412D01*
X20743158Y-15387650D02*
X20743158Y-15520984D01*
X20743158Y-15406698D02*
X20752682Y-15397174D01*
X20752682Y-15397174D02*
X20771730Y-15387650D01*
X20771730Y-15387650D02*
X20800301Y-15387650D01*
X20800301Y-15387650D02*
X20819349Y-15397174D01*
X20819349Y-15397174D02*
X20828873Y-15416222D01*
X20828873Y-15416222D02*
X20828873Y-15520984D01*
X20952682Y-15520984D02*
X20933634Y-15511460D01*
X20933634Y-15511460D02*
X20924111Y-15501936D01*
X20924111Y-15501936D02*
X20914587Y-15482888D01*
X20914587Y-15482888D02*
X20914587Y-15425746D01*
X20914587Y-15425746D02*
X20924111Y-15406698D01*
X20924111Y-15406698D02*
X20933634Y-15397174D01*
X20933634Y-15397174D02*
X20952682Y-15387650D01*
X20952682Y-15387650D02*
X20981254Y-15387650D01*
X20981254Y-15387650D02*
X21000301Y-15397174D01*
X21000301Y-15397174D02*
X21009825Y-15406698D01*
X21009825Y-15406698D02*
X21019349Y-15425746D01*
X21019349Y-15425746D02*
X21019349Y-15482888D01*
X21019349Y-15482888D02*
X21009825Y-15501936D01*
X21009825Y-15501936D02*
X21000301Y-15511460D01*
X21000301Y-15511460D02*
X20981254Y-15520984D01*
X20981254Y-15520984D02*
X20952682Y-15520984D01*
X21076492Y-15387650D02*
X21152682Y-15387650D01*
X21105063Y-15320984D02*
X21105063Y-15492412D01*
X21105063Y-15492412D02*
X21114587Y-15511460D01*
X21114587Y-15511460D02*
X21133634Y-15520984D01*
X21133634Y-15520984D02*
X21152682Y-15520984D01*
X21371730Y-15387650D02*
X21371730Y-15587650D01*
X21371730Y-15397174D02*
X21390777Y-15387650D01*
X21390777Y-15387650D02*
X21428873Y-15387650D01*
X21428873Y-15387650D02*
X21447920Y-15397174D01*
X21447920Y-15397174D02*
X21457444Y-15406698D01*
X21457444Y-15406698D02*
X21466968Y-15425746D01*
X21466968Y-15425746D02*
X21466968Y-15482888D01*
X21466968Y-15482888D02*
X21457444Y-15501936D01*
X21457444Y-15501936D02*
X21447920Y-15511460D01*
X21447920Y-15511460D02*
X21428873Y-15520984D01*
X21428873Y-15520984D02*
X21390777Y-15520984D01*
X21390777Y-15520984D02*
X21371730Y-15511460D01*
X21581254Y-15520984D02*
X21562206Y-15511460D01*
X21562206Y-15511460D02*
X21552682Y-15492412D01*
X21552682Y-15492412D02*
X21552682Y-15320984D01*
X21743158Y-15520984D02*
X21743158Y-15416222D01*
X21743158Y-15416222D02*
X21733635Y-15397174D01*
X21733635Y-15397174D02*
X21714587Y-15387650D01*
X21714587Y-15387650D02*
X21676492Y-15387650D01*
X21676492Y-15387650D02*
X21657444Y-15397174D01*
X21743158Y-15511460D02*
X21724111Y-15520984D01*
X21724111Y-15520984D02*
X21676492Y-15520984D01*
X21676492Y-15520984D02*
X21657444Y-15511460D01*
X21657444Y-15511460D02*
X21647920Y-15492412D01*
X21647920Y-15492412D02*
X21647920Y-15473365D01*
X21647920Y-15473365D02*
X21657444Y-15454317D01*
X21657444Y-15454317D02*
X21676492Y-15444793D01*
X21676492Y-15444793D02*
X21724111Y-15444793D01*
X21724111Y-15444793D02*
X21743158Y-15435269D01*
X21809825Y-15387650D02*
X21886015Y-15387650D01*
X21838396Y-15320984D02*
X21838396Y-15492412D01*
X21838396Y-15492412D02*
X21847920Y-15511460D01*
X21847920Y-15511460D02*
X21866968Y-15520984D01*
X21866968Y-15520984D02*
X21886015Y-15520984D01*
X22028873Y-15511460D02*
X22009825Y-15520984D01*
X22009825Y-15520984D02*
X21971730Y-15520984D01*
X21971730Y-15520984D02*
X21952682Y-15511460D01*
X21952682Y-15511460D02*
X21943158Y-15492412D01*
X21943158Y-15492412D02*
X21943158Y-15416222D01*
X21943158Y-15416222D02*
X21952682Y-15397174D01*
X21952682Y-15397174D02*
X21971730Y-15387650D01*
X21971730Y-15387650D02*
X22009825Y-15387650D01*
X22009825Y-15387650D02*
X22028873Y-15397174D01*
X22028873Y-15397174D02*
X22038396Y-15416222D01*
X22038396Y-15416222D02*
X22038396Y-15435269D01*
X22038396Y-15435269D02*
X21943158Y-15454317D01*
X22209825Y-15520984D02*
X22209825Y-15320984D01*
X22209825Y-15511460D02*
X22190777Y-15520984D01*
X22190777Y-15520984D02*
X22152682Y-15520984D01*
X22152682Y-15520984D02*
X22133635Y-15511460D01*
X22133635Y-15511460D02*
X22124111Y-15501936D01*
X22124111Y-15501936D02*
X22114587Y-15482888D01*
X22114587Y-15482888D02*
X22114587Y-15425746D01*
X22114587Y-15425746D02*
X22124111Y-15406698D01*
X22124111Y-15406698D02*
X22133635Y-15397174D01*
X22133635Y-15397174D02*
X22152682Y-15387650D01*
X22152682Y-15387650D02*
X22190777Y-15387650D01*
X22190777Y-15387650D02*
X22209825Y-15397174D01*
X22286016Y-15597174D02*
X22295539Y-15587650D01*
X22295539Y-15587650D02*
X22314587Y-15559079D01*
X22314587Y-15559079D02*
X22324111Y-15540031D01*
X22324111Y-15540031D02*
X22333635Y-15511460D01*
X22333635Y-15511460D02*
X22343158Y-15463841D01*
X22343158Y-15463841D02*
X22343158Y-15425746D01*
X22343158Y-15425746D02*
X22333635Y-15378127D01*
X22333635Y-15378127D02*
X22324111Y-15349555D01*
X22324111Y-15349555D02*
X22314587Y-15330508D01*
X22314587Y-15330508D02*
X22295539Y-15301936D01*
X22295539Y-15301936D02*
X22286016Y-15292412D01*
M02*
